<?xml version="1.0" encoding="UTF-8" standalone="no"?>
<svg
   version="1.1"
   viewBox="0 0 268.79998 195.99998"
   width="7.1119995cm"
   height="5.185833cm"
   id="svg9"
   sodipodi:docname="finn.svg"
   inkscape:version="1.3.2 (091e20e, 2023-11-25)"
   xmlns:inkscape="http://www.inkscape.org/namespaces/inkscape"
   xmlns:sodipodi="http://sodipodi.sourceforge.net/DTD/sodipodi-0.dtd"
   xmlns="http://www.w3.org/2000/svg"
   xmlns:svg="http://www.w3.org/2000/svg">
  <sodipodi:namedview
     id="namedview9"
     pagecolor="#ffffff"
     bordercolor="#000000"
     borderopacity="0.25"
     inkscape:showpageshadow="2"
     inkscape:pageopacity="0.0"
     inkscape:pagecheckerboard="0"
     inkscape:deskcolor="#d1d1d1"
     inkscape:zoom="3.8775513"
     inkscape:cx="103.54473"
     inkscape:cy="88.32894"
     inkscape:window-width="1920"
     inkscape:window-height="1080"
     inkscape:window-x="0"
     inkscape:window-y="0"
     inkscape:window-maximized="0"
     inkscape:current-layer="svg9"
     inkscape:document-units="cm" />
  <!-- svg-source:excalidraw -->
  <metadata
     id="metadata1" />
  <defs
     id="defs1">
    <style
       class="style-fonts"
       id="style1" />
  </defs>
  <g
     transform="translate(10.800018,26)"
     stroke="none"
     id="g1"
     style="fill:none;stroke:#000000">
    <path
       fill="#1e1e1e"
       d="m 2.5,0.27 q 0,0 -0.37,2.06 Q 1.76,4.38 1.67,5.9 1.58,7.41 1.59,8.51 q 0.01,1.11 0.09,2.77 0.07,1.67 0.16,3.05 0.08,1.38 0.45,2.49 0.37,1.1 0.47,2.49 0.09,1.38 0.32,2.81 0.24,1.42 0.64,3.3 0.39,1.88 0.54,3.24 0.15,1.36 0.19,2.61 0.05,1.26 0.38,3.58 0.33,2.32 0.3,4.07 -0.03,1.75 0.14,3.21 0.17,1.46 0.69,3.56 0.53,2.1 1.01,3.97 0.49,1.87 0.73,3.63 0.25,1.76 0.37,2.92 0.12,1.16 0.24,2.78 0.12,1.61 0.15,3.7 0.03,2.08 -0.04,3.7 -0.06,1.61 -0.01,3.38 0.06,1.77 0.04,4.19 -0.02,2.41 0.02,4.36 0.03,1.94 0.08,3.37 0.05,1.44 0.01,2.84 -0.04,1.4 -0.2,3.37 -0.15,1.98 -0.28,3.96 -0.13,1.99 -0.18,3.76 -0.04,1.77 -0.02,3.21 0.02,1.44 0.02,2.97 0,1.53 0.03,2.87 0.02,1.34 0.06,2.6 0.03,1.26 0.16,3.04 0.13,1.79 0.2,3.59 0.08,1.81 0.28,3.61 0.21,1.8 0.36,3.36 0.16,1.56 0.27,2.68 0.11,1.12 0.37,2.36 0.26,1.23 0.41,2.61 0.16,1.39 0.34,3.25 0.18,1.87 0.54,3.01 0.36,1.13 0.57,2.52 0.22,1.39 0.3,2.92 0.08,1.53 0.34,2.66 0.26,1.12 0.52,3.41 0.25,2.29 0.22,2.69 -0.03,0.41 -0.19,0.78 -0.16,0.38 -0.43,0.68 -0.27,0.31 -0.62,0.51 -0.35,0.2 -0.75,0.28 -0.4,0.08 -0.81,0.03 -0.4,-0.05 -0.77,-0.23 -0.36,-0.18 -0.65,-0.47 -0.29,-0.28 -0.47,-0.65 -0.19,-0.36 -0.24,-0.76 -0.06,-0.41 0.01,-0.81 0.08,-0.4 0.27,-0.75 0.2,-0.36 0.5,-0.63 0.31,-0.28 0.68,-0.44 0.37,-0.16 0.78,-0.2 0.4,-0.04 0.8,0.06 0.4,0.1 0.74,0.31 0.34,0.22 0.6,0.54 0.26,0.31 0.4,0.69 0.14,0.39 0.16,0.79 0.01,0.41 -0.11,0.8 -0.11,0.39 -0.35,0.72 -0.23,0.33 -0.56,0.57 -0.33,0.24 -0.72,0.37 -0.39,0.12 -0.8,0.11 -0.4,-0.01 -0.79,-0.15 -0.38,-0.14 -0.7,-0.39 -0.32,-0.25 -0.54,-0.59 -0.22,-0.35 -0.32,-0.74 -0.1,-0.4 -0.1,-0.4 0,0 -0.12,-2.04 -0.13,-2.04 -0.38,-3.52 -0.26,-1.48 -0.3,-2.84 -0.05,-1.36 -0.13,-2.43 -0.07,-1.08 -0.41,-2.5 -0.33,-1.42 -0.7,-3.4 -0.37,-1.98 -0.43,-3.15 -0.06,-1.17 -0.31,-2.71 -0.24,-1.54 -0.22,-2.6 0.01,-1.07 -0.06,-2.49 -0.08,-1.43 -0.42,-3.4 -0.34,-1.97 -0.46,-3.64 -0.12,-1.66 -0.45,-3.71 -0.33,-2.05 -0.3,-3.31 0.04,-1.26 0.06,-2.6 0.03,-1.34 0.03,-2.87 0,-1.53 0.02,-2.97 Q 3.33,97.39 3.29,95.62 3.24,93.85 3.11,91.86 2.98,89.88 2.83,87.9 2.67,85.93 2.63,84.53 2.59,83.13 2.64,81.69 2.69,80.26 2.72,78.32 2.76,76.37 2.74,73.96 2.72,71.54 2.78,69.77 2.83,68.01 2.76,66.4 2.69,64.78 2.69,63.69 2.69,62.61 2.72,61.08 2.75,59.55 2.69,57.67 2.63,55.8 2.46,54.63 2.3,53.45 1.71,51.8 1.12,50.15 1.03,48.59 0.94,47.04 0.58,45.72 0.22,44.4 -0.1,42.61 -0.43,40.82 -0.64,38.23 -0.85,35.65 -1.15,34.22 -1.44,32.8 -1.58,30.81 -1.72,28.82 -2.07,26.98 -2.42,25.14 -2.7,23.93 -2.97,22.72 -2.83,21.1 -2.7,19.49 -3.11,17.59 -3.52,15.7 -3.42,14.31 q 0.09,-1.4 0.22,-3.13 0.12,-1.74 0.22,-2.89 0.09,-1.15 0.2,-2.78 0.1,-1.62 0.19,-3.71 0.09,-2.07 0.16,-2.37 0.07,-0.3 0.2,-0.57 0.14,-0.27 0.34,-0.5 0.2,-0.23 0.45,-0.4 0.25,-0.18 0.53,-0.29 0.29,-0.11 0.59,-0.15 0.3,-0.04 0.59,-0.01 0.3,0.04 0.59,0.14 0.29,0.11 0.54,0.28 0.25,0.17 0.45,0.39 0.21,0.23 0.35,0.5 0.15,0.27 0.22,0.56 0.08,0.3 0.08,0.6 0,0.29 0,0.29 z"
       id="path1"
       style="fill:none;stroke:#000000" />
  </g>
  <g
     transform="translate(10.800018,26.799988)"
     stroke="none"
     id="g2"
     style="fill:none;stroke:#000000">
    <path
       fill="#1e1e1e"
       d="m -2.64,0 q 0,0 -0.04,-0.91 -0.03,-0.92 -0.1,-2.04 -0.07,-1.11 0.28,-2.68 0.35,-1.56 0.64,-2.76 0.28,-1.2 0.95,-2.5 0.67,-1.29 1.41,-2.75 0.76,-1.46 1.86,-2.36 1.09,-0.9 2.14,-1.48 1.04,-0.58 2.53,-0.77 1.49,-0.2 3.15,-0.21 1.65,-0.02 3.02,-0.06 1.37,-0.04 3.15,-0.06 1.77,-0.02 3.23,0.06 1.46,0.08 2.9,0.07 1.44,-0.02 2.54,0.01 1.09,0.03 2.51,0.74 1.42,0.7 3.03,1.45 1.6,0.75 2.51,1.85 0.91,1.1 2.27,1.89 1.36,0.8 2.79,1.81 1.42,1.02 2.95,2.36 1.52,1.35 2.35,2.46 0.83,1.12 1.7,2.49 0.87,1.38 1.76,2.67 0.89,1.29 1.37,2.59 0.49,1.3 1.26,2.45 0.78,1.16 0.98,2.44 0.2,1.27 0.24,2.55 0.03,1.28 0.28,2.65 0.26,1.36 0.77,2.9 0.52,1.54 0.57,4.13 0.05,2.6 -0.04,3.18 -0.1,0.57 -0.37,1.09 -0.27,0.52 -0.7,0.92 -0.42,0.4 -0.95,0.65 -0.53,0.25 -1.11,0.31 -0.58,0.07 -1.16,-0.06 -0.57,-0.12 -1.07,-0.42 -0.5,-0.31 -0.88,-0.75 -0.38,-0.45 -0.6,-0.99 -0.22,-0.54 -0.25,-1.13 -0.03,-0.58 0.13,-1.14 0.15,-0.57 0.48,-1.05 0.33,-0.49 0.79,-0.84 0.47,-0.36 1.02,-0.54 0.55,-0.19 1.14,-0.19 0.58,0 1.14,0.18 0.55,0.19 1.02,0.54 0.47,0.35 0.8,0.84 0.32,0.48 0.48,1.05 0.16,0.56 0.13,1.14 -0.03,0.59 -0.25,1.13 -0.21,0.54 -0.59,0.99 -0.38,0.45 -0.88,0.75 -0.5,0.3 -1.07,0.43 -0.57,0.13 -1.16,0.06 -0.58,-0.06 -1.11,-0.3 -0.53,-0.25 -0.96,-0.65 -0.42,-0.4 -0.7,-0.92 -0.27,-0.52 -0.37,-1.09 -0.09,-0.58 -0.09,-0.58 0,0 0.2,-2.33 0.21,-2.34 -0.05,-3.46 Q 45.07,14.69 44.34,13.05 43.61,11.41 44.12,10.09 44.64,8.77 43.84,7.78 43.04,6.79 42.35,5.06 41.66,3.33 40.9,2.37 40.13,1.42 39.46,0.24 q -0.68,-1.16 -1.91,-2.56 -1.22,-1.39 -2.12,-2.16 -0.9,-0.78 -2.37,-1.88 -1.47,-1.11 -2.72,-1.78 -1.25,-0.68 -2.38,-1.65 -1.12,-0.97 -2.58,-1.55 -1.46,-0.58 -2.9,-0.6 -1.44,-0.01 -2.9,0.07 -1.46,0.08 -3.23,0.06 -1.77,-0.02 -3.12,-0.05 -1.35,-0.03 -2.9,-0.02 -1.54,0.01 -2.85,-0.03 -1.31,-0.04 -1.83,1.36 -0.51,1.41 -1.08,2.65 -0.56,1.24 -1.14,2.54 -0.58,1.3 -0.65,2.41 -0.07,1.12 -0.1,2.04 Q 2.64,0 2.6,0.31 2.57,0.63 2.45,0.93 2.34,1.23 2.16,1.49 1.98,1.75 1.74,1.96 1.5,2.17 1.22,2.32 0.93,2.47 0.62,2.55 0.31,2.62 0,2.62 -0.31,2.62 -0.62,2.55 -0.93,2.47 -1.22,2.32 -1.5,2.17 -1.74,1.96 -1.98,1.75 -2.16,1.49 -2.34,1.23 -2.45,0.93 -2.57,0.63 -2.6,0.31 Z"
       id="path2"
       style="fill:none;stroke:#000000" />
  </g>
  <g
     transform="translate(59.600067,48.400009)"
     stroke="none"
     id="g3"
     style="fill:none;stroke:#000000">
    <path
       fill="#1e1e1e"
       d="m 0,-2.29 q 0,0 2.3,0.13 2.3,0.13 3.73,0.09 1.44,-0.04 2.97,-0.06 1.53,-0.02 3.56,0.06 2.03,0.09 3.82,0.1 1.78,0.01 3,-0.06 1.21,-0.07 3.3,-0.2 2.08,-0.12 3.24,-0.16 1.16,-0.04 2.88,-0.13 1.72,-0.09 2.83,-0.12 1.12,-0.02 2.28,-0.03 1.17,-0.02 3.22,-0.07 2.05,-0.04 3.2,-0.05 1.16,0 3.2,-0.03 2.05,-0.04 3.2,-0.04 1.16,0 3.66,0.04 2.51,0.04 3.86,0.06 1.35,0.01 3.3,0.15 1.96,0.13 3.71,0.19 1.75,0.05 3.41,0.08 1.67,0.03 3.29,0.04 1.63,0.02 3.63,-0.08 2.01,-0.1 3.45,-0.2 1.44,-0.09 3.12,0.14 1.69,0.22 3.51,0.24 1.82,0.01 2.88,0.02 1.06,0 2.6,-0.03 1.53,-0.03 3.02,-0.07 1.49,-0.03 2.74,0 1.24,0.03 3.22,0.29 1.98,0.26 3.22,0.32 1.23,0.06 2.43,0.11 1.2,0.04 2.51,0.02 1.3,-0.02 2.6,-0.07 1.3,-0.05 2.43,-0.07 1.14,-0.03 3.51,-0.06 2.36,-0.04 2.9,0.05 0.54,0.09 1.03,0.35 0.48,0.25 0.86,0.65 0.37,0.4 0.6,0.88 0.23,0.5 0.29,1.04 0.06,0.55 -0.06,1.08 -0.11,0.54 -0.4,1.01 -0.28,0.46 -0.7,0.82 -0.41,0.35 -0.92,0.55 -0.51,0.21 -1.05,0.24 -0.55,0.03 -1.08,-0.12 -0.53,-0.15 -0.98,-0.45 -0.45,-0.31 -0.78,-0.75 -0.33,-0.43 -0.51,-0.95 -0.17,-0.52 -0.17,-1.07 0,-0.54 0.17,-1.06 0.18,-0.52 0.51,-0.94 0.33,-0.44 0.78,-0.75 0.46,-0.3 0.98,-0.45 0.53,-0.15 1.08,-0.12 0.54,0.03 1.05,0.24 0.51,0.2 0.93,0.55 0.41,0.36 0.69,0.83 0.29,0.45 0.4,0.99 0.12,0.53 0.06,1.08 -0.06,0.54 -0.29,1.04 -0.23,0.49 -0.6,0.89 -0.38,0.4 -0.86,0.65 -0.49,0.26 -1.03,0.35 -0.54,0.09 -0.54,0.09 0,0 -2.36,-0.04 Q 110.46,4.91 109.32,4.88 108.18,4.86 106.87,4.8 105.56,4.75 104.22,4.71 102.89,4.66 101.57,4.68 100.25,4.69 98.31,4.47 96.37,4.25 95.26,4.05 94.15,3.85 92.91,3.88 91.66,3.91 90.16,3.87 88.67,3.84 87.12,3.8 85.57,3.76 84.47,3.75 83.37,3.74 81.74,3.62 80.11,3.51 78.3,3.09 76.48,2.67 75.04,2.58 73.6,2.48 71.59,2.38 69.59,2.28 67.96,2.3 66.34,2.31 64.67,2.34 63.01,2.37 61.26,2.42 59.51,2.48 57.55,2.61 55.6,2.75 54.25,2.76 52.9,2.78 50.39,2.82 47.89,2.86 46.73,2.86 45.58,2.86 43.53,2.82 41.49,2.79 40.33,2.79 39.18,2.78 37.13,2.74 35.08,2.69 33.91,2.67 32.75,2.66 31.63,2.64 30.52,2.61 28.8,2.52 27.08,2.43 25.92,2.39 24.76,2.35 22.68,2.23 20.59,2.1 19.38,2.03 18.16,1.96 16.38,1.97 14.59,1.98 12.56,2.07 10.53,2.15 9,2.13 7.47,2.11 6.03,2.07 4.6,2.03 2.3,2.16 0,2.29 -0.27,2.25 -0.54,2.22 -0.8,2.12 -1.06,2.03 -1.29,1.87 -1.52,1.71 -1.7,1.5 -1.88,1.3 -2.01,1.05 -2.14,0.81 -2.21,0.54 -2.27,0.27 -2.27,0 q 0,-0.27 0.06,-0.54 0.07,-0.27 0.2,-0.51 0.13,-0.25 0.31,-0.45 0.18,-0.21 0.41,-0.37 0.23,-0.16 0.49,-0.25 0.26,-0.1 0.53,-0.13 z"
       id="path3"
       style="fill:none;stroke:#000000" />
  </g>
  <g
     transform="translate(174.79999,49.999985)"
     stroke="none"
     id="g4"
     style="fill:none;stroke:#000000">
    <path
       fill="#1e1e1e"
       d="m -2.63,0 q 0,0 -0.04,-0.91 -0.03,-0.92 -0.1,-2.04 -0.08,-1.11 -0.15,-2.38 -0.08,-1.26 -0.15,-2.47 -0.06,-1.2 -0.1,-2.33 -0.03,-1.13 -0.45,-2.54 -0.42,-1.42 -0.64,-2.9 -0.22,-1.48 -0.32,-3.07 -0.1,-1.6 -0.18,-3.25 -0.07,-1.66 -0.11,-2.74 -0.03,-1.07 0.26,-2.4 0.3,-1.33 1.08,-2.63 0.78,-1.3 1.64,-2.46 0.86,-1.17 2,-2.44 1.15,-1.27 2.78,-2.15 1.62,-0.87 2.67,-1.41 1.05,-0.54 2.12,-1.17 1.07,-0.63 3.01,-1.44 1.94,-0.81 3.1,-0.92 1.17,-0.11 2.43,-0.46 1.27,-0.35 2.56,-0.72 1.28,-0.36 2.44,-0.48 1.17,-0.12 2.63,-0.13 1.46,-0.01 2.84,0.28 1.38,0.3 3.65,1.06 2.28,0.76 3.87,1.32 1.6,0.57 3.32,1.72 1.73,1.15 3.01,1.59 1.28,0.43 2.17,1.2 0.9,0.78 1.57,1.62 0.67,0.83 1.3,1.99 0.63,1.15 1.81,2.78 1.18,1.62 1.75,2.57 0.57,0.95 1.15,2.27 0.58,1.33 1.46,3.44 0.87,2.1 1.56,3.36 0.69,1.26 1.2,2.77 0.5,1.5 0.89,3.26 0.39,1.76 0.77,3.42 0.39,1.65 0.52,2.81 0.12,1.17 0.29,3.07 0.16,1.9 0.21,3.57 0.04,1.68 0.25,2.83 0.21,1.14 0.45,2.94 0.23,1.8 0.64,3.36 0.41,1.55 0.52,3.27 0.1,1.71 0.04,3.22 -0.06,1.5 0.18,3.22 0.24,1.73 0.52,5.27 0.28,3.53 0.55,5.86 0.27,2.32 0.68,3.68 0.41,1.36 0.67,2.55 0.27,1.18 0.58,2.49 0.32,1.31 0.63,3.35 0.31,2.03 0.37,3.2 0.06,1.17 -0.09,3.28 -0.14,2.11 0.04,3.79 0.18,1.67 0.17,4.15 0,2.48 0.09,3.96 0.08,1.47 0.57,3.38 0.48,1.91 0.78,4.47 0.29,2.56 0.42,4.04 0.12,1.48 0.9,3.58 0.78,2.09 0.93,3.15 0.15,1.05 0.07,3.16 -0.09,2.11 0.14,3.5 0.22,1.39 0.33,3.07 0.11,1.68 0.59,3.39 0.48,1.72 0.82,3.81 0.34,2.09 1.56,5.67 1.22,3.59 2.15,5.8 0.94,2.22 1.64,3.9 0.7,1.68 1.1,2.92 0.4,1.24 1.17,2.67 0.77,1.44 0.92,3.51 0.14,2.07 0.08,2.47 -0.06,0.41 -0.25,0.77 -0.19,0.36 -0.48,0.64 -0.29,0.28 -0.66,0.46 -0.37,0.17 -0.77,0.22 -0.41,0.05 -0.81,-0.03 -0.39,-0.09 -0.74,-0.29 -0.36,-0.21 -0.62,-0.52 -0.27,-0.31 -0.42,-0.68 -0.16,-0.38 -0.18,-0.79 -0.03,-0.4 0.08,-0.8 0.1,-0.39 0.33,-0.73 0.22,-0.34 0.54,-0.59 0.32,-0.25 0.71,-0.38 0.38,-0.13 0.79,-0.14 0.41,0 0.8,0.12 0.38,0.13 0.71,0.37 0.33,0.25 0.56,0.58 0.23,0.34 0.34,0.73 0.11,0.39 0.1,0.8 -0.02,0.4 -0.17,0.78 -0.15,0.38 -0.41,0.69 -0.26,0.32 -0.6,0.53 -0.35,0.21 -0.75,0.31 -0.39,0.09 -0.8,0.05 -0.41,-0.04 -0.78,-0.21 -0.37,-0.17 -0.67,-0.45 -0.29,-0.27 -0.49,-0.63 -0.19,-0.36 -0.26,-0.76 -0.07,-0.4 -0.07,-0.4 0,0 0.08,-1.98 0.09,-1.98 -0.3,-3.01 -0.39,-1.03 -0.57,-2.11 -0.17,-1.07 -0.81,-2.69 -0.65,-1.61 -1.79,-3.89 -1.15,-2.29 -2.67,-6.04 -1.51,-3.76 -2.23,-6.59 -0.72,-2.82 -0.98,-4.16 -0.26,-1.33 -0.36,-2.8 -0.1,-1.48 -0.37,-3.18 -0.26,-1.7 -0.43,-3.61 -0.16,-1.92 -0.28,-3.62 -0.12,-1.7 -0.69,-3.17 -0.57,-1.46 -0.66,-2.84 -0.09,-1.38 -0.4,-3.22 -0.31,-1.85 -0.31,-3.44 0,-1.6 -0.21,-2.89 -0.2,-1.29 -0.2,-2.76 0.01,-1.46 -0.2,-3.74 -0.2,-2.28 -0.49,-4.22 -0.29,-1.94 -0.45,-4.01 -0.16,-2.07 -0.15,-3.16 0.01,-1.1 -0.05,-2.77 -0.05,-1.67 -0.43,-4.1 -0.37,-2.42 -0.77,-3.99 -0.4,-1.57 -0.95,-3.96 -0.55,-2.39 -1.12,-5.62 -0.57,-3.23 -1.26,-5.52 -0.69,-2.29 -0.77,-3.75 -0.07,-1.46 -0.03,-2.99 0.03,-1.54 -0.34,-3.17 Q 52.12,8.6 52.03,7.2 51.93,5.8 51.6,4.27 51.27,2.74 51.11,1.36 50.95,0 50.64,-2.25 q -0.32,-2.26 -0.41,-3.57 -0.1,-1.31 -0.48,-3.14 -0.38,-1.83 -0.67,-3.09 -0.3,-1.26 -0.79,-2.26 -0.49,-1.01 -1.31,-2.98 -0.83,-1.97 -1.71,-3.85 -0.88,-1.87 -1.85,-3.48 -0.97,-1.6 -2.02,-3.14 -1.05,-1.54 -2.33,-2.72 -1.28,-1.18 -3.07,-2.14 -1.78,-0.97 -2.76,-1.53 -0.97,-0.55 -2.19,-0.87 -1.23,-0.31 -2.86,-0.75 -1.63,-0.43 -2.97,-0.59 -1.33,-0.15 -2.96,-0.06 -1.62,0.08 -3.05,0.36 -1.43,0.28 -2.93,0.73 -1.49,0.45 -2.73,0.77 -1.23,0.31 -2.59,1.02 -1.36,0.72 -2.34,1.31 -0.99,0.6 -2.57,1.32 -1.59,0.73 -2.47,2.14 -0.88,1.41 -1.38,2.69 -0.5,1.28 -0.5,2.57 0.01,1.29 0.14,3.02 0.13,1.74 0.03,3.72 -0.1,1.98 0.62,3.74 0.71,1.77 0.68,2.9 Q 3.13,-9 3.07,-7.8 3,-6.59 2.92,-5.33 2.85,-4.06 2.77,-2.95 2.7,-1.83 2.67,-0.91 2.63,0 2.6,0.31 2.56,0.63 2.44,0.92 2.33,1.22 2.15,1.48 1.97,1.74 1.73,1.96 1.49,2.17 1.21,2.31 0.93,2.46 0.62,2.54 0.31,2.61 0,2.61 -0.31,2.61 -0.62,2.54 -0.93,2.46 -1.21,2.31 -1.49,2.17 -1.73,1.96 -1.97,1.74 -2.15,1.48 -2.33,1.22 -2.44,0.92 -2.56,0.63 -2.6,0.31 Z"
       id="path4"
       style="fill:none;stroke:#000000" />
  </g>
  <g
     transform="translate(19.600006,176.40001)"
     stroke="none"
     id="g5"
     style="fill:none;stroke:#000000">
    <path
       fill="#1e1e1e"
       d="m 0.11,-1.77 q 0,0 3.45,0.29 3.44,0.3 8.09,0.44 4.65,0.14 8.01,0.22 3.37,0.07 6.64,0.11 3.26,0.05 6.77,0.3 3.51,0.26 6.1,0.37 2.6,0.1 4.92,0.39 2.32,0.29 3.95,0.32 1.62,0.03 2.99,-0.02 1.37,-0.05 3.78,0.03 2.4,0.07 4.89,0.36 2.48,0.28 5.13,0.64 2.65,0.37 4.65,0.5 2,0.14 3.31,0.1 1.32,-0.05 3.01,-0.07 1.69,-0.01 3.06,0.16 1.36,0.17 3.22,0.53 1.85,0.36 3.49,0.47 1.64,0.12 4.01,0.49 2.37,0.38 5.36,0.55 2.99,0.18 5.88,0.27 2.9,0.1 5.51,0.15 2.61,0.05 5.89,0.55 3.28,0.5 5.51,0.71 2.23,0.21 4.09,0.26 1.85,0.04 3.66,0.26 1.81,0.21 3.18,0.23 1.38,0.03 2.8,0.24 1.42,0.22 2.77,0.27 1.35,0.06 2.85,0.08 1.5,0.01 3.74,0.14 2.24,0.12 4.81,0.2 2.57,0.09 5.96,0.15 3.39,0.06 5.75,0.1 2.36,0.04 4.75,0.07 2.38,0.03 4.31,0.01 1.94,-0.02 3.22,-0.13 1.28,-0.1 3.35,-0.27 2.07,-0.17 4.42,-0.23 2.35,-0.06 4.95,-0.07 2.61,-0.02 4.85,-0.01 2.25,0.01 3.43,-0.52 1.18,-0.53 3.33,-0.75 2.15,-0.23 3.33,-0.61 1.17,-0.39 2.89,-0.78 1.72,-0.39 2.97,-0.64 1.25,-0.25 3.72,-0.65 2.48,-0.41 3.91,-0.57 1.44,-0.15 3.34,-0.34 1.9,-0.19 3.24,-0.36 1.34,-0.18 2.86,-0.26 1.53,-0.07 3.44,-0.53 1.9,-0.46 3.11,-0.63 1.2,-0.16 2.51,-0.28 1.31,-0.11 2.45,-0.17 1.14,-0.06 4.31,-0.1 3.16,-0.04 3.65,0.04 0.48,0.08 0.92,0.31 0.43,0.23 0.77,0.59 0.33,0.35 0.54,0.8 0.21,0.44 0.26,0.93 0.05,0.49 -0.05,0.97 -0.11,0.48 -0.36,0.9 -0.25,0.42 -0.63,0.74 -0.37,0.31 -0.83,0.49 -0.45,0.19 -0.94,0.21 -0.49,0.03 -0.97,-0.1 -0.47,-0.13 -0.87,-0.41 -0.41,-0.27 -0.71,-0.66 -0.29,-0.39 -0.45,-0.86 -0.16,-0.46 -0.16,-0.96 0,-0.49 0.16,-0.95 0.16,-0.47 0.45,-0.86 0.3,-0.39 0.71,-0.66 0.4,-0.28 0.87,-0.41 0.48,-0.13 0.97,-0.1 0.49,0.02 0.94,0.21 0.46,0.18 0.83,0.49 0.38,0.32 0.63,0.74 0.25,0.42 0.36,0.9 0.1,0.48 0.05,0.97 -0.05,0.49 -0.26,0.93 -0.21,0.45 -0.54,0.8 -0.34,0.36 -0.77,0.59 -0.44,0.23 -0.92,0.31 -0.49,0.08 -0.49,0.08 0.01,0 -3.16,-0.04 -3.17,-0.04 -4.7,-0.12 -1.53,-0.09 -2.8,-0.18 -1.27,-0.08 -2.64,-0.06 -1.37,0.02 -2.68,0.24 -1.3,0.23 -2.71,0.25 -1.41,0.03 -2.66,0.09 -1.24,0.06 -3.25,0.42 -2.01,0.37 -3.28,0.43 -1.27,0.06 -3.84,0.3 -2.57,0.24 -3.69,0.3 -1.12,0.06 -2.81,0.4 -1.68,0.34 -3.11,0.58 -1.43,0.24 -3.24,0.42 -1.82,0.17 -3.47,0.58 -1.65,0.41 -3.9,0.45 -2.25,0.04 -4.82,0.11 -2.56,0.07 -4.81,0.21 -2.24,0.13 -4.48,0.42 -2.24,0.29 -3.52,0.19 -1.28,-0.11 -3.22,-0.13 -1.93,-0.02 -4.31,0 -2.39,0.03 -4.75,0.07 -2.36,0.04 -5.76,0.09 -3.4,0.05 -5.97,0.12 -2.58,0.07 -4.87,0.15 -2.3,0.08 -3.89,0 -1.59,-0.09 -3.18,-0.27 -1.59,-0.18 -2.75,-0.52 -1.17,-0.34 -2.64,-0.54 -1.47,-0.21 -3.11,-0.52 -1.63,-0.32 -3.54,-0.45 -1.92,-0.12 -4.23,-0.31 -2.32,-0.19 -5.4,-0.63 -3.09,-0.44 -5.71,-0.43 -2.63,0.01 -5.56,0 Q 97.8,7.84 94.66,7.77 91.52,7.7 89.21,7.49 86.9,7.28 85.09,7.12 83.28,6.95 80.36,6.33 77.43,5.71 75.69,5.65 73.96,5.59 72.62,5.42 71.28,5.25 69.2,5.11 67.12,4.96 64.5,4.66 61.88,4.36 59.53,4.17 57.19,3.98 54.73,4.01 52.28,4.04 50.86,3.9 49.45,3.75 47.77,3.55 46.09,3.35 43.88,3.09 41.67,2.83 39.02,2.74 36.38,2.65 32.97,2.43 29.55,2.21 26.27,2.22 22.99,2.23 19.61,2.22 16.23,2.21 11.51,2.16 6.79,2.1 3.33,1.94 -0.11,1.77 -0.32,1.73 -0.53,1.69 -0.73,1.6 -0.92,1.51 -1.09,1.38 -1.26,1.24 -1.39,1.07 -1.52,0.91 -1.61,0.71 -1.7,0.51 -1.73,0.3 -1.77,0.09 -1.76,-0.11 q 0.02,-0.22 0.08,-0.42 0.07,-0.2 0.18,-0.39 0.11,-0.18 0.26,-0.33 0.16,-0.15 0.34,-0.26 0.19,-0.11 0.39,-0.17 0.21,-0.07 0.42,-0.08 0.2,-0.01 0.2,-0.01 z"
       id="path5"
       style="fill:none;stroke:#000000" />
  </g>
  <g
     stroke-linecap="round"
     transform="translate(36.400024,76.400009)"
     id="g6"
     style="fill:none;stroke:#000000">
    <path
       d="m 76.74,-0.12 c 11.58,-1.31 25.88,0.36 37.76,2.32 11.87,1.96 24.19,5.44 33.49,9.45 9.29,4.01 17.54,9.58 22.29,14.61 4.74,5.02 7.27,10.13 6.18,15.52 -1.08,5.39 -5.94,11.84 -12.71,16.82 -6.76,4.99 -17.22,9.94 -27.87,13.08 -10.66,3.14 -23.58,5.11 -36.05,5.77 C 87.35,78.11 73.14,77.25 61.02,75.64 48.9,74.02 36.17,71.64 27.1,67.76 18.02,63.88 10.96,57.83 6.57,52.36 2.17,46.88 -0.35,40.54 0.75,34.91 1.84,29.27 6.52,23.41 13.12,18.54 19.72,13.67 28.78,8.7 40.35,5.66 51.93,2.62 74.63,1.23 82.55,0.29 90.47,-0.65 87.87,-0.48 87.87,0.02 M 67.88,1.18 c 11.49,-2.07 26.43,-2.61 38.73,-1.68 12.31,0.93 25.08,3.47 35.1,7.25 10.03,3.78 19.37,10.3 25.07,15.43 5.69,5.13 8.9,9.73 9.12,15.34 0.22,5.62 -2.42,12.91 -7.81,18.35 -5.4,5.44 -14.83,10.91 -24.55,14.29 -9.73,3.38 -21.62,4.72 -33.8,6.01 C 97.55,77.45 83.11,78.89 70.43,77.88 57.76,76.87 43.88,73.87 33.69,70.13 23.49,66.39 15.1,60.29 9.27,55.43 3.43,50.58 -1.13,46.57 -1.34,41.02 -1.54,35.47 2.27,27.52 8.05,22.14 13.82,16.76 23.27,11.99 33.32,8.73 43.38,5.46 62.65,3.84 68.38,2.55 74.12,1.27 67.31,0.54 67.72,1"
       stroke="#1e1e1e"
       stroke-width="1"
       fill="none"
       id="path6"
       style="fill:none;stroke:#000000" />
  </g>
  <g
     stroke-linecap="round"
     transform="translate(79.600067,95.599991)"
     id="g7"
     style="fill:none;stroke:#000000">
    <path
       d="M 3.34,-0.06 C 4.16,-0.15 5.96,0.98 6.76,1.89 7.56,2.81 7.99,4.01 8.14,5.42 8.29,6.83 8.13,8.97 7.65,10.35 7.17,11.73 6.07,13.03 5.27,13.71 4.47,14.39 3.69,14.84 2.84,14.42 2,14 0.73,12.56 0.23,11.19 -0.28,9.81 -0.43,7.79 -0.19,6.19 0.05,4.58 1.02,2.59 1.66,1.56 2.3,0.52 3.24,0.13 3.67,-0.04 4.11,-0.21 4.18,0.42 4.27,0.53 M 2.68,0.76 c 0.76,-0.16 2.84,0.3 3.61,0.9 0.77,0.6 0.8,1.46 1.02,2.71 0.23,1.25 0.41,3.14 0.3,4.76 -0.1,1.62 -0.22,4.23 -0.95,4.99 C 5.94,14.88 4.28,14.02 3.29,13.7 2.3,13.37 1.23,13.18 0.73,12.17 0.23,11.16 0.36,9.19 0.27,7.63 0.18,6.08 -0.31,4.13 0.18,2.84 0.67,1.55 2.73,0.22 3.21,-0.11 3.69,-0.43 3.08,0.69 3.07,0.91"
       stroke="#1e1e1e"
       stroke-width="1"
       fill="none"
       id="path7"
       style="fill:none;stroke:#000000" />
  </g>
  <g
     stroke-linecap="round"
     transform="translate(152,96)"
     id="g8"
     style="fill:none;stroke:#000000">
    <path
       d="m 4.83,-0.34 c 0.86,0.19 1.74,1.66 2.2,2.8 0.47,1.15 0.56,2.56 0.59,4.07 0.02,1.52 0.02,3.69 -0.44,5.02 -0.46,1.34 -1.42,2.68 -2.3,3.01 C 4,14.9 2.7,14.29 1.91,13.59 1.11,12.88 0.43,11.82 0.13,10.32 -0.17,8.83 -0.18,6.21 0.12,4.62 0.41,3.03 1.13,1.53 1.9,0.78 2.67,0.04 4.28,0.26 4.74,0.14 5.21,0.02 4.71,-0.07 4.71,0.05 m -0.2,-0.2 C 5.23,-0.17 6.18,0.67 6.68,1.73 7.19,2.79 7.38,4.59 7.55,6.2 7.71,7.82 8.18,10.11 7.7,11.44 7.21,12.76 5.61,13.87 4.61,14.17 3.61,14.46 2.26,13.85 1.68,13.21 1.1,12.57 1.31,11.67 1.13,10.32 0.95,8.96 0.6,6.48 0.59,5.07 0.59,3.66 0.5,2.57 1.09,1.85 1.67,1.13 3.56,1.12 4.11,0.74 4.65,0.35 4.41,-0.48 4.36,-0.49"
       stroke="#1e1e1e"
       stroke-width="1"
       fill="none"
       id="path8"
       style="fill:none;stroke:#000000" />
  </g>
  <g
     transform="translate(102.79999,116.40001)"
     stroke="none"
     id="g9"
     style="fill:none;stroke:#000000">
    <path
       fill="#1e1e1e"
       d="m 0,-2.65 q 0,0 1.15,-0.02 1.15,-0.02 2.73,-0.08 1.58,-0.07 3.22,-0.14 1.65,-0.07 2.72,0.25 1.07,0.33 2.48,0.28 1.4,-0.04 2.65,-0.09 1.25,-0.04 2.78,-0.07 1.53,-0.03 3.32,-0.77 1.79,-0.74 2.34,-0.84 0.54,-0.1 1.09,-0.02 0.55,0.08 1.05,0.33 0.5,0.25 0.89,0.65 0.38,0.4 0.63,0.9 0.24,0.5 0.31,1.05 0.07,0.55 -0.04,1.1 Q 27.21,0.41 26.93,0.89 26.65,1.37 26.24,1.74 25.82,2.11 25.31,2.32 24.79,2.54 24.24,2.58 23.68,2.62 23.15,2.48 22.61,2.34 22.14,2.03 21.68,1.73 21.33,1.29 20.99,0.86 20.8,0.33 q -0.19,-0.51 -0.2,-1.07 -0.01,-0.55 0.16,-1.08 0.17,-0.53 0.5,-0.98 0.33,-0.45 0.78,-0.77 0.46,-0.32 0.99,-0.48 0.53,-0.15 1.09,-0.13 0.55,0.02 1.07,0.21 0.52,0.2 0.95,0.55 0.43,0.35 0.73,0.83 0.29,0.47 0.42,1.01 0.13,0.54 0.08,1.09 -0.05,0.55 -0.27,1.05 -0.23,0.51 -0.6,0.92 -0.38,0.41 -0.86,0.68 -0.49,0.27 -0.49,0.27 0,0 -1.56,0.63 -1.57,0.62 -2.95,0.86 -1.38,0.23 -2.92,0.2 Q 16.19,4.08 14.9,4.03 13.61,3.98 12.34,3.91 11.07,3.85 9.8,3.41 8.53,2.96 6.99,2.89 5.46,2.82 3.88,2.75 2.3,2.69 1.15,2.67 0,2.65 -0.31,2.61 -0.63,2.57 -0.93,2.46 -1.23,2.35 -1.49,2.16 -1.76,1.98 -1.97,1.74 -2.18,1.5 -2.33,1.22 -2.48,0.94 -2.55,0.63 -2.63,0.31 -2.63,0 q 0,-0.32 0.08,-0.63 0.07,-0.31 0.22,-0.59 0.15,-0.28 0.36,-0.52 0.21,-0.24 0.48,-0.42 0.26,-0.19 0.56,-0.3 0.3,-0.11 0.62,-0.15 z"
       id="path9"
       style="fill:none;stroke:#000000" />
  </g>
</svg>
