
<svg width="120.78740157480317" height="57.795275590551185">
<line x1="10.0" y1="28.324982104509665" x2="12.290622763063709" y2="24.889047959914105" stroke="black" /><line x1="12.290622763063709" y1="24.889047959914105" x2="13.435934144595562" y2="22.598425196850396" stroke="black" /><line x1="13.435934144595562" y1="22.598425196850396" x2="13.435934144595562" y2="24.889047959914105" stroke="black" /><line x1="13.435934144595562" y1="24.889047959914105" x2="15.72655690765927" y2="28.324982104509665" stroke="black" /><line x1="15.72655690765927" y1="28.324982104509665" x2="16.871868289191124" y2="30.615604867573374" stroke="black" /><line x1="16.871868289191124" y1="30.615604867573374" x2="16.871868289191124" y2="32.90622763063708" stroke="black" /><line x1="16.871868289191124" y1="32.90622763063708" x2="14.581245526127416" y2="34.05153901216894" stroke="black" /><line x1="10.0" y1="32.90622763063708" x2="12.290622763063709" y2="34.05153901216894" stroke="black" /><line x1="12.290622763063709" y1="34.05153901216894" x2="16.871868289191124" y2="34.05153901216894" stroke="black" /><line x1="16.871868289191124" y1="34.05153901216894" x2="19.162491052254833" y2="32.90622763063708" stroke="black" /><line x1="19.162491052254833" y1="32.90622763063708" x2="20.307802433786687" y2="31.76091624910523" stroke="black" /><line x1="20.307802433786687" y1="31.76091624910523" x2="22.598425196850393" y2="28.324982104509665" stroke="black" /><line x1="22.598425196850393" y1="28.324982104509665" x2="24.8890479599141" y2="24.889047959914105" stroke="black" /><line x1="24.8890479599141" y1="24.889047959914105" x2="26.034359341445956" y2="22.598425196850396" stroke="black" /><line x1="26.034359341445956" y1="22.598425196850396" x2="26.034359341445956" y2="24.889047959914105" stroke="black" /><line x1="26.034359341445956" y1="24.889047959914105" x2="28.324982104509665" y2="28.324982104509665" stroke="black" /><line x1="28.324982104509665" y1="28.324982104509665" x2="29.47029348604152" y2="30.615604867573374" stroke="black" /><line x1="29.47029348604152" y1="30.615604867573374" x2="29.47029348604152" y2="32.90622763063708" stroke="black" /><line x1="29.47029348604152" y1="32.90622763063708" x2="27.17967072297781" y2="34.05153901216894" stroke="black" /><line x1="22.598425196850393" y1="32.90622763063708" x2="24.8890479599141" y2="34.05153901216894" stroke="black" /><line x1="24.8890479599141" y1="34.05153901216894" x2="29.47029348604152" y2="34.05153901216894" stroke="black" /><line x1="29.47029348604152" y1="34.05153901216894" x2="31.76091624910523" y2="32.90622763063708" stroke="black" /><line x1="31.76091624910523" y1="32.90622763063708" x2="32.90622763063708" y2="31.76091624910523" stroke="black" /><line x1="32.90622763063708" y1="31.76091624910523" x2="35.196850393700785" y2="28.324982104509665" stroke="black" /><line x1="35.196850393700785" y1="28.324982104509665" x2="37.487473156764494" y2="24.889047959914105" stroke="black" /><line x1="37.487473156764494" y1="24.889047959914105" x2="38.63278453829635" y2="22.598425196850396" stroke="black" /><line x1="38.63278453829635" y1="22.598425196850396" x2="38.63278453829635" y2="24.889047959914105" stroke="black" /><line x1="38.63278453829635" y1="24.889047959914105" x2="40.92340730136006" y2="28.324982104509665" stroke="black" /><line x1="40.92340730136006" y1="28.324982104509665" x2="42.06871868289191" y2="30.615604867573374" stroke="black" /><line x1="42.06871868289191" y1="30.615604867573374" x2="42.06871868289191" y2="32.90622763063708" stroke="black" /><line x1="42.06871868289191" y1="32.90622763063708" x2="39.7780959198282" y2="34.05153901216894" stroke="black" /><line x1="35.196850393700785" y1="32.90622763063708" x2="37.487473156764494" y2="34.05153901216894" stroke="black" /><line x1="37.487473156764494" y1="34.05153901216894" x2="42.06871868289191" y2="34.05153901216894" stroke="black" /><line x1="42.06871868289191" y1="34.05153901216894" x2="44.35934144595562" y2="32.90622763063708" stroke="black" /><line x1="44.35934144595562" y1="32.90622763063708" x2="45.504652827487476" y2="31.76091624910523" stroke="black" /><line x1="45.504652827487476" y1="31.76091624910523" x2="47.795275590551185" y2="28.324982104509665" stroke="black" /><line x1="47.795275590551185" y1="28.324982104509665" x2="50.085898353614894" y2="24.889047959914105" stroke="black" /><line x1="50.085898353614894" y1="24.889047959914105" x2="51.23120973514675" y2="22.598425196850396" stroke="black" /><line x1="51.23120973514675" y1="22.598425196850396" x2="51.23120973514675" y2="24.889047959914105" stroke="black" /><line x1="51.23120973514675" y1="24.889047959914105" x2="53.52183249821046" y2="28.324982104509665" stroke="black" /><line x1="53.52183249821046" y1="28.324982104509665" x2="54.66714387974231" y2="30.615604867573374" stroke="black" /><line x1="54.66714387974231" y1="30.615604867573374" x2="54.66714387974231" y2="32.90622763063708" stroke="black" /><line x1="54.66714387974231" y1="32.90622763063708" x2="52.3765211166786" y2="34.05153901216894" stroke="black" /><line x1="47.795275590551185" y1="32.90622763063708" x2="50.085898353614894" y2="34.05153901216894" stroke="black" /><line x1="50.085898353614894" y1="34.05153901216894" x2="54.66714387974231" y2="34.05153901216894" stroke="black" /><line x1="54.66714387974231" y1="34.05153901216894" x2="56.95776664280602" y2="32.90622763063708" stroke="black" /><line x1="56.95776664280602" y1="32.90622763063708" x2="58.103078024337876" y2="31.76091624910523" stroke="black" /><line x1="58.103078024337876" y1="31.76091624910523" x2="60.39370078740158" y2="28.324982104509665" stroke="black" /><line x1="60.39370078740158" y1="28.324982104509665" x2="62.68432355046529" y2="24.889047959914105" stroke="black" /><line x1="62.68432355046529" y1="24.889047959914105" x2="63.82963493199714" y2="22.598425196850396" stroke="black" /><line x1="63.82963493199714" y1="22.598425196850396" x2="63.82963493199714" y2="24.889047959914105" stroke="black" /><line x1="63.82963493199714" y1="24.889047959914105" x2="66.12025769506084" y2="28.324982104509665" stroke="black" /><line x1="66.12025769506084" y1="28.324982104509665" x2="67.2655690765927" y2="30.615604867573374" stroke="black" /><line x1="67.2655690765927" y1="30.615604867573374" x2="67.2655690765927" y2="32.90622763063708" stroke="black" /><line x1="67.2655690765927" y1="32.90622763063708" x2="64.97494631352899" y2="34.05153901216894" stroke="black" /><line x1="60.39370078740158" y1="32.90622763063708" x2="62.68432355046529" y2="34.05153901216894" stroke="black" /><line x1="62.68432355046529" y1="34.05153901216894" x2="67.2655690765927" y2="34.05153901216894" stroke="black" /><line x1="67.2655690765927" y1="34.05153901216894" x2="69.5561918396564" y2="32.90622763063708" stroke="black" /><line x1="69.5561918396564" y1="32.90622763063708" x2="70.70150322118826" y2="31.76091624910523" stroke="black" /><line x1="70.70150322118826" y1="31.76091624910523" x2="72.99212598425197" y2="28.324982104509665" stroke="black" /><line x1="72.99212598425197" y1="28.324982104509665" x2="75.28274874731568" y2="24.889047959914105" stroke="black" /><line x1="75.28274874731568" y1="24.889047959914105" x2="76.42806012884753" y2="22.598425196850396" stroke="black" /><line x1="76.42806012884753" y1="22.598425196850396" x2="76.42806012884753" y2="24.889047959914105" stroke="black" /><line x1="76.42806012884753" y1="24.889047959914105" x2="78.71868289191124" y2="28.324982104509665" stroke="black" /><line x1="78.71868289191124" y1="28.324982104509665" x2="79.8639942734431" y2="30.615604867573374" stroke="black" /><line x1="79.8639942734431" y1="30.615604867573374" x2="79.8639942734431" y2="32.90622763063708" stroke="black" /><line x1="79.8639942734431" y1="32.90622763063708" x2="77.57337151037939" y2="34.05153901216894" stroke="black" /><line x1="72.99212598425197" y1="32.90622763063708" x2="75.28274874731568" y2="34.05153901216894" stroke="black" /><line x1="75.28274874731568" y1="34.05153901216894" x2="79.8639942734431" y2="34.05153901216894" stroke="black" /><line x1="79.8639942734431" y1="34.05153901216894" x2="82.1546170365068" y2="32.90622763063708" stroke="black" /><line x1="82.1546170365068" y1="32.90622763063708" x2="83.29992841803866" y2="31.76091624910523" stroke="black" /><line x1="83.29992841803866" y1="31.76091624910523" x2="85.59055118110237" y2="28.324982104509665" stroke="black" /><line x1="85.59055118110237" y1="28.324982104509665" x2="87.88117394416608" y2="24.889047959914105" stroke="black" /><line x1="87.88117394416608" y1="24.889047959914105" x2="89.02648532569793" y2="22.598425196850396" stroke="black" /><line x1="89.02648532569793" y1="22.598425196850396" x2="89.02648532569793" y2="24.889047959914105" stroke="black" /><line x1="89.02648532569793" y1="24.889047959914105" x2="91.31710808876164" y2="28.324982104509665" stroke="black" /><line x1="91.31710808876164" y1="28.324982104509665" x2="92.4624194702935" y2="30.615604867573374" stroke="black" /><line x1="92.4624194702935" y1="30.615604867573374" x2="92.4624194702935" y2="32.90622763063708" stroke="black" /><line x1="92.4624194702935" y1="32.90622763063708" x2="90.17179670722979" y2="34.05153901216894" stroke="black" /><line x1="85.59055118110237" y1="32.90622763063708" x2="87.88117394416608" y2="34.05153901216894" stroke="black" /><line x1="87.88117394416608" y1="34.05153901216894" x2="92.4624194702935" y2="34.05153901216894" stroke="black" /><line x1="92.4624194702935" y1="34.05153901216894" x2="94.7530422333572" y2="32.90622763063708" stroke="black" /><line x1="94.7530422333572" y1="32.90622763063708" x2="95.89835361488906" y2="31.76091624910523" stroke="black" /><line x1="95.89835361488906" y1="31.76091624910523" x2="98.18897637795277" y2="28.324982104509665" stroke="black" /><line x1="98.18897637795277" y1="28.324982104509665" x2="100.47959914101648" y2="24.889047959914105" stroke="black" /><line x1="100.47959914101648" y1="24.889047959914105" x2="101.62491052254833" y2="22.598425196850396" stroke="black" /><line x1="101.62491052254833" y1="22.598425196850396" x2="101.62491052254833" y2="24.889047959914105" stroke="black" /><line x1="101.62491052254833" y1="24.889047959914105" x2="103.91553328561204" y2="28.324982104509665" stroke="black" /><line x1="103.91553328561204" y1="28.324982104509665" x2="105.0608446671439" y2="30.615604867573374" stroke="black" /><line x1="105.0608446671439" y1="30.615604867573374" x2="105.0608446671439" y2="32.90622763063708" stroke="black" /><line x1="105.0608446671439" y1="32.90622763063708" x2="102.77022190408019" y2="34.05153901216894" stroke="black" /><line x1="98.18897637795277" y1="32.90622763063708" x2="100.47959914101648" y2="34.05153901216894" stroke="black" /><line x1="100.47959914101648" y1="34.05153901216894" x2="105.0608446671439" y2="34.05153901216894" stroke="black" /><line x1="105.0608446671439" y1="34.05153901216894" x2="107.3514674302076" y2="32.90622763063708" stroke="black" /><line x1="107.3514674302076" y1="32.90622763063708" x2="108.49677881173946" y2="31.76091624910523" stroke="black" /><line x1="108.49677881173946" y1="31.76091624910523" x2="110.78740157480317" y2="28.324982104509665" stroke="black" />
</svg>
