<?xml version="1.0" encoding="UTF-8" standalone="no"?>
<svg
   version="1.1"
   viewBox="0 0 302.36221 302.36219"
   id="svg153"
   sodipodi:docname="pyday_logo.svg"
   inkscape:version="1.3.2 (091e20e, 2023-11-25)"
   width="8cm"
   height="8cm"
   xmlns:inkscape="http://www.inkscape.org/namespaces/inkscape"
   xmlns:sodipodi="http://sodipodi.sourceforge.net/DTD/sodipodi-0.dtd"
   xmlns="http://www.w3.org/2000/svg"
   xmlns:svg="http://www.w3.org/2000/svg">
  <defs
     id="defs153" />
  <sodipodi:namedview
     id="namedview153"
     pagecolor="#ffffff"
     bordercolor="#000000"
     borderopacity="0.25"
     inkscape:showpageshadow="2"
     inkscape:pageopacity="0.0"
     inkscape:pagecheckerboard="0"
     inkscape:deskcolor="#d1d1d1"
     inkscape:zoom="1.08"
     inkscape:cx="526.85185"
     inkscape:cy="130.55556"
     inkscape:window-width="1440"
     inkscape:window-height="872"
     inkscape:window-x="0"
     inkscape:window-y="0"
     inkscape:window-maximized="0"
     inkscape:current-layer="svg153"
     inkscape:document-units="cm" />
  <path
     id="path105"
     style="fill:none;stroke:#000000;stroke-width:0.303611"
     d="m 134.29194,10.752161 c -0.55141,-0.0337 -0.99441,0.210721 -1.57897,0.167895 -0.34351,-0.02442 -0.68079,0.0126 -1.01223,0.110534 -0.5464,0.161125 -1.15803,0.225979 -1.83499,0.195384 -0.52428,-0.02442 -1.01556,0.202076 -1.5519,0.247969 -0.38368,0.03057 -0.76931,0.08352 -1.15701,0.158938 -2.51699,0.491514 -4.95792,1.165029 -7.32225,2.019559 l -0.0482,0.180448 c -0.0261,0.09789 -0.0844,0.16809 -0.17479,0.210916 -0.87582,0.411977 -1.74755,0.831847 -2.61534,1.260138 -0.13458,0.06525 -0.2738,0.106176 -0.41843,0.12249 -0.0864,0.0078 -0.16417,0.03898 -0.23247,0.09202 -0.11048,0.08567 -0.20379,0.189534 -0.28013,0.311897 -0.0903,0.146844 -0.21254,0.194983 -0.36722,0.144001 -0.0864,-0.02852 -0.13193,0.0029 -0.13596,0.09436 0,0.03468 0.01,0.0636 0.03,0.08606 0.0342,0.04083 0.0251,0.06096 -0.027,0.06096 l -0.19538,-0.0029 c -0.10446,-0.0019 -0.19929,0.02872 -0.28367,0.09202 -0.4339,0.333455 -0.85559,0.663902 -1.36181,0.890293 -1.70544,0.756648 -3.44083,1.619031 -5.20656,2.587786 -0.30934,0.330389 -0.67235,0.644493 -1.08815,0.942264 -0.46202,0.334471 -0.82722,0.640399 -1.09639,0.917763 -0.68097,0.703621 -1.33529,1.410165 -2.1157,1.994462 -0.48412,0.363036 -0.93703,0.814684 -1.35887,1.355139 -1.75165,2.259733 -3.161543,4.598524 -4.230214,7.015299 -1.52867,3.456901 -2.745402,7.022577 -3.649356,10.697702 -0.114498,0.465002 -0.08409,0.908922 -0.313091,1.337213 -0.04822,0.09378 -0.07141,0.192356 -0.06943,0.296364 0.02411,0.737266 -0.256188,1.315653 -0.298373,2.031516 -0.06226,1.025854 -0.149396,2.06007 -0.261888,3.102237 -0.124546,1.150259 -0.06531,2.655348 0.177733,4.515334 0.156683,1.205335 0.01228,2.535963 0.165961,3.829998 0.461014,3.839309 1.367585,7.427609 2.376989,11.123131 1.286627,4.717291 3.311809,9.232815 5.309549,13.687026 3.60976,8.045708 9.52737,14.981231 15.50548,21.329083 0.47408,0.50374 1.03888,1.0001 1.69374,1.48958 0.19284,0.1448 0.37047,0.33145 0.53319,0.55985 0.4098,0.57208 1.07257,0.91206 1.53661,1.48719 0.231,-0.0163 0.38973,0.0337 0.4761,0.14999 0.0447,0.0591 0.10902,0.0993 0.18067,0.11292 0.73823,0.14377 1.40713,1.06456 1.85911,1.63358 0.75629,0.96059 1.87415,1.62776 2.66359,2.4874 0.19285,0.21211 0.26537,0.49444 0.21717,0.84726 -0.0121,0.0979 -0.0579,0.17533 -0.13831,0.23243 -0.13258,0.0898 -0.2079,0.22729 -0.22598,0.41287 3.37474,1.82329 6.49212,4.02204 9.3526,6.59585 5.45985,4.91105 10.49518,10.32769 15.10531,16.2503 0.1828,0.26513 0.40633,0.53359 0.67149,0.80485 1.0757,1.10438 1.98887,2.44396 2.65478,3.76248 0.0201,0.0386 0.0121,0.0715 -0.0242,0.098 -0.0382,0.0285 -0.0741,0.0267 -0.10829,-0.006 -1.00438,-0.98097 -2.03202,-1.92711 -3.08261,-2.83873 -1.13093,-0.98303 -2.44379,-1.5357 -3.93832,-1.65808 -0.17074,-0.0122 -0.23089,0.0643 -0.18066,0.22944 0.0442,0.14684 0.12664,0.26991 0.24717,0.36985 2.67569,2.18427 5.02271,4.3739 7.04152,6.56837 0.0633,0.0706 0.0168,0.18382 -0.0753,0.18343 -9.95146,0.0795 -19.87459,0.0906 -29.76982,0.0335 -1.36797,-0.006 -2.91368,0.1167 -4.17018,0.69489 -0.77337,0.35283 -1.5533,0.7727 -2.33875,1.26014 -0.19598,0.12044 -0.4385,0.13409 -0.64736,0.0364 -1.35792,-0.63836 -2.68315,-1.26751 -3.97479,-1.88752 -0.44595,-0.2121 -0.95001,-0.32604 -1.51247,-0.34236 -3.53746,-0.0918 -7.042,-0.13553 -10.51316,-0.13145 -1.476437,0.003 -2.699273,0.34227 -3.964797,1.00918 -0.912987,0.48336 -1.738859,0.2603 -2.675957,-0.0364 -1.179156,-0.37322 -2.395285,-0.5353 -3.648769,-0.48636 -0.02014,0.008 -0.04151,0.0163 -0.06356,0.0246 -0.170744,0.12236 -0.145635,0.29076 0.07531,0.50489 0.0839,0.081 0.19258,0.12961 0.3072,0.13742 1.016438,0.0836 1.950766,0.30583 2.802495,0.66682 1.195217,0.50783 2.339421,0.51506 3.432194,0.0214 0.801495,-0.36098 1.61487,-0.35163 2.443489,-0.74628 0.455995,-0.21822 1.050575,-0.30382 1.783775,-0.25692 0.85776,0.0551 2.28808,0.14696 4.29084,0.27545 0.49415,0.0306 0.99915,0.004 1.51541,-0.0801 0.60665,-0.0979 1.10604,-0.13976 1.49776,-0.12548 0.55441,0.0224 1.09446,0.036 1.62075,0.0401 0.59963,0.003 1.10935,0.29345 1.71198,0.21391 0.0362,-0.004 0.0523,0.0123 0.0482,0.0489 -0.002,0.0306 0.003,0.0595 0.0147,0.0861 0.0181,0.0347 0.0441,0.0592 0.0783,0.0734 1.0968,0.46091 2.18984,0.88174 3.2786,1.26311 0.35755,0.12441 0.70816,0.29468 1.05166,0.51087 0.41581,0.25901 0.88858,0.31439 1.4189,0.1655 1.37803,-0.38748 2.71316,-0.80452 4.00482,-1.25117 0.45598,-0.15703 0.97092,-0.22972 1.54543,-0.21749 2.25385,0.049 4.48582,0.0716 6.69548,0.0675 1.21731,-0.003 2.45262,-0.12554 3.64583,-0.12249 2.83438,0.0122 5.57756,0.0186 8.22914,0.0186 1.94952,0 3.98352,-0.28187 5.89688,-0.13503 1.97664,0.14684 3.9198,-0.018 5.8904,-0.11891 0.48613,-0.0244 0.98366,-0.0836 1.49188,-0.17746 1.12692,-0.20802 2.47973,0.3667 3.57049,0.65428 0.48614,0.12644 0.95888,0.30205 1.4189,0.52639 0.687,0.33039 1.43743,0.86913 2.254,0.77736 0.10244,-0.0101 0.20008,0.006 0.29249,0.0485 0.79246,0.37322 1.36192,1.00703 2.16042,1.40473 0.33948,0.16724 0.66497,0.35766 0.97634,0.57181 0.30935,0.21211 0.62771,0.40502 0.95515,0.57839 1.09678,0.58328 1.89598,1.25809 2.39818,2.02493 0.0803,0.12237 0.18792,0.20893 0.3225,0.25992 0.96121,0.37016 1.70874,0.48945 2.5253,-0.33043 0.51827,-0.52005 0.89154,-1.06266 1.12053,-1.62759 0.20188,-0.50171 0.58488,-0.81322 0.78978,-1.29658 0.30132,-0.7128 0.98499,-1.13846 1.62075,-1.5117 0.77339,-0.45275 1.44049,-1.13859 2.00095,-2.0584 0.28926,-0.47316 0.48021,-0.84264 0.57262,-1.10776 l -0.59087,-3.70751 c -0.0221,-0.14276 0.0381,-0.21356 0.18067,-0.21152 7.01064,0.16927 13.77854,-1.06734 20.30303,-3.7105 0.35958,-0.1448 0.53254,-0.40792 0.51848,-0.78931 -0.0602,-0.70972 -0.35691,-0.95553 -0.88923,-0.73731 -6.48836,2.65539 -13.24294,3.89733 -20.26361,3.72603 -0.10641,-0.004 -0.1999,-0.074 -0.23482,-0.17746 l -1.71138,-5.1947 c -0.0423,-0.1244 0.002,-0.1927 0.13242,-0.20493 6.17095,-0.4956 12.12728,-1.86596 17.86836,-4.11143 0.43992,-0.17132 0.65539,-0.49645 0.64736,-0.97572 -0.002,-0.0734 -0.0218,-0.14268 -0.06,-0.20794 -0.19887,-0.32632 -0.47787,-0.43078 -0.83745,-0.31249 -3.63386,1.19717 -6.69542,2.09479 -9.1843,2.69235 -2.9308,0.70566 -5.97904,1.16644 -9.14486,1.38262 -0.11372,0.008 -0.22235,-0.047 -0.28367,-0.14339 l -2.84722,-4.44544 c -0.0612,-0.0951 -0.014,-0.22301 0.0936,-0.25393 5.47491,-1.59079 10.60044,-3.19687 15.81622,-5.48209 0.25512,-0.11219 0.41384,-0.30605 0.47611,-0.58138 0.0402,-0.1754 -7.6e-4,-0.31199 -0.12359,-0.40988 -0.4138,-0.3304 -0.79138,-0.42893 -1.13288,-0.29637 -5.31722,2.07618 -10.68424,3.91895 -16.09989,5.52811 -0.15064,0.0445 -0.31264,-0.0105 -0.40666,-0.13802 -1.04657,-1.38685 -2.2063,-2.74999 -3.47987,-4.08992 -0.0861,-0.0916 -0.0688,-0.24016 0.0359,-0.3089 1.31776,-0.85658 2.74997,-1.65033 4.29672,-2.38046 3.09955,-1.4623 6.18806,-2.84621 9.26552,-4.15146 0.4339,-0.18355 0.51635,-0.46967 0.24717,-0.85921 -0.0342,-0.051 -0.0781,-0.0928 -0.13241,-0.12547 -0.44395,-0.26514 -0.89312,-0.31139 -1.34711,-0.13803 -4.54987,1.74986 -8.97729,3.9294 -13.2821,6.53788 -0.10666,0.0643 -0.2425,0.0479 -0.33133,-0.04 l -4.15194,-4.05346 c -0.0644,-0.0603 -0.0526,-0.16678 0.0236,-0.21092 3.56759,-2.13227 7.10845,-3.77533 10.75739,-5.52212 0.38166,-0.18153 0.4229,-0.42484 0.12359,-0.73075 -0.0523,-0.0531 -0.1139,-0.093 -0.18421,-0.1195 -0.4138,-0.15909 -0.8193,-0.17924 -1.21704,-0.061 -0.99233,0.29572 -2.02184,0.71026 -3.0885,1.2446 -2.47481,1.23796 -4.9204,2.58628 -7.33697,4.0445 -0.20033,0.12093 -0.45406,0.10007 -0.63264,-0.052 l -4.0619,-3.44461 c -0.13259,-0.11217 -0.12639,-0.21509 0.0183,-0.30891 2.93482,-1.87834 5.77072,-3.58737 8.50868,-5.12718 0.42185,-0.23861 0.46307,-0.53257 0.12359,-0.88132 -0.16472,-0.16928 -0.46358,-0.26022 -0.89748,-0.27246 -0.16992,-0.006 -0.33829,0.0332 -0.48846,0.11353 -2.94889,1.57244 -5.77546,3.34692 -8.47927,5.32316 -0.0642,0.045 -0.14952,0.0411 -0.20774,-0.01 l -4.67631,-3.96144 c -0.21292,-0.17949 -0.19774,-0.33529 0.0453,-0.46785 2.76609,-1.52553 5.51115,-3.12249 8.23504,-4.79079 0.27319,-0.165204 0.33708,-0.391797 0.19245,-0.679361 -0.0602,-0.116256 -0.14552,-0.20815 -0.25601,-0.275449 -0.39974,-0.24066 -0.80151,-0.243503 -1.20527,-0.0088 l -8.31919,4.85173 c -0.17954,0.10605 -0.4072,0.0815 -0.56379,-0.061 l -5.64322,-5.145703 c -0.1105,-0.09993 -0.10056,-0.185546 0.03,-0.256928 l 8.31037,-4.610341 c 0.33547,-0.185592 0.3587,-0.405903 0.0694,-0.660839 l -0.32545,-0.287347 c -0.28323,-0.24881 -0.59075,-0.28593 -0.9222,-0.110532 -2.92879,1.53368 -5.64874,3.05323 -8.1597,4.558356 -0.12237,0.07382 -0.27891,0.05508 -0.38254,-0.04601 -1.7175,-1.660128 -3.39426,-3.421098 -5.02941,-5.283125 -0.0889,-0.102893 -0.0574,-0.263419 0.0636,-0.323847 l 4.99882,-2.5364 c 1.12491,-0.624084 2.33112,-1.354276 3.61875,-2.190453 0.15266,-0.09993 0.1759,-0.322143 0.0694,-0.666812 -0.0824,-0.261056 -0.38182,-0.395763 -0.89807,-0.403912 -0.0729,-0.0023 -0.14553,0.01596 -0.21069,0.05198 l -8.59343,4.561346 c -0.2208,0.117998 -0.49349,0.05275 -0.63913,-0.152965 l -3.75116,-5.234131 c -0.055,-0.07746 -0.0273,-0.18591 0.0571,-0.223471 L 138.61,81.487589 c 0.0478,-0.02231 0.0916,-0.05353 0.12947,-0.09202 0.40979,-0.42626 0.57844,-0.818739 0.50612,-1.177677 -0.0964,-0.487443 -0.36832,-0.631283 -0.81626,-0.431399 l -8.43689,3.78399 c -0.12254,0.05508 -0.21831,0.02394 -0.28661,-0.09437 l -3.40159,-5.947555 c -0.0278,-0.04779 -0.006,-0.109454 0.0453,-0.128464 2.87858,-1.074797 5.84062,-2.304784 8.88592,-3.689588 0.31538,-0.142748 0.38825,-0.366863 0.21952,-0.672777 l -0.24659,-0.449926 c -0.15813,-0.282761 -0.49502,-0.406182 -0.79272,-0.290383 l -8.77411,3.398603 c -0.084,0.03137 -0.17775,-0.007 -0.21716,-0.08841 l -2.98604,-6.405846 c -0.0535,-0.116834 0.0167,-0.253381 0.14183,-0.275449 1.96659,-0.342629 3.83466,-0.673105 5.60439,-0.991253 0.69301,-0.122373 1.27441,-0.345959 1.94032,-0.575398 0.10848,-0.03673 0.21697,-0.03673 0.32545,0 l 4.53506,1.517651 c 1.1229,0.2733 2.14622,0.546492 3.07026,0.819783 0.63277,0.186611 0.9401,0.853689 1.2806,1.548129 0.0844,0.03261 0.1659,0.04989 0.24423,0.05198 0.0864,0.0039 0.12236,0.04787 0.10829,0.131454 -0.006,0.02851 -0.0203,0.04965 -0.0424,0.06391 -0.0161,0.0023 -0.0132,0.02649 0.003,0.02448 0.14463,0.02239 0.28443,0.01967 0.41901,-0.0088 0.0984,-0.02045 0.17715,-0.07328 0.23541,-0.158937 0.40979,-0.603684 0.7598,-0.879368 1.05108,-0.826343 0.54036,-0.609804 1.11697,-0.72909 1.72964,-0.357907 0.11851,0.07141 0.24652,0.104115 0.38311,0.09799 0.6388,-0.02852 1.25603,0.03253 1.85264,0.183437 0.8045,0.20191 1.56119,0.04631 2.34462,0.211513 0.57249,0.124415 1.13299,0.19556 1.68138,0.213916 2.43664,0.08968 4.83483,0.08694 7.19512,-0.0088 0.37967,-0.01426 0.76437,-0.07063 1.15408,-0.168501 0.68098,-0.168247 1.33474,-0.03937 2.01271,-0.244375 0.65384,-0.195795 1.35939,-0.242059 2.04037,-0.391961 3.44103,-0.762762 6.74222,-1.919116 9.90404,-3.469102 2.44367,-1.199219 4.17641,-2.845242 5.8698,-4.888783 0.0261,-0.03263 0.0593,-0.04992 0.0995,-0.05197 l 0.12653,-0.0088 c 0.0964,-0.0059 0.14045,-0.05803 0.13242,-0.155948 -0.0121,-0.165199 0.0301,-0.322544 0.12653,-0.47143 1.12491,-1.723361 2.01893,-3.562687 2.68184,-5.518543 0.10545,-0.312043 0.0783,-0.60912 0.27718,-0.878337 0.0663,-0.08977 0.0976,-0.18921 0.0936,-0.299353 -0.014,-0.330378 0.056,-0.623391 0.21068,-0.878316 0.0642,-0.10606 0.0947,-0.220959 0.0906,-0.345364 -0.0272,-0.79538 0.30096,-1.401071 0.31603,-2.168933 0.0261,-1.397036 0.0214,-2.763623 -0.0147,-4.099478 -0.0151,-0.477243 -0.205,-0.826201 -0.24718,-1.291203 -0.0783,-0.83211 -0.24513,-1.590633 -0.50023,-2.2759 -0.31639,-0.841263 -0.6207,-1.697718 -1.18115,-2.37687 -0.67294,-0.809652 -1.20457,-1.732778 -1.59427,-2.76882 -0.0375,-0.0981 -0.1,-0.18292 -0.18068,-0.244981 -0.53634,-0.409935 -0.6585,-0.986574 -0.36723,-1.73097 0.0964,-0.244737 0.15318,-0.498724 0.17126,-0.761816 0.0502,-0.709737 0.16924,-1.417883 0.35605,-2.123527 0.47307,-1.792709 0.29475,-3.744287 -0.17832,-5.592043 -0.42386,-1.654014 -1.09563,-3.184579 -2.01565,-4.591814 -1.35894,-2.083319 -3.16364,-3.466406 -5.43254,-4.371938 -0.81356,-0.324274 -1.60995,-0.493595 -2.38936,-0.507877 -0.83363,-0.01426 -1.66658,0.01651 -2.49823,0.09202 -0.3214,0.02852 -0.60754,-0.03879 -0.85863,-0.20195 -1.27759,-0.830069 -2.58331,-1.624159 -3.91713,-2.382848 -0.7794,-0.444595 -1.58292,-0.838626 -2.41053,-1.181255 -3.41292,-1.411328 -6.84119,-2.411265 -10.28423,-3.000672 -1.16912,-0.20191 -2.33596,-0.334716 -3.50105,-0.397939 -0.23503,-0.01221 -0.4762,-0.05598 -0.72329,-0.131448 -0.22899,-0.06936 -0.46304,-0.09923 -0.70209,-0.08899 -1.11688,0.04483 -2.2766,0.02472 -3.47987,-0.06095 -0.94009,-0.06731 -1.8465,-0.08362 -2.71831,-0.04894 -0.92205,0.03879 -1.82787,0.02862 -2.71776,-0.03048 z m 3.31566,2.600935 c 2.22787,0.0088 4.463,0.134604 6.69726,0.36328 6.48733,0.660776 12.91746,2.129418 18.25678,5.702577 0.1173,0.07952 0.15865,0.234049 0.0965,0.360886 -0.19886,0.407903 -0.52623,0.728299 -0.98222,0.960785 -2.82935,4.084043 -3.96252,8.877787 -2.40172,13.74498 0.65086,1.980338 1.84994,3.720179 3.59758,5.219191 3.1578,2.710463 6.69118,3.411711 10.60025,2.10441 1.26755,-0.422165 2.41361,-1.360101 3.43808,-2.814236 0.0642,-0.08977 0.14861,-0.148914 0.25306,-0.177468 0.1607,-0.04083 0.29245,0.0338 0.3949,0.22347 1.99671,2.867494 3.05133,6.034401 3.16382,9.501501 0.0723,2.263816 -0.3716,4.500035 -1.3318,6.708775 -0.79748,2.420849 -2.2027,4.61141 -4.2155,6.57134 -0.10044,0.09583 -0.19842,0.154082 -0.29485,0.17448 0.006,0.08567 -0.0243,0.160236 -0.0906,0.223469 -0.80753,0.737266 -1.61537,1.557283 -2.49823,2.135475 -2.21366,1.44802 -4.63976,2.508093 -7.27928,3.1811 -2.17953,0.638368 -3.78376,1.007851 -4.81226,1.107785 -4.85722,0.477231 -9.63641,0.657533 -14.578,-0.04308 -6.24126,-0.883084 -11.91367,-2.312622 -17.01796,-4.288885 -3.662,-1.417424 -7.29488,-3.230931 -10.89862,-5.439671 -0.1125,-0.06936 -0.25043,-0.182343 -0.41314,-0.339385 -0.12455,-0.11829 -0.26622,-0.230337 -0.4249,-0.336387 0.81957,2.838941 1.66957,5.65427 2.54943,8.446312 0.34951,1.111506 0.77732,2.265008 1.28354,3.460144 2.18554,5.149656 4.63113,9.990619 7.33695,14.522328 1.68136,2.816496 3.79865,5.666456 6.3518,8.550275 3.7966,4.289003 7.82505,8.223213 12.08566,11.802493 4.70857,3.95861 9.06497,7.67785 13.06847,11.15718 3.60776,3.13263 7.02025,6.75369 10.23832,10.86323 0.5725,0.73012 1.40639,2.03599 2.50117,3.91842 2.45272,3.9321 3.59259,8.26507 3.41983,12.99869 -0.006,0.22639 -0.15647,0.53561 -0.31014,0.70386 -1.62712,1.78046 -3.23032,3.60375 -4.26082,5.78802 -0.0638,0.13595 -0.2415,0.16694 -0.34958,0.061 -3.23011,-3.2346 -7.05862,-5.3616 -11.48596,-6.38134 -0.56647,-0.13155 -0.93711,-0.62413 -1.20527,-1.11972 -1.52467,-2.81244 -3.21602,-5.50031 -5.07414,-8.06392 -3.90507,-5.04973 -8.00137,-9.6814 -12.2881,-13.89494 -2.55215,-2.50855 -5.36344,-4.93131 -8.33743,-7.09417 -2.03087,-1.4776 -4.07685,-2.92174 -5.97514,-4.47889 -3.4772,-2.85525 -6.75855,-6.01647 -9.84403,-9.483573 -1.63313,-1.835528 -3.63947,-4.261814 -6.01988,-7.278195 -0.79949,-1.013627 -1.37795,-1.928893 -1.73551,-2.746726 -0.86779,-0.995268 -1.68184,-2.155997 -2.44114,-3.481651 -3.61983,-6.314212 -6.32363,-12.911729 -8.111451,-19.792912 -0.85372,-3.279471 -1.434993,-6.648073 -1.744345,-10.104974 -0.228997,-2.579932 -0.240449,-4.951801 -0.03357,-7.115673 0.569493,-5.898157 1.947043,-12.086621 4.523296,-17.27503 3.47116,-6.996407 9.79236,-12.53696 16.96971,-15.336132 6.32763,-2.468774 12.94562,-3.495322 19.62918,-3.468506 z m -17.06562,49.663309 c 0.0346,-0.02911 0.10447,-0.01466 0.20892,0.04239 2.15342,1.174739 4.50849,2.250208 7.06566,3.227111 0.10445,0.04083 0.10165,0.07072 -0.009,0.08899 l -5.42961,0.893272 c -0.37161,0.06116 -0.61465,-0.09085 -0.72917,-0.455896 l -1.10581,-3.579646 c -0.0351,-0.115231 -0.0359,-0.187237 -7.6e-4,-0.216299 z"
     sodipodi:nodetypes="scccccccccccccccccccccccccccccccccccccccccccccccccccccccccccccccccccccccccccccccccccccccccsccscccccccccccccccccccccccccccccccccccccccccccccccccccccccscccccccccccccccccccccccccccccccccccccccccccccccccccccccccccccccccccccccccccccccccsccccccccccccccccccccccccccccsscccccccccccccccccccccccccccccccccccccscccccccccccssccccccssc" />
  <path
     fill="#fffdde"
     d="m 149.01126,33.409852 c -2.72053,0.925831 -3.83492,-4.420675 -3.91276,-5.982588 -0.10613,-2.099028 1.94223,-3.523114 3.7854,-2.180304 q 2.18987,1.593711 2.40568,4.774059 c 0.10613,1.551305 -0.79954,2.883516 -2.27832,3.388833 z"
     id="path113"
     style="fill:none;stroke:#000000;stroke-width:0.353573" />
  <path
     fill="#fffdde"
     d="m 170.88469,30.895712 c -2.72054,0.925832 -3.83493,-4.420685 -3.91276,-5.982589 -0.10613,-2.099027 1.94223,-3.523123 3.7854,-2.180303 q 2.18987,1.59371 2.40567,4.774049 c 0.10613,1.551305 -0.79953,2.883526 -2.27831,3.388843 z"
     id="path113-6"
     style="fill:none;stroke:#000000;stroke-width:0.353573" />
  <path
     fill="#252004"
     d="m 171.06197,61.772385 q 0.47909,-0.09485 0.9371,-0.12543 1.10884,-0.06731 2.20563,-0.721968 0.77138,-0.458886 0.32242,0.327331 -0.64181,1.131913 -1.93144,1.599972 c -1.39812,0.507828 -2.7872,0.816813 -4.30584,0.871879 q -4.67946,0.1652 -9.28961,-0.642441 -6.65309,-1.162498 -12.29978,-3.33149 c -1.93446,-0.740323 -3.96233,-1.804939 -5.54424,-3.025563 q -1.03352,-0.795399 -0.92203,-1.951783 a 0.17175096,0.17437548 0 0 1 0.24707,-0.140719 q 1.81093,0.902465 3.45009,1.887535 2.08813,1.257334 4.85724,2.266884 c 3.01921,1.104374 6.24029,2.055791 9.49452,2.529975 2.23276,0.324273 4.50168,0.813745 6.75553,0.905522 q 3.13972,0.125431 6.02334,-0.449704 z"
     id="path119"
     style="fill:none;stroke:#000000;stroke-width:0.303611" />
  <path
     fill="#fffdde"
     d="m 136.85067,73.380809 q 1.68437,0.409931 3.07042,0.81987 c 0.63277,0.186607 0.94012,0.85352 1.2806,1.547963 1.93145,3.652709 4.30583,6.861835 6.80375,10.257564 q 3.51638,4.790744 8.49413,9.095061 c 4.13107,3.576225 9.28963,7.149393 14.30354,10.101543 q 4.95067,2.91543 9.61506,5.6779 5.48397,3.24584 10.50995,7.88667 10.06401,9.29086 13.15551,23.27454 0.77741,3.50587 0.80452,5.91654 0,0.16519 -0.15969,0.19579 -0.52128,0.10095 -1.05462,0.0276 -0.46704,-4.48787 -2.18756,-8.58111 -1.37099,-4.59495 -4.18531,-9.30615 c -4.10092,-6.87101 -9.68434,-12.30111 -16.49411,-16.50143 -2.26289,-1.39805 -4.53181,-2.90931 -6.88209,-4.20336 -1.6241,-0.89941 -3.22711,-1.90589 -4.90244,-2.8512 q -2.71487,-1.53266 -5.63463,-3.64353 -3.57363,-2.59116 -8.07531,-6.100073 -1.93144,-1.505135 -4.96872,-4.906992 -1.3017,-1.33381 -2.56723,-2.734943 -0.88889,-0.982007 -1.66628,-2.049672 -0.57854,-0.79846 -2.24483,-3.453858 c -0.7804,-1.251228 -1.85309,-2.288295 -2.55517,-3.563993 q -1.26854,-2.300538 -2.68171,-4.674489 -0.36159,-0.608785 -0.83466,-1.162502 -0.43088,-0.507836 -0.94312,-1.067673 z"
     id="path124"
     style="fill:none;stroke:#000000;stroke-width:0.303611" />
  <path
     fill="#fffdde"
     d="m 122.17396,113.12447 q 5.06213,2.73494 9.35289,6.59568 8.18981,7.3666 15.10504,16.25057 -1.61205,-0.47724 -3.02522,-1.93648 -3.51638,-3.63129 -7.02673,-7.28706 l -2.74802,-2.61258 q -1.83803,-1.65197 -6.33971,-5.12725 -3.05235,-2.35866 -5.66477,-3.7139 -3.66703,-1.90588 -8.72314,-3.48138 c -7.76797,-2.41985 -16.162668,-2.273 -23.801069,0.22332 q -0.819578,0.26921 -1.524665,0.57208 c -1.292647,0.55677 -2.675698,1.00035 -3.874943,1.63362 -4.90243,2.58504 -9.211272,5.91653 -12.137067,10.68585 -4.465522,4.93758 -6.273429,11.9126 -5.640662,18.51134 l -1.554797,0.0551 q -0.180794,0.006 -0.195859,-0.17437 c -0.804514,-10.24227 4.775883,-20.54266 12.435373,-26.67639 q 7.843298,-6.27752 17.355885,-7.87749 c 9.404114,-1.58163 19.564544,-0.28144 28.007464,4.35939 z"
     id="path128"
     style="fill:none;stroke:#000000;stroke-width:0.303611" />
  <path
     fill="#20b701"
     d="m 209.83227,130.07454 q 0.70206,3.62519 2.11524,6.85573 c 0.66592,1.52349 1.74162,3.04086 3.06441,3.88826 q 1.86816,1.19616 2.60638,2.02827 0.8678,0.982 1.77477,2.34029 a 0.73220148,0.74339025 0 0 0 0.81657,0.29674 q 0.78945,-0.24167 0.6629,0.57514 c -3.00112,-0.0306 -6.04443,-0.34875 -8.79848,0.82904 q -1.20828,0.52008 -2.37136,1.10133 -0.16271,0.0827 -0.31036,-0.0276 -1.47947,-1.08297 -3.00715,-1.67034 a 0.21996175,0.22332299 0 0 1 -0.14162,-0.18967 q -0.15669,-1.8906 -0.40677,-3.71695 -1.54878,-11.37112 -8.22898,-20.57936 -0.81055,-1.11357 -2.85649,-3.59153 4.83915,0.11931 8.44291,2.66764 2.63352,1.86307 3.69716,2.50244 0.38871,0.23251 0.56949,0.85658 0.913,3.16629 2.37138,5.83393 z"
     id="path135"
     style="fill:none;stroke:#000000;stroke-width:0.303611" />
  <path
     fill="#fba606"
     d="m 200.27448,137.38609 q 1.72053,4.09323 2.18756,8.5811 -4.32391,0.052 -8.61768,0.049 -0.88888,0 -2.50094,0.80459 -0.13559,0.0673 -0.27419,0.009 -2.35932,-0.97284 -3.7725,-0.95142 -3.99246,0.0581 -8.1416,0.0918 l -0.59058,-3.70778 q -0.0332,-0.21415 0.18079,-0.21109 10.51598,0.25392 20.30277,-3.71083 0.53936,-0.21721 0.51827,-0.78928 0.38869,-0.006 0.7081,-0.1652 z"
     id="path141"
     style="fill:none;stroke:#000000;stroke-width:0.303611" />
  <path
     fill="#f73e22"
     d="m 196.19464,195.40723 q -3.00716,0.0795 -5.96308,0.0244 c -2.11223,-0.0367 -2.88962,-1.45926 -3.50733,-3.36514 q -0.51525,-1.5908 -0.94313,-3.13877 a 0.62709481,0.61473182 88.0594 0 0 -0.5966,-0.45888 l -3.38983,0.009 a 0.3586379,0.37009315 4.7134743 0 0 -0.3435,0.25697 c -0.79246,2.49633 -1.79585,6.72417 -5.15855,6.72722 q -4.03765,0.006 -8.8979,0.0397 c -1.77175,0.0122 -2.60037,-0.55985 -3.46214,-2.09557 a 0.22297493,0.22638221 0 0 0 -0.3194,-0.0734 c -2.26591,1.58467 -4.16722,2.1751 -6.92729,2.17203 q -9.61505,-0.006 -19.97736,-0.0214 c -2.17249,-0.003 -3.5706,-1.15027 -3.58867,-3.51811 q -0.0753,-9.51723 0.0663,-24.82557 c 0.003,-0.32732 -0.0512,-1.00342 -0.11752,-1.21756 q -0.44896,-1.4929 -1.09077,-0.0765 c -1.61205,3.55175 -3.06138,7.33295 -5.08323,10.78069 -0.31336,0.52924 -0.51224,1.22369 -0.51524,1.83858 q -0.0362,6.24693 -0.0543,12.92214 c -0.009,2.10475 -0.87382,4.06265 -3.13973,4.07489 q -4.3691,0.0244 -9.06362,0.0643 -2.17853,0.0184 -3.1337,-0.4956 c -2.13033,-1.15331 -2.07609,-3.90356 -2.07308,-6.12456 q 0.0121,-4.89168 -0.003,-10.54512 c -0.003,-0.89942 -0.16572,-1.74682 -0.5514,-2.54528 q -1.70547,-3.52727 -3.30245,-7.06373 -0.61168,-1.35829 -1.40112,-2.53303 a 0.11148747,0.11319111 0 0 0 -0.2049,0.0581 c -0.2742,5.83087 -2.43766,10.90918 -7.129165,14.516 -3.094536,2.377 -7.680585,3.30089 -11.612781,3.04392 q -0.186812,-0.0122 -0.192839,0.17743 -0.120526,3.3009 -0.08436,6.77617 c 0.02708,2.79001 -1.120904,4.19114 -3.956298,4.11466 q -3.862898,-0.10402 -7.258743,-0.25086 c -3.001122,-0.12849 -6.098665,-1.71622 -5.963075,-5.25269 q 0.06629,-18.52356 -0.09341,-37.04408 -0.006,-0.6149 0.201883,-1.33076 c 0.445946,-1.53879 2.124287,-2.26076 3.6369,-2.26382 q 9.609015,-0.0276 19.953243,0.009 3.395846,0.0122 6.252336,1.73765 a 0.77845933,0.76696028 82.505537 0 0 0.906968,-0.0918 c 1.352914,-1.25122 2.624481,-1.89365 4.622211,-1.87224 3.203,0.0337 6.99961,-0.24779 9.95855,0.30286 q 2.61843,0.48947 4.88736,2.67988 a 0.66548645,0.65525736 81.395814 0 0 0.93709,-0.0367 c 1.95556,-2.19958 4.17024,-2.78695 6.95743,-2.78389 q 15.43649,0.0244 30.47826,0.0581 c 6.75554,0.0153 13.08922,3.75366 15.99695,9.99141 a 0.19886954,0.20190846 0 0 0 0.36158,-0.006 q 1.38907,-3.27643 2.77814,-6.12149 1.93145,-3.94333 6.04443,-4.00757 3.58267,-0.0551 6.02033,0.0428 2.21769,0.0917 4.15516,1.6428 0.18682,0.14991 0.28926,-0.0673 0.69002,-1.47454 2.42562,-1.48678 4.49866,-0.0306 9.61202,-0.0306 1.07269,0 1.86215,0.2325 c 1.50658,0.44052 2.94386,1.57243 4.04367,2.71047 a 0.20875748,0.21327502 21.081631 0 0 0.30735,-0.009 q 2.519,-2.93379 6.22521,-2.92156 4.63728,0.0184 9.72954,0.0397 c 2.2147,0.0122 4.32994,1.46842 3.84483,4.00146 q -0.21696,1.12578 -0.80152,2.42289 -4.32391,9.59371 -9.59997,21.81529 c -0.62374,1.44395 -0.83164,2.8818 -0.82259,4.44504 q 0.0272,4.23703 -0.0572,8.67596 c -0.0542,2.86648 -2.11826,4.28595 -4.71259,4.43893 q -4.00753,0.23862 -7.97286,0.13154 -1.44031,-0.0367 -2.66668,-0.89635 a 0.46595368,0.45704665 68.589644 0 0 -0.54839,0.0184 q -0.65988,0.53536 -1.37401,1.04625 -0.47306,0.34264 -1.29867,0.39771 -1.82298,0.1193 -3.60075,0.13459 z m -78.66194,-31.7241 q -0.36761,-0.31204 -0.59661,-0.81069 -2.63352,-5.74215 -5.15555,-11.03154 a 0.6568721,0.66690976 0 0 0 -0.5966,-0.37629 l -8.33746,0.0367 a 0.40074674,0.39172343 88.591383 0 0 -0.38568,0.45581 q 0.14161,1.0279 0.59359,1.9732 4.76684,10.00977 9.70846,20.1419 c 0.38568,0.79233 0.54839,1.35829 0.54839,2.18734 q 0.0121,6.46719 -0.006,12.71105 a 0.61468763,0.62408067 0 0 0 0.61771,0.62714 l 7.38529,-0.0276 q 0.6207,0 0.62674,-0.63021 0.0693,-5.76357 0.0151,-11.96155 -0.0121,-1.49595 0.46402,-2.42901 5.58341,-10.89695 10.73293,-22.33842 0.0874,-0.1958 0.0391,-0.40993 a 0.39467649,0.39774826 5.1389597 0 0 -0.36761,-0.30899 q -4.14009,-0.17131 -8.21994,0.0397 a 0.61507847,0.60848773 84.815286 0 0 -0.51525,0.34569 q -2.6757,5.58002 -5.2128,10.78375 -0.31639,0.64855 -0.8678,1.0432 a 0.3839388,0.39028925 14.210923 0 1 -0.47004,-0.0214 z m 70.86685,18.44403 q 0.11149,0.11013 0.15066,0.2631 0.91299,3.45385 2.287,6.82817 c 0.13257,0.32428 0.43993,0.4803 0.77438,0.47724 q 3.86591,-0.0428 7.81619,-0.12849 a 0.23804081,0.24167831 0 0 0 0.22297,-0.31815 q -0.18079,-0.55678 -0.39172,-1.19922 -5.40262,-16.6085 -12.19432,-36.40776 -0.0421,-0.12543 -0.17174,-0.13155 -2.92579,-0.15296 -5.71901,0.0122 a 0.52016403,0.51515695 85.130245 0 0 -0.45198,0.34262 l -13.47491,37.34389 a 0.27385426,0.26658799 61.664808 0 0 0.003,0.18967 q 0.0783,0.21721 0.24707,0.21721 4.13106,0.0122 8.08435,0.0184 a 1.0647122,1.0514953 87.833757 0 0 0.99736,-0.71891 l 2.18455,-6.48554 a 0.52127923,0.52924489 0 0 1 0.48814,-0.35488 l 8.94913,-0.0306 a 0.29623564,0.28372472 73.799487 0 1 0.19887,0.0825 z m -108.392927,-3.668 q 0.06928,-0.0276 0.168738,-0.0306 2.934831,-0.0459 5.878704,-0.0643 2.076076,-0.0153 4.69452,-0.99424 c 4.781911,-1.78047 7.984917,-6.60486 8.352522,-11.64034 0.316386,-4.38385 -0.623725,-8.45567 -3.917127,-11.45064 -1.904324,-1.72846 -4.399238,-2.71353 -6.897157,-2.74413 q -8.002991,-0.10095 -16.834609,-0.0184 a 0.27118573,0.27838894 0 0 0 -0.271185,0.2784 l 0.02409,37.298 a 0.36760732,0.37322473 0 0 0 0.367606,0.37322 l 7.322015,0.0122 q 0.822601,0.003 0.831634,-0.82906 l 0.123547,-9.95774 a 0.24746912,0.25042461 64.233257 0 1 0.156683,-0.23251 z m 57.949367,11.10802 q 7.53294,0.049 14.56569,0.11932 3.85083,0.0367 5.88171,-0.53842 4.81506,-1.37053 7.51487,-5.52495 2.52504,-3.88216 2.66665,-8.62089 0.1356,-4.63165 -0.0421,-9.23884 -0.34048,-8.9115 -8.44291,-12.94355 -2.5823,-1.28793 -5.53218,-1.2971 -8.67796,-0.0306 -17.05156,0.0336 a 0.15065874,0.15296096 0 0 0 -0.15066,0.15297 q -0.0272,18.87844 -0.0211,36.24256 0,0.58126 0.0964,1.17168 a 0.52727586,0.53233412 2.6938872 0 0 0.51525,0.44359 z m 71.65029,-25.89628 q -0.42486,-0.42829 -0.67796,-0.9606 -2.7902,-5.83393 -4.99585,-10.91529 a 0.51996929,0.50932246 86.643731 0 0 -0.46704,-0.30899 l -8.55441,0.006 a 0.22329963,0.21697128 86.71461 0 0 -0.21093,0.27533 q 0.226,0.9453 0.67798,1.97931 4.74575,10.83575 10.04894,21.16368 c 0.18982,0.37017 0.33747,0.85964 0.33747,1.27263 q 0.0151,6.6018 0.0512,12.83343 a 0.55442415,0.5628963 0 0 0 0.55443,0.55983 l 7.00262,0.003 q 0.83163,0 0.83766,-0.8474 0.0421,-6.09703 0.024,-12.06556 c 0,-0.85964 0.14162,-1.80189 0.51525,-2.58199 q 4.81204,-10.05871 9.69038,-20.85775 0.34048,-0.75563 0.33747,-1.60303 a 0.14161922,0.14072408 0 0 0 -0.14162,-0.14073 l -8.47907,0.0153 a 0.48052346,0.47585765 82.141744 0 0 -0.43089,0.27838 q -2.56119,5.58614 -5.13746,10.87553 -0.26516,0.53842 -0.73522,1.01872 -0.12353,0.12543 -0.24708,0 z"
     id="path143"
     style="fill:none;stroke:#000000;stroke-width:0.303611" />
  <path
     fill="#f73e22"
     d="m 90.194169,163.23955 c 0.515246,4.12688 -1.750663,6.90771 -5.881718,6.96278 q -2.21167,0.0276 -4.396224,-0.0429 -0.177778,-0.006 -0.177778,-0.18661 V 159.6602 a 0.3706205,0.37628395 0 0 1 0.373632,-0.37629 q 1.976645,0.0214 3.956297,-0.0306 2.681733,-0.0734 3.751411,0.47111 2.07004,1.05543 2.37438,3.51504 z"
     id="path150"
     style="fill:none;stroke:#000000;stroke-width:0.303611" />
  <path
     fill="#f73e22"
     d="m 160.05235,167.50447 c 0.71085,7.89275 -2.41524,13.21114 -8.11454,13.31646 q -3.05128,0.0527 -6.06513,-0.082 -0.24527,-0.0117 -0.24527,-0.3569 v -19.7231 a 0.51131606,0.71965026 0 0 1 0.51548,-0.71964 q 2.72702,0.0409 5.45819,-0.0585 3.69978,-0.14042 5.17553,0.90102 2.85588,2.01854 3.27574,6.72259 z"
     id="path150-4"
     style="fill:none;stroke:#000000;stroke-width:0.303611;stroke-dasharray:none" />
  <path
     fill="#f73e22"
     d="m 181.37283,174.03554 2.06403,-6.16739 a 0.26515938,0.26921128 0 0 1 0.5032,0.003 l 1.95856,6.20409 a 0.26515938,0.26921128 0 0 1 -0.25612,0.35181 l -4.01957,-0.0367 a 0.26515938,0.26921128 0 0 1 -0.2501,-0.35487 z"
     id="path153"
     style="fill:none;stroke:#000000;stroke-width:0.303611" />
  <ellipse
     style="fill:none;stroke:#000000;stroke-width:0.303659;stroke-dasharray:none"
     id="path154"
     cx="137.77975"
     cy="49.137333"
     rx="10.586879"
     ry="13.090979"
     transform="matrix(0.99332053,-0.11538772,0.14026279,0.99011431,0,0)" />
  <text
     xml:space="preserve"
     style="font-size:24.2888px;font-family:Arial;-inkscape-font-specification:Arial;text-align:center;text-anchor:middle;fill:none;stroke:#000000;stroke-width:0.303611"
     x="148.73825"
     y="231.24236"
     id="text1"
     transform="scale(0.99244597,1.0076115)"><tspan
       sodipodi:role="line"
       id="tspan1"
       x="148.73825"
       y="231.24236"
       style="font-size:24.2888px;stroke-width:0.303611">PLACEHOLDER_1</tspan></text>
  <text
     xml:space="preserve"
     style="font-size:32.3853px;font-family:Arial;-inkscape-font-specification:Arial;text-align:center;text-anchor:middle;fill:none;stroke:#000000;stroke-width:0.303611"
     x="150.36543"
     y="275.54288"
     id="text1-1"
     transform="scale(0.99244597,1.0076115)"><tspan
       sodipodi:role="line"
       id="tspan1-3"
       x="150.36545"
       y="275.54288"
       style="font-size:32.3853px;stroke-width:0.303611">PLACEHOLDER_2</tspan></text>
</svg>
