<?xml version="1.0" encoding="UTF-8" standalone="no"?>
<svg
   version="1.1"
   viewBox="0 0 377.95276 377.95274"
   id="svg153"
   sodipodi:docname="example.svg"
   inkscape:version="1.3.2 (091e20e, 2023-11-25)"
   width="10cm"
   height="10cm"
   xmlns:inkscape="http://www.inkscape.org/namespaces/inkscape"
   xmlns:sodipodi="http://sodipodi.sourceforge.net/DTD/sodipodi-0.dtd"
   xmlns="http://www.w3.org/2000/svg"
   xmlns:svg="http://www.w3.org/2000/svg">
  <defs
     id="defs153" />
  <sodipodi:namedview
     id="namedview153"
     pagecolor="#ffffff"
     bordercolor="#000000"
     borderopacity="0.25"
     inkscape:showpageshadow="2"
     inkscape:pageopacity="0.0"
     inkscape:pagecheckerboard="0"
     inkscape:deskcolor="#d1d1d1"
     inkscape:zoom="1.08"
     inkscape:cx="412.96296"
     inkscape:cy="392.59259"
     inkscape:window-width="1920"
     inkscape:window-height="1052"
     inkscape:window-x="0"
     inkscape:window-y="0"
     inkscape:window-maximized="0"
     inkscape:current-layer="svg153"
     inkscape:document-units="cm" />
  <path
     sodipodi:type="spiral"
     style="fill:none;fill-rule:evenodd;stroke:#000000"
     id="path3"
     sodipodi:cx="328.7037"
     sodipodi:cy="140.74074"
     sodipodi:expansion="1"
     sodipodi:revolution="10"
     sodipodi:radius="209.13837"
     sodipodi:argument="-18.23085"
     sodipodi:t0="0"
     d="m 328.7037,140.74074 c 2.56263,1.82448 -1.19505,4.35451 -3.0324,4.25926 -4.97912,-0.25812 -6.78514,-6.27626 -5.48611,-10.32408 2.32365,-7.24061 11.13672,-9.52587 17.61574,-6.71296 9.50823,4.12807 12.33385,16.05807 7.93981,24.90741 -5.85656,11.79479 -21.00036,15.16964 -32.19908,9.16666 -14.09244,-7.55413 -18.01963,-25.95247 -10.39351,-39.49074 9.23626,-16.39666 30.91009,-20.87783 46.78241,-11.62036 18.70498,10.90961 23.74118,35.87113 12.84721,54.07408 -12.57751,21.01602 -40.83445,26.60794 -61.36574,14.07406 -23.32896,-14.2418 -29.47712,-45.79939 -15.30091,-68.65742 15.90356,-25.643243 50.76549,-32.348034 75.94908,-16.527758 27.95855,17.563508 35.22026,55.732488 17.75461,83.240748 -19.22208,30.27463 -60.70016,38.09349 -90.53241,18.98146 -32.59131,-20.87961 -40.96751,-65.66837 -20.20832,-97.82408 22.53633,-34.908465 70.63701,-43.842153 105.11575,-21.435162 37.22601,24.192382 46.71731,75.606012 22.66201,112.407412 -25.84791,39.54387 -80.57529,49.59289 -119.69908,23.88887 C 235.29077,185.64513 224.68395,127.60331 252.03705,86.157387 281.19478,41.977052 342.55161,30.812354 386.31946,59.814823 432.81833,90.626977 444.54097,155.2993 413.88888,201.38891 381.42256,250.20646 313.43434,262.48709 265.02313,230.18517 213.88675,196.06491 201.04807,124.76044 235.00001,74.027753 270.77402,20.572435 345.39505,7.1756687 398.4491,42.777788 454.22346,80.205383 468.17835,158.14322 430.92591,213.51854 391.84488,271.61204 310.58999,286.12509 252.89349,247.22221 192.48078,206.48786 177.40955,121.91571 217.96298,61.898119 260.35052,-0.83388758 348.24011,-16.463326 410.57873,25.740753 475.63009,69.781395 491.81776,160.98859 447.96295,225.64817 402.2693,293.01894 307.74436,309.76487 240.76386,264.25924 171.07364,216.91266 153.76944,119.06985 200.92594,49.768486 249.92538,-22.241244 351.08619,-40.103733 422.70837,8.7037187 497.03764,59.355943 515.45844,163.83485 464.99998,237.77781 412.69503,314.42667 304.89792,333.40578 228.63423,281.29627 149.66575,227.33864 130.1283,116.22325 183.88891,37.638852 239.49917,-43.649275 353.93293,-63.745066 434.838,-8.3333161 518.4458,48.929533 539.09995,166.68173 482.03702,249.90744 423.12162,335.83495 302.05093,357.04746 216.50459,298.33331 128.25736,237.76541 106.48647,113.37615 166.85187,25.509219 229.07225,-65.05777 356.78013,-87.387039 446.96763,-25.370351 539.85439,38.50246 562.74205,169.52902 499.07405,262.03707"
     transform="matrix(0.79419094,0,0,0.78777021,-72.827778,82.923623)" />
  <rect
     style="fill:none;stroke:#000000;stroke-width:0.461498"
     id="rect3"
     width="359.79776"
     height="362.36163"
     x="11.34186"
     y="11.34186" />
</svg>
