<?xml version="1.0" encoding="UTF-8" standalone="no"?>
<svg
   width="10cm"
   height="10cm"
   viewBox="0 0 377.95276 377.95275"
   fill="none"
   version="1.1"
   id="svg4"
   sodipodi:docname="streamlit.svg"
   inkscape:version="1.3.2 (091e20e, 2023-11-25)"
   xmlns:inkscape="http://www.inkscape.org/namespaces/inkscape"
   xmlns:sodipodi="http://sodipodi.sourceforge.net/DTD/sodipodi-0.dtd"
   xmlns="http://www.w3.org/2000/svg"
   xmlns:svg="http://www.w3.org/2000/svg">
  <sodipodi:namedview
     id="namedview4"
     pagecolor="#ffffff"
     bordercolor="#000000"
     borderopacity="0.25"
     inkscape:showpageshadow="2"
     inkscape:pageopacity="0.0"
     inkscape:pagecheckerboard="0"
     inkscape:deskcolor="#d1d1d1"
     inkscape:zoom="0.36990596"
     inkscape:cx="546.08474"
     inkscape:cy="319"
     inkscape:window-width="1440"
     inkscape:window-height="872"
     inkscape:window-x="0"
     inkscape:window-y="0"
     inkscape:window-maximized="0"
     inkscape:current-layer="svg4"
     inkscape:document-units="cm" />
  <defs
     id="defs4">
    <rect
       x="-140.57627"
       y="440.65254"
       width="624.48305"
       height="229.78814"
       id="rect6" />
  </defs>
  <path
     d="m 188.14572,82.430911 -18.3459,-9.697589 -31.84581,-16.831265 c -0.0293,-0.02929 -0.0872,-0.02929 -0.1165,-0.02929 -1.16267,-0.55221 -2.35463,0.610449 -1.91859,1.773466 l 16.22674,41.386422 0.003,0.009 c 0.0174,0.04041 0.0317,0.08133 0.0492,0.122131 0.66593,1.543594 2.11917,2.496954 3.7008,2.871954 0.1336,0.0289 0.22918,0.0555 0.38964,0.0876 0.15976,0.0356 0.38337,0.084 0.57523,0.0983 0.0321,0.003 0.061,0.003 0.0931,0.006 h 0.0234 c 0.023,0.003 0.0464,0.003 0.0698,0.006 h 0.0317 c 0.0206,0.003 0.0436,0.003 0.0642,0.003 h 0.0377 c 0.0234,0.003 0.0464,0.003 0.0698,0.003 v 0 c 20.55054,2.24057 41.2835,2.24057 61.83404,0 v 0 c 0.24698,0 0.48837,-0.0115 0.7207,-0.0349 0.0757,-0.009 0.14825,-0.0174 0.22115,-0.0262 0.009,-0.003 0.0202,-0.003 0.0289,-0.005 0.0495,-0.006 0.0987,-0.0146 0.14826,-0.0234 0.0725,-0.009 0.14547,-0.0234 0.21802,-0.0377 0.14547,-0.0321 0.21139,-0.0555 0.40883,-0.12316 0.1971,-0.0677 0.52466,-0.18627 0.72941,-0.28499 0.20512,-0.0991 0.3471,-0.1936 0.51872,-0.3014 0.2121,-0.1336 0.41407,-0.27034 0.61884,-0.42383 0.0882,-0.0677 0.1486,-0.11087 0.21244,-0.17198 l -0.0349,-0.0202 z"
     fill="#ff4b4b"
     id="path1"
     style="stroke-width:0.348835;fill:none;stroke:#000000" />
  <path
     d="m 238.39009,55.902402 h -0.0289 l -31.85765,16.831265 17.70928,26.37502 16.18592,-41.462117 v -0.05819 c 0.40709,-1.220924 -0.84279,-2.325331 -2.00859,-1.685916"
     fill="#7d353b"
     id="path2"
     style="stroke-width:0.348835;fill:none;stroke:#000000" />
  <path
     d="m 189.84349,47.899092 c -0.81417,-1.188824 -2.5873,-1.188824 -3.37218,0 l -16.67149,24.83423 18.3459,9.697589 34.76728,18.374859 c 0.21837,-0.21384 0.39349,-0.42209 0.57836,-0.64221 0.26163,-0.322664 0.50582,-0.66871 0.72105,-1.055218 l -17.70928,-26.37502 z"
     fill="#bd4043"
     id="path3"
     style="stroke-width:0.348835;fill:none;stroke:#000000" />
  <path
     d="m 72.323604,143.73718 h 6.415764 c -0.29406,-8.26006 -7.912614,-14.43513 -18.498688,-14.43513 -10.478638,0 -18.71218,6.09484 -18.71218,15.29047 0,7.3782 5.346244,11.76235 13.900357,14.22163 l 6.736693,1.92452 c 5.773906,1.60395 10.906658,3.63556 10.906658,9.08888 0,5.98809 -5.774264,9.94423 -13.365936,9.94423 -6.522856,0 -12.296775,-2.88695 -12.831528,-9.08889 h -6.843439 c 0.641858,8.98215 7.912959,15.07698 19.674967,15.07698 12.617332,0 19.781354,-6.95053 19.781354,-15.82522 0,-10.26515 -9.730391,-13.57978 -15.397564,-15.07697 l -5.560069,-1.49685 c -4.063219,-1.06953 -10.585729,-3.20788 -10.585729,-9.08888 0,-5.2395 4.811477,-9.0889 12.082579,-9.0889 6.629601,0 11.655261,3.15452 12.296761,8.55413 z m 33.559966,0 h -8.767952 v -9.83714 h -6.308672 v 9.83714 h -6.201927 v 5.34659 h 6.201927 v 25.66235 c 0,7.16436 5.773906,10.58608 11.120494,10.58608 2.35219,0 3.8494,-0.42768 4.70473,-0.74859 l -1.28335,-5.66718 c -0.53443,0.10679 -1.38976,0.32093 -2.77987,0.32093 -2.780216,0 -5.453332,-0.85569 -5.453332,-6.20192 v -23.95167 h 8.767952 z m 7.98447,41.06025 h 6.30867 v -25.98328 c 0,-5.56041 4.38381,-9.62365 10.3719,-9.62365 1.68417,0 3.42172,0.32093 3.84939,0.42768 v -6.41542 c -0.72173,-0.0537 -2.37905,-0.10704 -3.31463,-0.10704 -4.91891,0 -9.19597,2.78022 -10.69282,6.84344 h -0.42767 v -6.20193 h -6.09484 z m 42.46816,0.85535 c 8.34064,0 14.43547,-4.16996 16.36,-10.37189 l -6.09484,-1.71069 c -1.60394,4.27706 -5.31973,6.41541 -10.26516,6.41541 -7.4047,0 -12.51026,-4.78496 -12.80432,-13.57977 h 29.80582 v -2.67312 c 0,-15.29081 -9.08888,-20.52996 -17.643,-20.52996 -11.1205,0 -18.49834,8.76796 -18.49834,21.3853 0,12.61769 7.2711,21.06472 19.13984,21.06472 z m -12.80432,-24.70027 c 0.42768,-6.38891 4.94543,-12.08258 12.16282,-12.08258 6.84343,0 11.22758,5.1324 11.22758,12.08258 z m 49.97996,24.80736 c 7.16401,0 10.90666,-3.84939 12.18967,-6.52251 h 0.32093 v 5.56007 h 6.30867 v -27.0528 c 0,-13.04502 -9.94423,-14.54187 -15.18372,-14.54187 -6.20192,0 -13.2592,2.13836 -16.46672,9.6233 l 5.98774,2.13871 c 1.3901,-2.99405 4.67821,-6.20193 10.69282,-6.20193 5.80076,0 8.66121,3.07428 8.66121,8.34028 v 0.21384 c 0,3.04742 -3.10114,2.7802 -10.58573,3.74264 -7.6189,0.98894 -15.93232,2.67312 -15.93232,12.08258 0,8.01971 6.20158,12.61769 14.00745,12.61769 z m 0.96244,-5.66717 c -5.02566,0 -8.66122,-2.24544 -8.66122,-6.62959 0,-4.81182 4.38415,-6.30867 9.30272,-6.95018 2.67311,-0.32093 9.83748,-1.06952 10.90666,-2.35254 v 5.77426 c 0,5.1324 -4.06322,10.15805 -11.54816,10.15805 z m 27.86593,4.70473 h 6.30868 v -25.6627 c 0,-6.0146 4.38415,-10.2648 9.30271,-10.2648 4.78532,0 8.1268,3.1273 8.1268,7.80553 v 28.12197 h 6.41542 v -26.73187 c 0,-5.29287 3.31497,-9.19563 9.08888,-9.19563 4.49089,0 8.34027,2.37905 8.34027,8.44703 v 27.48047 h 6.30868 v -27.48047 c 0,-9.65016 -5.18578,-14.1142 -12.51026,-14.1142 -5.88099,0 -10.18491,2.69964 -12.29676,6.95019 h -0.42766 c -2.03162,-4.38415 -5.61379,-6.95019 -11.01375,-6.95019 -5.34624,0 -9.30272,2.56604 -11.0134,6.95019 h -0.53477 v -6.41577 h -6.09484 z m 70.22945,-54.74677 h -6.30868 v 54.74677 h 6.30868 z m 10.04957,54.74677 h 6.30867 v -41.06025 h -6.30867 z m 3.20788,-47.90369 c 2.45929,0 4.49089,-1.92451 4.49089,-4.27706 0,-2.35219 -2.0316,-4.27706 -4.49089,-4.27706 -2.45963,0 -4.49124,1.92487 -4.49124,4.27706 0,2.35255 2.03161,4.27706 4.49124,4.27706 z m 31.00685,6.84344 H 328.066 v -9.83714 h -6.30867 v 9.83714 h -6.20193 v 5.34659 h 6.20193 v 25.66235 c 0,7.16436 5.77392,10.58608 11.12049,10.58608 2.3522,0 3.8494,-0.42768 4.70474,-0.74859 l -1.28302,-5.66718 c -0.53476,0.10679 -1.3901,0.32093 -2.7802,0.32093 -2.78021,0 -5.45334,-0.85569 -5.45334,-6.20192 v -23.95167 h 8.76796 z"
     fill="#262730"
     id="path4"
     style="stroke-width:0.348835;fill:none;stroke:#000000" />
  <path
     d="m 88.054587,216.12519 q -0.799999,-0.64 -2.133332,-0.64 -1.493332,0 -2.026665,0.69333 -0.586666,0.64 -0.96,6.34667 l -0.319999,5.65333 1.919999,-0.32 q 4.159997,-0.69334 5.01333,-3.89333 0.533333,-1.76 0.533333,-3.30667 0,-2.98666 -2.026666,-4.53333 z m -5.279996,-1.86667 q 0.853332,-0.31999 2.986664,-0.31999 h 0.32 q 1.973332,0 3.573331,1.43999 1.066667,0.96 1.386666,1.81334 0.32,0.8 0.48,2.98666 0.05333,0.58667 0.05333,1.6 0,2.13333 -0.853332,3.62666 -1.973333,3.46667 -5.65333,4.10667 -0.853333,0.16 -1.28,0.37333 -0.426666,0.21334 -0.799999,0.69334 -0.32,0.42666 -0.426667,1.59999 -0.106666,1.12 -0.213333,2.56 -0.05333,1.38667 -0.05333,4.10667 -0.05333,3.99999 -0.213333,5.22666 -0.106667,1.17333 -0.586667,1.17333 -0.479999,0 -0.693333,-1.44 -0.159999,-1.44 -0.213333,-6.23999 l -0.16,-7.62666 -1.759999,-0.64 q -2.079998,-0.74667 -2.079998,-1.49334 0,-0.32 0.373333,-0.53333 0.106666,-0.0533 0.426666,-0.0533 0.64,0 1.546666,0.26666 0.586666,0.26667 1.279999,0.26667 0.373333,0 0.48,-0.10667 0.693333,-0.8 0.693333,-7.03999 0,-2.61333 -0.266667,-2.61333 l -0.05333,0.0533 q -0.586666,0.58667 -1.119999,0.58667 -0.853333,0 -0.853333,-1.01334 0,-0.69333 1.173332,-1.76 1.173333,-1.06666 2.506666,-1.6 z m 11.466646,2.34667 q 0.266666,-2.93333 0.426666,-3.78666 0.213334,-0.90667 0.64,-0.90667 h 0.106667 q 0.799999,0.16 0.799999,2.08 0,2.24 -1.013333,12.05332 -0.586666,5.70667 -0.586666,8.48 0,1.70667 0.266667,1.97333 0.319999,0.32 0.906666,0.32 0.746666,0 1.866665,-0.37333 1.706666,-0.48 3.626662,-0.48 2.50667,0 2.61333,0.69333 0,0.53333 -2.23999,0.8 -2.186669,0.37333 -4.906668,1.17333 -1.706666,0.48 -2.453332,0.48 -0.586666,0 -0.853333,-0.26666 -0.533333,-0.53334 -0.533333,-4.21333 0,-3.41334 0.48,-8.21333 0.533333,-4.58667 0.853333,-9.81333 z m 22.133373,4.96 q -0.69334,-2.98667 -1.01334,-2.98667 -0.26666,0 -1.44,3.25333 l -1.06666,3.30667 1.6,0.16 q 0.32,0.0533 0.8,0.0533 1.44,0 1.44,-1.44 0,-0.8 -0.32,-2.34666 z m -2.18667,-4.69333 q 0.8,-0.85334 1.6,-0.85334 1.06667,0 1.38667,1.38667 1.81333,8.42666 2.13333,11.14666 0.37333,2.88 2.4,10.87999 0.21333,0.8 -0.69334,0.96 h -0.16 q -0.42666,0 -0.8,-0.85333 -0.32,-0.85333 -0.90666,-3.52 -1.01333,-4.37333 -1.44,-6.87999 -0.26667,-1.44 -0.53333,-1.81334 -0.26667,-0.37333 -1.17334,-0.37333 -2.50666,0 -3.25333,0.90667 -0.69333,0.85333 -1.81333,5.27999 -1.06667,4.21333 -2.72,8.16 -1.6,3.94666 -2.24,3.94666 -0.74666,0 -0.74666,-0.74666 0,-0.8 1.06666,-3.2 1.44,-3.14667 2.77333,-7.73333 1.33334,-4.64 1.33334,-6.4 0,-0.37333 -0.0533,-0.48 -0.26666,-1.28 0.21334,-1.28 0.48,0 1.65333,-3.83999 1.17333,-3.68 1.97333,-4.69333 z m 16.47997,0.32 q 1.81333,-1.22667 2.82666,-1.22667 0.90667,0 2.18667,1.12 1.33333,1.06667 1.33333,1.81333 0,0.96 -0.58666,0.96 -0.69334,0 -1.65334,-1.06666 -0.90666,-0.96 -1.65333,-0.96 -1.01333,0 -3.04,2.18666 -1.65333,1.76 -3.57333,7.94666 -1.86666,6.18667 -1.86666,9.70666 0,0.48 0.10666,1.12 0.26667,1.6 1.81334,3.36 0.95999,1.12 1.54666,1.44 0.64,0.32 1.97333,0.32 h 0.53334 q 2.61333,0 5.33333,-1.70667 2.66666,-1.65333 3.30666,-1.65333 0.37333,0 0.37333,0.48 0,0.53334 -1.49333,1.65333 -1.44,1.06667 -3.52,2.08 -1.97333,0.90667 -3.73333,0.90667 -0.85333,0 -1.33333,-0.0533 -2.72,-0.26667 -4.37333,-2.02667 -1.65333,-1.76 -2.02667,-4.85333 -0.10666,-1.06667 -0.10666,-1.76 0,-5.12 2.45333,-11.51999 2.45333,-6.45333 5.17333,-8.26666 z m 17.44002,-1.17334 q 2.88,-1.01333 3.67999,-1.01333 0.48,0 0.48,0.32 0,0.10667 -0.0533,0.21333 -0.16,0.53334 -2.24,1.33334 -1.38666,0.42666 -2.29333,1.06666 -0.85333,0.64 -1.92,1.01334 -1.12,0.37333 -1.33333,0.90666 -0.21333,0.48 -0.21333,2.72 0,1.76 0.10666,2.34667 0.16,0.58666 0.53334,0.58666 h 0.10666 q 0.69333,-0.16 3.25333,-0.48 1.17334,-0.10666 1.44,-0.10666 1.06667,0 1.06667,0.32 0,0.58666 -2.98667,1.49333 -2.98666,0.85333 -3.67999,1.54666 -0.69334,0.64 -1.01334,8 0,0.74666 -0.10666,2.34666 -0.0533,1.54667 -0.0533,2.18667 0,1.86666 0.32,2.61333 0.37334,0.74667 1.44,0.74667 1.06667,0 6.72,-1.76 1.28,-0.42667 2.13333,-0.42667 0.64,0 0.64,0.26667 0,0.53333 -1.92,1.38666 -5.6,2.56 -8.42666,2.56 -1.28,0 -1.81333,-0.53333 -0.64,-0.64 -0.64,-6.18666 0,-4.8 0.58666,-11.94666 0.32,-4.10667 0.32,-5.44 0,-1.65333 -0.69333,-2.13333 -0.58667,-0.42667 -0.58667,-0.69333 0,-0.26667 0.96,-1.22667 1.12,-1.12 2.13334,-1.12 h 0.16 0.10666 q 1.06667,0 3.78667,-0.90667 z m 17.86662,2.50667 q 0,-2.4 0.16,-3.25333 0.16,-0.85334 0.58666,-0.85334 0.42667,0 0.64,1.06667 0.21334,1.06667 0.32,4 0.0533,0.90666 0.0533,2.56 0,2.93333 -0.26667,3.46666 -0.42667,0.96 -0.42667,9.22666 0,5.28 -0.16,6.88 -0.10666,1.54666 -0.58666,1.54666 -1.28,0 -1.28,-6.55999 0,-1.33333 0.21333,-5.17333 l 0.32,-5.92 -3.57333,0.26667 q -3.36,0.21333 -4.32,0.42666 -0.53333,0.16 -0.53333,2.29334 0,0.42666 0.32,4.31999 0.32,3.84 0.32,7.41333 0,1.12 -0.69333,1.28 h -0.10667 q -0.8,0 -1.12,-3.30666 -0.26667,-3.36 -0.37333,-12.8 v -3.25333 q 0,-6.93333 0.64,-6.93333 0.74666,0 1.01333,4.42667 l 0.26667,4.42666 3.51999,-0.10666 q 3.46667,0 4.32,-0.64 0.74667,-0.58667 0.74667,-4.8 z m 16.15994,-3.2 q -0.90667,-0.8 -2.08,-1.17333 -0.10666,-0.0533 -0.42666,-0.0533 -1.28,0 -2.82667,1.75999 -1.54667,1.76 -2.13333,3.94667 -0.58667,2.4 -1.12,2.4 -0.42667,0 -0.42667,-1.6 0,-1.33333 -0.21333,-1.33333 -0.53333,0 -1.54667,5.11999 -0.85333,4.37333 -0.85333,6.56 0,2.02666 0.8,4.74666 0.8,2.72 1.76,3.89333 l 1.01333,1.22667 1.86667,-1.01333 q 3.30666,-1.76 5.70666,-7.46667 2.4,-5.75999 2.4,-10.93332 0,-4.37333 -1.92,-6.08 z m -5.92,-1.06667 q 2.18667,-1.91999 3.46667,-1.91999 1.33333,0 3.04,1.65333 1.76,1.65333 2.34666,3.46666 0.58667,2.02667 0.58667,4.37333 0,4.64 -1.86667,9.65333 -1.86666,5.01333 -4.79999,7.94666 -2.88,2.88 -4.53333,2.88 -0.74667,0 -1.44,-0.37333 -1.86667,-0.96 -2.93334,-3.94667 -1.01333,-3.03999 -1.01333,-7.25332 0,-2.88 0.58667,-6.4 1.44,-8.26666 3.2,-8.26666 h 0.16 0.10666 q 1.17334,0 3.09333,-1.81334 z m 12.10669,2.34667 q 0.26666,-2.93333 0.42666,-3.78666 0.21334,-0.90667 0.64,-0.90667 h 0.10667 q 0.8,0.16 0.8,2.08 0,2.24 -1.01333,12.05332 -0.58667,5.70667 -0.58667,8.48 0,1.70667 0.26667,1.97333 0.32,0.32 0.90666,0.32 0.74667,0 1.86667,-0.37333 1.70666,-0.48 3.62666,-0.48 2.50667,0 2.61334,0.69333 0,0.53333 -2.24,0.8 -2.18667,0.37333 -4.90667,1.17333 -1.70666,0.48 -2.45333,0.48 -0.58667,0 -0.85333,-0.26666 -0.53333,-0.53334 -0.53333,-4.21333 0,-3.41334 0.47999,-8.21333 0.53334,-4.58667 0.85334,-9.81333 z m 22.93336,2.72 q -1.38666,-0.74667 -2.4,-0.74667 -0.64,0 -0.8,1.6 -0.16,1.54667 -0.26666,9.54666 -0.10667,10.88 -0.42667,12.10666 -0.10667,0.42667 -0.10667,0.48 0,0.26667 0.32,0.26667 0.0533,0 1.22667,-0.21334 2.13333,-0.47999 4,-1.59999 1.92,-1.12 2.72,-2.4 1.70666,-2.82667 1.70666,-7.73333 0,-3.89333 -1.22666,-6.45333 -0.69334,-1.28 -2.13334,-2.72 -1.43999,-1.49333 -2.61333,-2.13333 z m -7.94666,-1.97333 q 1.92,-0.74667 3.52,-0.74667 1.6,0 3.68,0.74667 2.24,0.74666 4.15999,2.61333 1.97334,1.81333 2.98667,4.05333 1.01333,2.29333 1.01333,7.25333 0,3.30666 -0.53333,5.22666 -0.96,3.41333 -4.42667,5.6 -3.46666,2.18666 -7.73332,2.18666 -1.22667,0 -2.72,-0.26666 -1.65333,-0.32 -1.65333,-0.96 0,-0.69334 2.02666,-0.85334 1.17333,-0.10666 1.6,-0.37333 0.48,-0.26666 0.58667,-0.90666 0.58666,-2.66667 0.58666,-15.36 0,-4.05333 -0.16,-5.01333 -0.16,-1.17333 -0.37333,-1.49333 -0.16,-0.37333 -0.64,-0.37333 -0.53333,0 -0.90667,0.10667 -1.6,0.26666 -2.82666,1.70666 -0.90667,1.01333 -1.54667,1.01333 -0.64,0 -0.64,-1.01333 0,-0.74666 1.12,-1.6 1.12,-0.90666 2.88,-1.54666 z m 23.84001,-1.33334 q 2.88,-1.01333 3.68,-1.01333 0.48,0 0.48,0.32 0,0.10667 -0.0533,0.21333 -0.16,0.53334 -2.23999,1.33334 -1.38667,0.42666 -2.29334,1.06666 -0.85333,0.64 -1.92,1.01334 -1.12,0.37333 -1.33333,0.90666 -0.21333,0.48 -0.21333,2.72 0,1.76 0.10667,2.34667 0.16,0.58666 0.53333,0.58666 h 0.10666 q 0.69334,-0.16 3.25334,-0.48 1.17333,-0.10666 1.44,-0.10666 1.06666,0 1.06666,0.32 0,0.58666 -2.98666,1.49333 -2.98667,0.85333 -3.68,1.54666 -0.69333,0.64 -1.01333,8 0,0.74666 -0.10667,2.34666 -0.0533,1.54667 -0.0533,2.18667 0,1.86666 0.32,2.61333 0.37333,0.74667 1.43999,0.74667 1.06667,0 6.72,-1.76 1.28,-0.42667 2.13333,-0.42667 0.64,0 0.64,0.26667 0,0.53333 -1.92,1.38666 -5.59999,2.56 -8.42666,2.56 -1.28,0 -1.81333,-0.53333 -0.64,-0.64 -0.64,-6.18666 0,-4.8 0.58667,-11.94666 0.32,-4.10667 0.32,-5.44 0,-1.65333 -0.69334,-2.13333 -0.58666,-0.42667 -0.58666,-0.69333 0,-0.26667 0.96,-1.22667 1.12,-1.12 2.13333,-1.12 h 0.16 0.10667 q 1.06666,0 3.78666,-0.90667 z m 16.6933,1.06667 q -1.54666,-1.44 -4.10666,-1.44 -1.06667,0 -1.86667,0.32 -1.01333,0.37333 -1.01333,1.70667 0,1.33333 0.69333,5.49333 0.21334,1.81333 1.70667,1.81333 1.54666,0 3.73333,-2.08 2.08,-2.02667 2.08,-3.52 0,-1.17333 -1.22667,-2.29333 z m -7.62666,-2.82667 q 2.29333,-0.26666 3.46666,-0.26666 2.18667,0 3.84,0.85333 3.09333,1.54667 3.09333,4.32 0,2.56 -2.66666,5.12 -2.02667,2.02666 -2.02667,2.50666 0,0.37333 1.6,1.97333 3.04,2.88 5.44,9.6 1.28,3.68 1.28,4.58666 0,0.69333 -0.64,0.69333 -0.0533,0 -0.21333,0 -0.10667,-0.0533 -0.21334,-0.0533 -1.06666,-0.16 -1.06666,-1.12 0,-0.96 -0.90667,-3.41333 -0.85333,-2.50666 -1.97333,-4.69333 -1.01333,-2.02667 -3.52,-4.69333 -2.45333,-2.72 -3.25333,-2.72 -0.26667,0 -0.37333,0.0533 -0.10667,0.0533 -0.21334,0.32 -0.0533,0.26667 -0.0533,0.85334 0,1.12 0.48,6.50666 0.32,3.36 0.32,4.96 0,1.76 -0.48,1.76 -0.21333,0 -0.58667,-0.26667 -0.64,-0.53333 -1.06666,-7.46666 -0.37334,-7.57333 -1.6,-16.47999 l -0.37334,-2.72 z m 48.73037,42.26581 h -34.11457 v -3.125 h 34.11457 z m 28.12498,-7.81249 h -20.98957 v -3.95833 h 8.07292 v -25.98957 h -8.07292 v -3.54167 q 1.64063,0 3.51563,-0.26041 1.875,-0.28646 2.83854,-0.80729 1.19791,-0.65104 1.875,-1.64063 0.70312,-1.01562 0.80729,-2.70833 h 4.03645 v 34.9479 h 7.91666 z"
     id="text4"
     style="font-size:53.3333px;font-family:Sebastiandres;-inkscape-font-specification:'Sebastiandres, Normal';text-align:center;text-anchor:middle;stroke:#000000"
     aria-label="PLACEHOLDER_1" />
  <path
     d="m 52.621051,286.37684 q -1.000001,-0.8 -2.666668,-0.8 -1.866668,0 -2.533335,0.86667 -0.733334,0.8 -1.200001,7.93334 l -0.4,7.06667 2.400001,-0.4 q 5.200003,-0.86667 6.26667,-4.86667 0.666667,-2.2 0.666667,-4.13334 0,-3.73333 -2.533334,-5.66667 z m -6.600004,-2.33333 q 1.066668,-0.4 3.733336,-0.4 h 0.4 q 2.466668,0 4.466669,1.8 1.333334,1.2 1.733334,2.26667 0.4,1 0.6,3.73333 0.06667,0.73334 0.06667,2 0,2.66667 -1.066667,4.53334 -2.466668,4.33334 -7.066671,5.13334 -1.066667,0.2 -1.6,0.46666 -0.533334,0.26667 -1.000001,0.86667 -0.4,0.53333 -0.533334,2 -0.133333,1.4 -0.266666,3.2 -0.06667,1.73334 -0.06667,5.13334 -0.06667,5 -0.266667,6.53334 -0.133333,1.46666 -0.733334,1.46666 -0.6,0 -0.866667,-1.8 -0.2,-1.8 -0.266667,-7.8 l -0.2,-9.53334 -2.200001,-0.8 q -2.600001,-0.93333 -2.600001,-1.86667 0,-0.4 0.466667,-0.66667 0.133333,-0.0667 0.533333,-0.0667 0.800001,0 1.933335,0.33333 0.733333,0.33333 1.600001,0.33333 0.466666,0 0.6,-0.13333 0.866667,-1 0.866667,-8.8 0,-3.26667 -0.333333,-3.26667 l -0.06667,0.0667 q -0.733334,0.73333 -1.400001,0.73333 -1.066667,0 -1.066667,-1.26667 0,-0.86667 1.466667,-2.2 1.466668,-1.33333 3.133335,-2 z m 14.333324,2.93333 q 0.333334,-3.66666 0.533334,-4.73333 0.266667,-1.13334 0.8,-1.13334 h 0.133334 q 1,0.2 1,2.60001 0,2.8 -1.266667,15.06667 -0.733334,7.13334 -0.733334,10.60001 0,2.13333 0.333334,2.46666 0.4,0.4 1.133334,0.4 0.933333,0 2.333334,-0.46666 2.133335,-0.6 4.533336,-0.6 3.133335,0 3.266668,0.86666 0,0.66667 -2.800001,1 -2.733335,0.46667 -6.133337,1.46667 -2.133334,0.6 -3.066668,0.6 -0.733334,0 -1.066667,-0.33333 -0.666667,-0.66667 -0.666667,-5.26667 0,-4.26667 0.6,-10.26667 0.666667,-5.73334 1.066667,-12.26668 z m 27.666744,6.20001 q -0.866667,-3.73334 -1.266668,-3.73334 -0.333333,0 -1.800001,4.06667 l -1.333334,4.13334 2.000001,0.2 q 0.400001,0.0667 1.000001,0.0667 1.800001,0 1.800001,-1.8 0,-1 -0.4,-2.93333 z m -2.733335,-5.86667 q 1,-1.06667 2.000001,-1.06667 1.333334,0 1.733334,1.73333 2.266668,10.53334 2.666668,13.93335 0.466667,3.6 3.000002,13.6 0.266667,1 -0.866667,1.2 h -0.2 q -0.533334,0 -1.000001,-1.06666 -0.4,-1.06667 -1.133334,-4.40001 -1.266667,-5.46667 -1.800001,-8.6 -0.333333,-1.8 -0.666667,-2.26667 -0.333333,-0.46667 -1.466667,-0.46667 -3.133335,0 -4.066669,1.13334 -0.866667,1.06667 -2.266668,6.6 -1.333334,5.26667 -3.400002,10.20001 -2.000001,4.93333 -2.800001,4.93333 -0.933334,0 -0.933334,-0.93333 0,-1 1.333334,-4 1.800001,-3.93334 3.466668,-9.66667 1.666668,-5.80001 1.666668,-8.00001 0,-0.46667 -0.06667,-0.6 -0.333333,-1.6 0.266667,-1.6 0.6,0 2.066668,-4.8 1.466667,-4.6 2.466668,-5.86667 z m 20.59999,0.4 q 2.26667,-1.53334 3.53333,-1.53334 1.13334,0 2.73334,1.4 1.66666,1.33334 1.66666,2.26667 0,1.2 -0.73333,1.2 -0.86667,0 -2.06667,-1.33333 -1.13333,-1.2 -2.06666,-1.2 -1.26667,0 -3.80001,2.73333 -2.06666,2.2 -4.46667,9.93334 -2.33333,7.73334 -2.33333,12.13334 0,0.6 0.133333,1.4 0.333334,2 2.266667,4.2 1.2,1.40001 1.93334,1.80001 0.8,0.4 2.46666,0.4 h 0.66667 q 3.26667,0 6.66667,-2.13334 3.33334,-2.06667 4.13334,-2.06667 0.46666,0 0.46666,0.6 0,0.66667 -1.86666,2.06667 -1.80001,1.33334 -4.40001,2.6 -2.46666,1.13334 -4.66667,1.13334 -1.06666,0 -1.66666,-0.0667 -3.40001,-0.33333 -5.466673,-2.53333 -2.066668,-2.20001 -2.533335,-6.06667 -0.133333,-1.33334 -0.133333,-2.20001 0,-6.4 3.066668,-14.4 3.066673,-8.06667 6.466673,-10.33334 z m 21.80004,-1.46667 q 3.6,-1.26667 4.6,-1.26667 0.6,0 0.6,0.4 0,0.13334 -0.0667,0.26667 -0.2,0.66667 -2.8,1.66667 -1.73333,0.53333 -2.86667,1.33333 -1.06666,0.8 -2.4,1.26667 -1.4,0.46667 -1.66667,1.13333 -0.26666,0.6 -0.26666,3.4 0,2.20001 0.13333,2.93334 0.2,0.73333 0.66667,0.73333 h 0.13333 q 0.86667,-0.2 4.06667,-0.6 1.46667,-0.13333 1.8,-0.13333 1.33334,0 1.33334,0.4 0,0.73333 -3.73334,1.86667 -3.73334,1.06666 -4.6,1.93333 -0.86667,0.8 -1.26667,10.00001 0,0.93333 -0.13333,2.93333 -0.0667,1.93334 -0.0667,2.73334 0,2.33333 0.4,3.26667 0.46667,0.93333 1.8,0.93333 1.33334,0 8.40001,-2.2 1.6,-0.53334 2.66666,-0.53334 0.8,0 0.8,0.33334 0,0.66667 -2.4,1.73333 -7,3.2 -10.53334,3.2 -1.6,0 -2.26666,-0.66666 -0.8,-0.8 -0.8,-7.73334 0,-6 0.73333,-14.93334 0.4,-5.13334 0.4,-6.80001 0,-2.06666 -0.86667,-2.66666 -0.73333,-0.53334 -0.73333,-0.86667 0,-0.33333 1.2,-1.53333 1.4,-1.40001 2.66667,-1.40001 h 0.2 0.13333 q 1.33333,0 4.73334,-1.13333 z m 22.3333,3.13334 q 0,-3.00001 0.2,-4.06667 0.2,-1.06667 0.73333,-1.06667 0.53334,0 0.8,1.33333 0.26667,1.33334 0.4,5.00001 0.0667,1.13333 0.0667,3.2 0,3.66667 -0.33333,4.33333 -0.53334,1.2 -0.53334,11.53334 0,6.60001 -0.2,8.60001 -0.13333,1.93333 -0.73333,1.93333 -1.6,0 -1.6,-8.2 0,-1.66667 0.26667,-6.46667 l 0.4,-7.40001 -4.46667,0.33334 q -4.20001,0.26666 -5.40001,0.53333 -0.66666,0.2 -0.66666,2.86667 0,0.53333 0.4,5.4 0.4,4.8 0.4,9.26667 0,1.4 -0.86667,1.6 h -0.13333 q -1,0 -1.4,-4.13333 -0.33334,-4.2 -0.46667,-16.00001 v -4.06667 q 0,-8.66667 0.8,-8.66667 0.93333,0 1.26667,5.53334 l 0.33333,5.53333 4.4,-0.13333 q 4.33334,0 5.40001,-0.8 0.93333,-0.73334 0.93333,-6 z m 20.19996,-4.00001 q -1.13334,-1 -2.60001,-1.46666 -0.13333,-0.0667 -0.53333,-0.0667 -1.6,0 -3.53333,2.2 -1.93334,2.2 -2.66667,4.93334 -0.73334,3 -1.4,3 -0.53334,0 -0.53334,-2 0,-1.66667 -0.26666,-1.66667 -0.66667,0 -1.93334,6.4 -1.06667,5.46667 -1.06667,8.20001 0,2.53333 1.00001,5.93333 1,3.40001 2.2,4.86667 l 1.26666,1.53334 2.33334,-1.26667 q 4.13333,-2.2 7.13334,-9.33334 3,-7.2 3,-13.66667 0,-5.46667 -2.4,-7.60001 z m -7.40001,-1.33333 q 2.73334,-2.4 4.33334,-2.4 1.66666,0 3.8,2.06667 2.2,2.06666 2.93333,4.33333 0.73334,2.53334 0.73334,5.46667 0,5.8 -2.33334,12.06667 -2.33333,6.26667 -6,9.93334 -3.6,3.6 -5.66667,3.6 -0.93333,0 -1.8,-0.46666 -2.33334,-1.2 -3.66667,-4.93334 -1.26667,-3.8 -1.26667,-9.06667 0,-3.6 0.73334,-8 1.8,-10.33334 4,-10.33334 h 0.2 0.13333 q 1.46667,0 3.86667,-2.26667 z m 15.13338,2.93333 q 0.33333,-3.66666 0.53333,-4.73333 0.26667,-1.13334 0.8,-1.13334 h 0.13334 q 1,0.2 1,2.60001 0,2.8 -1.26667,15.06667 -0.73333,7.13334 -0.73333,10.60001 0,2.13333 0.33333,2.46666 0.4,0.4 1.13333,0.4 0.93334,0 2.33334,-0.46666 2.13333,-0.6 4.53333,-0.6 3.13334,0 3.26667,0.86666 0,0.66667 -2.8,1 -2.73333,0.46667 -6.13334,1.46667 -2.13333,0.6 -3.06666,0.6 -0.73334,0 -1.06667,-0.33333 -0.66667,-0.66667 -0.66667,-5.26667 0,-4.26667 0.6,-10.26667 0.66667,-5.73334 1.06667,-12.26668 z m 28.66673,3.40001 q -1.73334,-0.93334 -3,-0.93334 -0.8,0 -1.00001,2 -0.2,1.93334 -0.33333,11.93334 -0.13333,13.60001 -0.53333,15.13334 -0.13334,0.53334 -0.13334,0.6 0,0.33334 0.4,0.33334 0.0667,0 1.53334,-0.26667 2.66667,-0.6 5,-2 2.4,-1.4 3.4,-3 2.13334,-3.53334 2.13334,-9.66667 0,-4.86667 -1.53334,-8.06667 -0.86666,-1.6 -2.66666,-3.40001 -1.80001,-1.86666 -3.26667,-2.66666 z m -9.93334,-2.46667 q 2.4,-0.93334 4.4,-0.93334 2,0 4.6,0.93334 2.8,0.93333 5.20001,3.26667 2.46666,2.26666 3.73333,5.06667 1.26667,2.86666 1.26667,9.06667 0,4.13333 -0.66667,6.53333 -1.2,4.26667 -5.53333,7.00001 -4.33334,2.73333 -9.66668,2.73333 -1.53333,0 -3.4,-0.33333 -2.06667,-0.4 -2.06667,-1.2 0,-0.86667 2.53334,-1.06667 1.46667,-0.13333 2,-0.46667 0.6,-0.33333 0.73333,-1.13333 0.73334,-3.33333 0.73334,-19.20001 0,-5.06667 -0.2,-6.26667 -0.2,-1.46667 -0.46667,-1.86667 -0.2,-0.46666 -0.8,-0.46666 -0.66667,0 -1.13333,0.13333 -2.00001,0.33333 -3.53334,2.13333 -1.13333,1.26667 -1.93333,1.26667 -0.8,0 -0.8,-1.26667 0,-0.93333 1.4,-2 1.4,-1.13333 3.6,-1.93333 z m 29.80005,-1.66667 q 3.6,-1.26667 4.6,-1.26667 0.6,0 0.6,0.4 0,0.13334 -0.0667,0.26667 -0.2,0.66667 -2.8,1.66667 -1.73333,0.53333 -2.86667,1.33333 -1.06666,0.8 -2.4,1.26667 -1.4,0.46667 -1.66666,1.13333 -0.26667,0.6 -0.26667,3.4 0,2.20001 0.13333,2.93334 0.2,0.73333 0.66667,0.73333 h 0.13333 q 0.86667,-0.2 4.06667,-0.6 1.46667,-0.13333 1.8,-0.13333 1.33334,0 1.33334,0.4 0,0.73333 -3.73334,1.86667 -3.73333,1.06666 -4.6,1.93333 -0.86667,0.8 -1.26667,10.00001 0,0.93333 -0.13333,2.93333 -0.0667,1.93334 -0.0667,2.73334 0,2.33333 0.4,3.26667 0.46667,0.93333 1.8,0.93333 1.33334,0 8.40001,-2.2 1.6,-0.53334 2.66667,-0.53334 0.8,0 0.8,0.33334 0,0.66667 -2.40001,1.73333 -7,3.2 -10.53333,3.2 -1.60001,0 -2.26667,-0.66666 -0.8,-0.8 -0.8,-7.73334 0,-6 0.73333,-14.93334 0.4,-5.13334 0.4,-6.80001 0,-2.06666 -0.86667,-2.66666 -0.73333,-0.53334 -0.73333,-0.86667 0,-0.33333 1.2,-1.53333 1.4,-1.40001 2.66667,-1.40001 h 0.2 0.13333 q 1.33334,0 4.73334,-1.13333 z m 20.86663,1.33333 q -1.93333,-1.8 -5.13333,-1.8 -1.33334,0 -2.33334,0.4 -1.26666,0.46667 -1.26666,2.13334 0,1.66667 0.86666,6.86667 0.26667,2.26667 2.13334,2.26667 1.93333,0 4.66667,-2.6 2.6,-2.53334 2.6,-4.40001 0,-1.46666 -1.53334,-2.86667 z m -9.53333,-3.53333 q 2.86666,-0.33333 4.33333,-0.33333 2.73334,0 4.8,1.06666 3.86667,1.93334 3.86667,5.40001 0,3.2 -3.33333,6.4 -2.53334,2.53333 -2.53334,3.13333 0,0.46667 2,2.46667 3.80001,3.6 6.80001,12.00001 1.6,4.6 1.6,5.73334 0,0.86666 -0.8,0.86666 -0.0667,0 -0.26667,0 -0.13333,-0.0667 -0.26667,-0.0667 -1.33333,-0.2 -1.33333,-1.40001 0,-1.2 -1.13333,-4.26666 -1.06667,-3.13334 -2.46667,-5.86667 -1.26667,-2.53334 -4.4,-5.86667 -3.06667,-3.40001 -4.06667,-3.40001 -0.33334,0 -0.46667,0.0667 -0.13333,0.0667 -0.26667,0.4 -0.0667,0.33333 -0.0667,1.06667 0,1.4 0.6,8.13334 0.4,4.2 0.4,6.2 0,2.2 -0.6,2.2 -0.26667,0 -0.73334,-0.33333 -0.8,-0.66667 -1.33333,-9.33334 -0.46667,-9.46667 -2,-20.60001 l -0.46667,-3.4 z m 60.91303,52.83232 h -42.64325 v -3.90625 h 42.64325 z m 37.92321,-9.76563 H 303.8449 v -6.80339 q 3.41797,-2.92969 6.83594,-5.85938 3.45052,-2.92969 6.41277,-5.82682 6.25,-6.05469 8.5612,-9.60287 2.3112,-3.58074 2.3112,-7.71485 0,-3.77605 -2.50652,-5.89193 -2.47395,-2.14844 -6.93359,-2.14844 -2.96224,0 -6.41277,1.04167 -3.45052,1.04166 -6.73828,3.1901 h -0.32552 v -6.83594 q 2.3112,-1.13932 6.15234,-2.08333 3.8737,-0.94401 7.48699,-0.94401 7.45443,0 11.6862,3.61328 4.23178,3.58073 4.23178,9.73308 0,2.76693 -0.71615,5.17578 -0.6836,2.3763 -2.05078,4.52474 -1.26954,2.01823 -2.9948,3.97136 -1.69271,1.95313 -4.13411,4.32943 -3.48308,3.41797 -7.19402,6.64063 -3.71094,3.1901 -6.9336,5.92448 h 26.07424 z"
     id="text5"
     style="font-size:66.6667px;font-family:Sebastiandres;-inkscape-font-specification:'Sebastiandres, Normal';text-align:center;text-anchor:middle;stroke:#000000"
     aria-label="PLACEHOLDER_2" />
  <text
     xml:space="preserve"
     id="text6"
     style="font-style:normal;font-variant:normal;font-weight:normal;font-stretch:normal;font-size:66.6667px;font-family:Sebastiandres;-inkscape-font-specification:'Sebastiandres, Normal';font-variant-ligatures:normal;font-variant-caps:normal;font-variant-numeric:normal;font-variant-east-asian:normal;text-align:center;white-space:pre;shape-inside:url(#rect6);display:inline;fill:none;stroke:#000000" />
  <plotdata
     application="axidraw"
     model="1"
     plob_version="n/a"
     layer="-2"
     pause_dist="-25400"
     pause_ref="-25400"
     last_x="-1.0204753708720203e-13"
     last_y="-3.7452679846339265e-14"
     rand_seed="1"
     row="0" />
</svg>
