<?xml version="1.0" encoding="UTF-8" standalone="no"?>
<svg
   width="10cm"
   height="6.3999996cm"
   viewBox="0 0 377.95276 241.88976"
   version="1.1"
   id="svg93"
   sodipodi:docname="vecteezy_world.svg"
   inkscape:version="1.3.2 (091e20e, 2023-11-25)"
   xmlns:inkscape="http://www.inkscape.org/namespaces/inkscape"
   xmlns:sodipodi="http://sodipodi.sourceforge.net/DTD/sodipodi-0.dtd"
   xmlns="http://www.w3.org/2000/svg"
   xmlns:svg="http://www.w3.org/2000/svg">
  <sodipodi:namedview
     id="namedview93"
     pagecolor="#ffffff"
     bordercolor="#000000"
     borderopacity="0.25"
     inkscape:showpageshadow="2"
     inkscape:pageopacity="0.0"
     inkscape:pagecheckerboard="0"
     inkscape:deskcolor="#d1d1d1"
     inkscape:zoom="1"
     inkscape:cx="127"
     inkscape:cy="222"
     inkscape:window-width="1920"
     inkscape:window-height="1052"
     inkscape:window-x="0"
     inkscape:window-y="0"
     inkscape:window-maximized="0"
     inkscape:current-layer="svg93"
     inkscape:document-units="cm" />
  <defs
     id="defs91">
    <radialGradient
       id="radial-pattern-0"
       gradientUnits="userSpaceOnUse"
       cx="0"
       cy="0"
       fx="0"
       fy="0"
       r="1608.65"
       gradientTransform="translate(3392.3729,718.64407)">
      <stop
         offset="0"
         stop-color="rgb(99.830627%, 99.830627%, 99.830627%)"
         stop-opacity="1"
         id="stop1" />
      <stop
         offset="0.015625"
         stop-color="rgb(99.536133%, 99.536133%, 99.536133%)"
         stop-opacity="1"
         id="stop2" />
      <stop
         offset="0.0273438"
         stop-color="rgb(99.282837%, 99.282837%, 99.282837%)"
         stop-opacity="1"
         id="stop3" />
      <stop
         offset="0.0390625"
         stop-color="rgb(99.029541%, 99.029541%, 99.029541%)"
         stop-opacity="1"
         id="stop4" />
      <stop
         offset="0.0507812"
         stop-color="rgb(98.777771%, 98.777771%, 98.777771%)"
         stop-opacity="1"
         id="stop5" />
      <stop
         offset="0.0625"
         stop-color="rgb(98.524475%, 98.524475%, 98.524475%)"
         stop-opacity="1"
         id="stop6" />
      <stop
         offset="0.0742188"
         stop-color="rgb(98.271179%, 98.271179%, 98.271179%)"
         stop-opacity="1"
         id="stop7" />
      <stop
         offset="0.0859375"
         stop-color="rgb(98.019409%, 98.019409%, 98.019409%)"
         stop-opacity="1"
         id="stop8" />
      <stop
         offset="0.0976562"
         stop-color="rgb(97.766113%, 97.766113%, 97.766113%)"
         stop-opacity="1"
         id="stop9" />
      <stop
         offset="0.109375"
         stop-color="rgb(97.512817%, 97.512817%, 97.512817%)"
         stop-opacity="1"
         id="stop10" />
      <stop
         offset="0.121094"
         stop-color="rgb(97.261047%, 97.261047%, 97.261047%)"
         stop-opacity="1"
         id="stop11" />
      <stop
         offset="0.132812"
         stop-color="rgb(97.007751%, 97.007751%, 97.007751%)"
         stop-opacity="1"
         id="stop12" />
      <stop
         offset="0.144531"
         stop-color="rgb(96.755981%, 96.755981%, 96.755981%)"
         stop-opacity="1"
         id="stop13" />
      <stop
         offset="0.15625"
         stop-color="rgb(96.502686%, 96.502686%, 96.502686%)"
         stop-opacity="1"
         id="stop14" />
      <stop
         offset="0.167969"
         stop-color="rgb(96.24939%, 96.24939%, 96.24939%)"
         stop-opacity="1"
         id="stop15" />
      <stop
         offset="0.179688"
         stop-color="rgb(95.99762%, 95.99762%, 95.99762%)"
         stop-opacity="1"
         id="stop16" />
      <stop
         offset="0.191406"
         stop-color="rgb(95.744324%, 95.744324%, 95.744324%)"
         stop-opacity="1"
         id="stop17" />
      <stop
         offset="0.203125"
         stop-color="rgb(95.491028%, 95.491028%, 95.491028%)"
         stop-opacity="1"
         id="stop18" />
      <stop
         offset="0.214844"
         stop-color="rgb(95.239258%, 95.239258%, 95.239258%)"
         stop-opacity="1"
         id="stop19" />
      <stop
         offset="0.226562"
         stop-color="rgb(94.985962%, 94.985962%, 94.985962%)"
         stop-opacity="1"
         id="stop20" />
      <stop
         offset="0.238281"
         stop-color="rgb(94.732666%, 94.732666%, 94.732666%)"
         stop-opacity="1"
         id="stop21" />
      <stop
         offset="0.25"
         stop-color="rgb(94.480896%, 94.480896%, 94.480896%)"
         stop-opacity="1"
         id="stop22" />
      <stop
         offset="0.261719"
         stop-color="rgb(94.270325%, 94.270325%, 94.270325%)"
         stop-opacity="1"
         id="stop23" />
      <stop
         offset="0.269531"
         stop-color="rgb(94.100952%, 94.100952%, 94.100952%)"
         stop-opacity="1"
         id="stop24" />
      <stop
         offset="0.277344"
         stop-color="rgb(93.933105%, 93.933105%, 93.933105%)"
         stop-opacity="1"
         id="stop25" />
      <stop
         offset="0.285156"
         stop-color="rgb(93.763733%, 93.763733%, 93.763733%)"
         stop-opacity="1"
         id="stop26" />
      <stop
         offset="0.292969"
         stop-color="rgb(93.595886%, 93.595886%, 93.595886%)"
         stop-opacity="1"
         id="stop27" />
      <stop
         offset="0.300781"
         stop-color="rgb(93.426514%, 93.426514%, 93.426514%)"
         stop-opacity="1"
         id="stop28" />
      <stop
         offset="0.308594"
         stop-color="rgb(93.258667%, 93.258667%, 93.258667%)"
         stop-opacity="1"
         id="stop29" />
      <stop
         offset="0.316406"
         stop-color="rgb(93.09082%, 93.09082%, 93.09082%)"
         stop-opacity="1"
         id="stop30" />
      <stop
         offset="0.324219"
         stop-color="rgb(92.921448%, 92.921448%, 92.921448%)"
         stop-opacity="1"
         id="stop31" />
      <stop
         offset="0.332031"
         stop-color="rgb(92.753601%, 92.753601%, 92.753601%)"
         stop-opacity="1"
         id="stop32" />
      <stop
         offset="0.339844"
         stop-color="rgb(92.584229%, 92.584229%, 92.584229%)"
         stop-opacity="1"
         id="stop33" />
      <stop
         offset="0.347656"
         stop-color="rgb(92.416382%, 92.416382%, 92.416382%)"
         stop-opacity="1"
         id="stop34" />
      <stop
         offset="0.355469"
         stop-color="rgb(92.247009%, 92.247009%, 92.247009%)"
         stop-opacity="1"
         id="stop35" />
      <stop
         offset="0.363281"
         stop-color="rgb(92.079163%, 92.079163%, 92.079163%)"
         stop-opacity="1"
         id="stop36" />
      <stop
         offset="0.371094"
         stop-color="rgb(91.911316%, 91.911316%, 91.911316%)"
         stop-opacity="1"
         id="stop37" />
      <stop
         offset="0.378906"
         stop-color="rgb(91.65802%, 91.65802%, 91.65802%)"
         stop-opacity="1"
         id="stop38" />
      <stop
         offset="0.394531"
         stop-color="rgb(91.320801%, 91.320801%, 91.320801%)"
         stop-opacity="1"
         id="stop39" />
      <stop
         offset="0.410156"
         stop-color="rgb(90.983582%, 90.983582%, 90.983582%)"
         stop-opacity="1"
         id="stop40" />
      <stop
         offset="0.425781"
         stop-color="rgb(90.646362%, 90.646362%, 90.646362%)"
         stop-opacity="1"
         id="stop41" />
      <stop
         offset="0.441406"
         stop-color="rgb(90.309143%, 90.309143%, 90.309143%)"
         stop-opacity="1"
         id="stop42" />
      <stop
         offset="0.457031"
         stop-color="rgb(89.971924%, 89.971924%, 89.971924%)"
         stop-opacity="1"
         id="stop43" />
      <stop
         offset="0.472656"
         stop-color="rgb(89.63623%, 89.63623%, 89.63623%)"
         stop-opacity="1"
         id="stop44" />
      <stop
         offset="0.488281"
         stop-color="rgb(89.299011%, 89.299011%, 89.299011%)"
         stop-opacity="1"
         id="stop45" />
      <stop
         offset="0.503906"
         stop-color="rgb(89.004517%, 89.004517%, 89.004517%)"
         stop-opacity="1"
         id="stop46" />
      <stop
         offset="0.515625"
         stop-color="rgb(88.751221%, 88.751221%, 88.751221%)"
         stop-opacity="1"
         id="stop47" />
      <stop
         offset="0.527344"
         stop-color="rgb(88.497925%, 88.497925%, 88.497925%)"
         stop-opacity="1"
         id="stop48" />
      <stop
         offset="0.539062"
         stop-color="rgb(88.246155%, 88.246155%, 88.246155%)"
         stop-opacity="1"
         id="stop49" />
      <stop
         offset="0.550781"
         stop-color="rgb(87.992859%, 87.992859%, 87.992859%)"
         stop-opacity="1"
         id="stop50" />
      <stop
         offset="0.5625"
         stop-color="rgb(87.739563%, 87.739563%, 87.739563%)"
         stop-opacity="1"
         id="stop51" />
      <stop
         offset="0.574219"
         stop-color="rgb(87.487793%, 87.487793%, 87.487793%)"
         stop-opacity="1"
         id="stop52" />
      <stop
         offset="0.585938"
         stop-color="rgb(87.234497%, 87.234497%, 87.234497%)"
         stop-opacity="1"
         id="stop53" />
      <stop
         offset="0.597656"
         stop-color="rgb(86.982727%, 86.982727%, 86.982727%)"
         stop-opacity="1"
         id="stop54" />
      <stop
         offset="0.609375"
         stop-color="rgb(86.729431%, 86.729431%, 86.729431%)"
         stop-opacity="1"
         id="stop55" />
      <stop
         offset="0.621094"
         stop-color="rgb(86.476135%, 86.476135%, 86.476135%)"
         stop-opacity="1"
         id="stop56" />
      <stop
         offset="0.632812"
         stop-color="rgb(86.265564%, 86.265564%, 86.265564%)"
         stop-opacity="1"
         id="stop57" />
      <stop
         offset="0.640625"
         stop-color="rgb(86.097717%, 86.097717%, 86.097717%)"
         stop-opacity="1"
         id="stop58" />
      <stop
         offset="0.648438"
         stop-color="rgb(85.928345%, 85.928345%, 85.928345%)"
         stop-opacity="1"
         id="stop59" />
      <stop
         offset="0.65625"
         stop-color="rgb(85.760498%, 85.760498%, 85.760498%)"
         stop-opacity="1"
         id="stop60" />
      <stop
         offset="0.664062"
         stop-color="rgb(85.591125%, 85.591125%, 85.591125%)"
         stop-opacity="1"
         id="stop61" />
      <stop
         offset="0.671875"
         stop-color="rgb(85.423279%, 85.423279%, 85.423279%)"
         stop-opacity="1"
         id="stop62" />
      <stop
         offset="0.679688"
         stop-color="rgb(85.255432%, 85.255432%, 85.255432%)"
         stop-opacity="1"
         id="stop63" />
      <stop
         offset="0.6875"
         stop-color="rgb(85.08606%, 85.08606%, 85.08606%)"
         stop-opacity="1"
         id="stop64" />
      <stop
         offset="0.695312"
         stop-color="rgb(84.832764%, 84.832764%, 84.832764%)"
         stop-opacity="1"
         id="stop65" />
      <stop
         offset="0.710938"
         stop-color="rgb(84.495544%, 84.495544%, 84.495544%)"
         stop-opacity="1"
         id="stop66" />
      <stop
         offset="0.726562"
         stop-color="rgb(84.159851%, 84.159851%, 84.159851%)"
         stop-opacity="1"
         id="stop67" />
      <stop
         offset="0.742188"
         stop-color="rgb(83.822632%, 83.822632%, 83.822632%)"
         stop-opacity="1"
         id="stop68" />
      <stop
         offset="0.757812"
         stop-color="rgb(83.528137%, 83.528137%, 83.528137%)"
         stop-opacity="1"
         id="stop69" />
      <stop
         offset="0.769531"
         stop-color="rgb(83.274841%, 83.274841%, 83.274841%)"
         stop-opacity="1"
         id="stop70" />
      <stop
         offset="0.78125"
         stop-color="rgb(83.021545%, 83.021545%, 83.021545%)"
         stop-opacity="1"
         id="stop71" />
      <stop
         offset="0.792969"
         stop-color="rgb(82.769775%, 82.769775%, 82.769775%)"
         stop-opacity="1"
         id="stop72" />
      <stop
         offset="0.804688"
         stop-color="rgb(82.516479%, 82.516479%, 82.516479%)"
         stop-opacity="1"
         id="stop73" />
      <stop
         offset="0.816406"
         stop-color="rgb(82.305908%, 82.305908%, 82.305908%)"
         stop-opacity="1"
         id="stop74" />
      <stop
         offset="0.824219"
         stop-color="rgb(82.138062%, 82.138062%, 82.138062%)"
         stop-opacity="1"
         id="stop75" />
      <stop
         offset="0.832031"
         stop-color="rgb(81.968689%, 81.968689%, 81.968689%)"
         stop-opacity="1"
         id="stop76" />
      <stop
         offset="0.839844"
         stop-color="rgb(81.800842%, 81.800842%, 81.800842%)"
         stop-opacity="1"
         id="stop77" />
      <stop
         offset="0.847656"
         stop-color="rgb(81.547546%, 81.547546%, 81.547546%)"
         stop-opacity="1"
         id="stop78" />
      <stop
         offset="0.863281"
         stop-color="rgb(81.210327%, 81.210327%, 81.210327%)"
         stop-opacity="1"
         id="stop79" />
      <stop
         offset="0.878906"
         stop-color="rgb(80.915833%, 80.915833%, 80.915833%)"
         stop-opacity="1"
         id="stop80" />
      <stop
         offset="0.890625"
         stop-color="rgb(80.662537%, 80.662537%, 80.662537%)"
         stop-opacity="1"
         id="stop81" />
      <stop
         offset="0.902344"
         stop-color="rgb(80.410767%, 80.410767%, 80.410767%)"
         stop-opacity="1"
         id="stop82" />
      <stop
         offset="0.914062"
         stop-color="rgb(80.200195%, 80.200195%, 80.200195%)"
         stop-opacity="1"
         id="stop83" />
      <stop
         offset="0.921875"
         stop-color="rgb(80.030823%, 80.030823%, 80.030823%)"
         stop-opacity="1"
         id="stop84" />
      <stop
         offset="0.929688"
         stop-color="rgb(79.777527%, 79.777527%, 79.777527%)"
         stop-opacity="1"
         id="stop85" />
      <stop
         offset="0.945312"
         stop-color="rgb(79.483032%, 79.483032%, 79.483032%)"
         stop-opacity="1"
         id="stop86" />
      <stop
         offset="0.957031"
         stop-color="rgb(79.272461%, 79.272461%, 79.272461%)"
         stop-opacity="1"
         id="stop87" />
      <stop
         offset="0.964844"
         stop-color="rgb(79.019165%, 79.019165%, 79.019165%)"
         stop-opacity="1"
         id="stop88" />
      <stop
         offset="0.980469"
         stop-color="rgb(78.767395%, 78.767395%, 78.767395%)"
         stop-opacity="1"
         id="stop89" />
      <stop
         offset="0.988281"
         stop-color="rgb(78.556824%, 78.556824%, 78.556824%)"
         stop-opacity="1"
         id="stop90" />
      <stop
         offset="1"
         stop-color="rgb(78.430176%, 78.430176%, 78.430176%)"
         stop-opacity="1"
         id="stop91" />
    </radialGradient>
  </defs>
  <path
     fill-rule="nonzero"
     fill="#2d2d2d"
     fill-opacity="1"
     d="m 160.86358,58.847174 c 0.0997,0 0.19405,0.01317 0.2891,0.04359 0.55243,0.175567 0.73989,0.726698 1.02568,1.561642 0.22641,0.664003 0.4594,1.289054 0.74122,1.697615 1.36034,-0.888407 2.29695,-2.054694 2.18144,-3.803138 -0.0911,-1.368917 -0.9696,-2.622318 -2.41245,-3.435488 -1.60719,-0.906893 -3.55693,-1.022399 -4.96611,-0.292402 -1.00853,0.522097 -1.83358,1.553074 -2.15304,2.688334 -0.25347,0.902277 -0.16171,1.77946 0.25742,2.470527 0.51879,0.856727 2.13389,0.217807 3.60709,-0.449494 0.64751,-0.292391 1.06662,-0.481164 1.42965,-0.481164 z m 151.52143,13.351888 c 0.81648,2.351711 0.54915,4.813659 -0.76168,6.503349 -0.94318,1.216451 -2.26788,1.907507 -3.54836,2.576789 -0.664,0.34784 -1.293,0.67588 -1.86525,1.07057 -0.98214,0.67655 -1.73723,1.84811 -1.83887,2.85005 -0.0542,0.54322 0.0878,0.99402 0.42243,1.33922 1.0105,1.04418 3.00645,0.3221 3.5939,0.0759 3.40644,-1.42831 5.93637,-4.40377 6.44657,-7.579867 0.41715,-2.599881 -0.61712,-5.261151 -2.44874,-6.836009 z M 346.404,178.66307 c 0.0455,0.0152 0.0898,0.0324 0.13332,0.0488 1.17091,0.43101 1.94315,0.7168 3.08701,0.36038 0.89236,-0.27919 2.0923,-0.84156 2.73387,-1.94315 0.36828,-0.63561 0.44947,-1.48178 0.20987,-2.21046 -0.18085,-0.54718 -0.52537,-0.95443 -0.97157,-1.14715 -0.99862,-0.42902 -2.2725,0.20262 -3.01636,1.04946 -0.62505,0.71283 -1.05079,1.59134 -1.50357,2.52067 -0.17754,0.36699 -0.3617,0.7452 -0.55972,1.11547 -0.037,0.0693 -0.0739,0.13664 -0.11285,0.20593 z m -42.79682,-12.52024 c 0.41781,0 0.84155,0.0522 1.27256,0.16368 2.59856,0.68249 3.89289,3.21703 5.03343,5.45456 0.0759,0.14653 0.1505,0.29372 0.22509,0.43759 1.86327,3.6157 4.39781,6.70269 7.333,9.0346 1.65604,-1.42634 3.36422,-2.92991 5.12981,-4.51664 0.26863,-0.24025 0.53926,-0.48182 0.80788,-0.72142 2.01576,-1.79595 4.09883,-3.65132 5.62353,-5.8631 1.87847,-2.72926 2.73188,-5.68425 2.40055,-8.32175 -0.27326,-2.17284 -1.29566,-4.13514 -2.37745,-6.21162 -0.53859,-1.03428 -1.09632,-2.10354 -1.55242,-3.20382 -0.99532,-2.39064 -1.53788,-5.02156 -1.57023,-7.61089 -0.0166,-1.30489 -0.10431,-2.72397 -0.95969,-3.04673 -0.26336,-0.0997 -0.53396,-0.0666 -0.82768,0.10035 -0.53924,0.30691 -0.99865,0.99732 -1.11877,1.67913 -0.10955,0.63034 -0.0791,1.29566 -0.0468,2.00058 0.035,0.75112 0.0706,1.52799 -0.066,2.31936 -0.19603,1.13131 -0.92272,2.20982 -1.85205,2.7451 -0.67918,0.39206 -1.42965,0.46863 -2.11411,0.2165 -1.62171,-0.598 -1.99661,-2.53983 -1.80454,-4.15758 0.0192,-0.16633 0.0409,-0.3353 0.0647,-0.50558 0.13992,-1.06531 0.27326,-2.07187 -0.2046,-2.76292 -0.25345,-0.36567 -0.61517,-0.57688 -1.10688,-0.64552 -0.95111,-0.13333 -2.29629,0.3287 -3.26587,1.1247 -0.34191,0.27853 -0.67258,0.57951 -1.02438,0.89831 -1.30424,1.18477 -2.65467,2.4098 -4.51664,2.54312 -0.45939,0.0336 -0.89501,-0.009 -1.31612,-0.0495 -0.42242,-0.0403 -0.82306,-0.0791 -1.18937,-0.033 -1.03957,0.12936 -2.04612,0.96695 -2.99262,2.48835 -0.16237,0.26003 -0.32407,0.53526 -0.48116,0.8006 -0.67126,1.14054 -1.36364,2.31806 -2.49098,3.1583 -1.00721,0.75178 -2.17812,1.09301 -3.3101,1.42434 -0.98674,0.28713 -1.91937,0.55906 -2.68832,1.07983 -1.84349,1.24484 -2.51079,3.76089 -3.03618,6.23142 l -1.84545,8.66628 c -0.0931,0.43232 -0.15841,0.8125 -0.0469,1.05474 0.21913,0.47588 1.21447,0.44552 2.04612,0.21452 2.68634,-0.74849 5.23608,-1.89761 7.57656,-3.41702 0.18086,-0.11815 0.365,-0.2396 0.54915,-0.36104 1.73194,-1.14054 3.65661,-2.40782 5.74299,-2.40782 z m 39.97185,13.4971 c -1.48573,0 -2.9893,0.47126 -4.23941,0.93792 -2.35765,0.8818 -4.22821,1.88044 -5.71988,3.05333 -0.98873,0.77884 -1.78409,1.5557 -2.39463,2.3385 5.03213,-0.28447 9.83257,-2.6309 12.70705,-6.32117 -0.11882,-0.005 -0.23499,-0.009 -0.35313,-0.009 z m 21.84483,23.44646 -25.89878,1 c -0.0184,7.1e-4 -0.0369,-0.002 -0.0555,-0.002 -5.00507,-0.35973 -7.67623,-2.56821 -8.82536,-3.85197 -2.82693,-3.16488 -3.55495,-7.11587 -2.22564,-12.07474 0.0628,-0.23496 0.13729,-0.46795 0.22309,-0.69963 -0.79601,-0.0641 -1.58672,-0.17556 -2.36359,-0.33794 -3.0837,-0.64354 -6.05583,-2.00254 -8.74615,-3.93713 -16.47256,14.05155 -28.40008,20.90339 -36.35023,20.90339 h -64.32326 c -8.80821,0 -16.71282,-4.96613 -23.49206,-14.75777 -5.41032,-7.81682 -8.65637,-16.63163 -10.21605,-20.86972 -0.18084,-0.48843 -0.33597,-0.91217 -0.46928,-1.26529 -0.79931,-2.10354 -1.85406,-4.16154 -2.87447,-6.15089 -2.19461,-4.27769 -4.46251,-8.69995 -4.23744,-13.74066 0.0653,-1.46858 0.5102,-2.88832 0.93924,-4.26053 0.60129,-1.92005 1.16958,-3.73384 0.64353,-5.45587 -0.40526,-1.33327 -1.41248,-2.39132 -2.47713,-3.51074 -0.82438,-0.86861 -1.67913,-1.76626 -2.29429,-2.84674 -0.9511,-1.66593 -1.25207,-3.60182 -1.54447,-5.47369 -0.37028,-2.37811 -0.72142,-4.62356 -2.3537,-5.99577 -1.82632,-1.53459 -4.59122,-1.3016 -6.58981,-0.83561 -0.70953,0.16501 -1.43426,0.37292 -2.13588,0.57357 -1.74844,0.50096 -3.56023,1.0191 -5.45588,0.9993 -4.87832,-0.0508 -9.49923,-3.9226 -10.9863,-9.2062 -1.21184,-4.29949 -0.49504,-9.44183 2.01575,-14.47923 1.6996,-3.41306 3.99784,-6.48488 6.21954,-9.45504 l 4.92255,-6.58322 c -1.20854,-1.73194 -1.52799,-6.053865 -1.09038,-7.868967 0.34519,-1.43624 1.12075,-1.654047 1.55307,-1.656029 0.57949,-0.0043 1.1742,0.07786 1.74381,0.155765 1.14385,0.157093 2.13259,0.292402 2.83883,-0.229684 0.85804,-0.632323 0.81449,-2.1174 0.23826,-3.05532 -0.24025,-0.388758 -1.15771,-0.842868 -1.8283,-1.176182 -1.06465,-0.526713 -1.83491,-0.908874 -1.90289,-1.662636 -0.0204,-0.219135 0.0171,-0.640238 0.49173,-0.993354 0.30957,-0.231676 0.79072,-0.425729 1.45802,-0.694355 0.55114,-0.221116 1.0983,-0.452793 1.6204,-0.704925 -0.41186,-0.641555 -0.67061,-1.398616 -0.85607,-1.944467 -0.0495,-0.141906 -0.10688,-0.310876 -0.16104,-0.456092 -0.1604,0.06736 -0.34984,0.151813 -0.51682,0.227714 -1.49367,0.67588 -4.27309,1.935235 -5.53574,-0.146522 -0.64023,-1.05606 -0.78873,-2.358973 -0.42043,-3.670474 0.43562,-1.551082 1.52732,-2.907459 2.91802,-3.62756 1.88044,-0.974879 4.33908,-0.853429 6.41423,0.317473 1.89761,1.071247 3.05665,2.769526 3.1814,4.66053 0.10688,1.635572 -0.45411,2.885685 -1.31085,3.855937 0.62506,-0.324745 1.23163,-0.755744 1.85866,-1.199947 0.55246,-0.393386 1.12537,-0.800629 1.73194,-1.145831 2.16295,-1.229646 4.6229,-1.59993 7.00367,-1.958326 0.37159,-0.05548 0.74319,-0.111543 1.1115,-0.170287 2.45401,-0.392068 5.20108,-1.040884 6.96867,-2.883051 0.93792,-0.976196 1.46858,-2.424313 1.38409,-3.779372 -0.0422,-0.663992 -0.25213,-1.581445 -1.00588,-2.264586 -0.28845,-0.05548 -0.55576,0.0054 -0.83298,0.186138 -0.73462,0.479846 -1.37353,1.743817 -1.52073,3.005807 -0.22969,1.987371 -0.6673,4.175392 -2.98073,5.001757 -2.54114,0.906893 -4.58527,-0.983457 -5.80699,-2.11212 -0.43299,-0.400636 -0.89568,-0.297671 -1.92469,0.05087 -0.88048,0.297018 -1.9768,0.667291 -3.03484,0.08054 -0.39735,-0.219125 -0.6574,-0.611193 -0.73,-1.101599 -0.36303,-2.442799 3.99652,-8.084793 5.87499,-10.026626 2.76424,-2.855323 6.51588,-4.911998 10.56389,-5.788528 4.09751,-0.889071 8.34421,-0.529347 11.95658,1.015138 2.09167,0.893687 5.37336,3.029573 5.83473,4.553601 0.15511,0.514172 0.0132,0.88709 -0.132,1.10886 -0.42772,0.654096 -1.33856,0.803928 -2.39462,0.978178 -1.46331,0.241572 -2.15238,0.440905 -2.10684,0.922732 0.01,0.106243 0.0409,0.429017 0.52209,0.645518 0.62702,0.281831 1.55768,0.182165 2.1207,-0.228378 0.63561,-0.46467 1.12008,-1.138558 1.63226,-1.852062 0.42374,-0.589419 0.86202,-1.199284 1.41579,-1.73194 2.40319,-2.299565 5.78918,-2.258642 9.06164,-2.218384 0.68117,0.0086 1.32339,0.01714 1.96032,0.0032 1.87716,-0.03695 3.24606,-1.644162 4.56879,-3.196561 0.95176,-1.116785 1.85073,-2.171528 2.93186,-2.595265 1.64087,-0.6442 2.88768,0.190743 3.88762,0.861343 0.68976,0.459391 1.28312,0.858709 1.89102,0.780827 1.5544,-0.201314 2.97412,-0.949797 4.47637,-1.740519 0.6805,-0.359724 1.38541,-0.729997 2.10684,-1.049463 5.47105,-2.411119 11.87011,-1.694316 17.01378,-1.120084 l 48.8421,5.466428 c 5.34959,0.597998 12.62518,1.795964 18.98728,3.121977 11.03186,2.303538 11.84107,3.372793 12.10641,3.72261 0.22969,0.304279 0.24157,0.593371 0.21121,0.784125 -0.13002,0.789405 -0.99865,1.392019 -2.94838,2.681737 -2.89427,1.910806 -7.26899,4.800443 -7.14557,8.436592 0.004,0.185474 0.0166,0.3749 0.0271,0.565654 0.0674,1.209844 0.15181,2.71407 -0.88247,3.741085 -0.64222,0.636939 -1.51742,0.882474 -2.46326,0.691066 -1.35176,-0.273263 -2.68502,-1.407205 -3.24078,-2.760936 -0.34322,-0.832973 -0.51418,-1.704876 -0.67918,-2.547745 -0.20131,-1.025697 -0.39205,-1.99595 -0.8686,-2.811765 -1.89959,-3.246063 -6.92643,-2.536522 -10.81075,-1.368907 -1.6138,0.487097 -3.50282,1.233608 -3.77477,2.70879 -0.24355,1.331293 0.96828,2.639486 2.18473,3.742412 l 6.89541,6.247243 c 1.32668,1.201276 2.78997,2.525972 3.91005,4.124574 3.57873,1.309521 5.92384,5.523201 5.27042,9.595628 -0.60196,3.74109 -3.42163,7.09012 -7.36074,8.74154 -2.16758,0.90953 -4.13975,0.75179 -5.27502,-0.42044 -0.64882,-0.67192 -0.94122,-1.55241 -0.84155,-2.54775 0.14388,-1.43691 1.14253,-3.02495 2.48703,-3.95165 0.6488,-0.446185 1.34845,-0.813171 2.02631,-1.166287 1.18806,-0.61977 2.31145,-1.206544 3.05003,-2.158986 1.31084,-1.691671 1.0257,-4.205755 0.16039,-5.948255 -0.14719,-0.293708 -0.30957,-0.579512 -0.48316,-0.856727 -1.52799,-0.399983 -3.32724,-0.01842 -4.74301,1.017782 -1.30952,0.95573 -2.07186,2.306173 -2.08837,3.70149 -0.005,0.334631 0.0217,0.687758 0.0488,1.063322 0.0878,1.186078 0.18743,2.532558 -0.73661,3.560237 -0.57819,0.641555 -1.33855,0.947824 -2.19331,0.885114 -1.72005,-0.12805 -3.51668,-1.738543 -4.5318,-3.27643 -0.81976,-1.241524 -2.24084,-2.551044 -3.3728,-2.654673 -0.38349,-0.03363 -0.68907,0.08118 -0.96101,0.365004 -1.06993,1.117438 0.6046,3.019666 2.5715,4.91068 3.46718,3.329889 4.58595,8.750119 2.72002,13.180949 -1.48641,3.53054 -4.51598,6.03934 -7.18913,8.25244 -2.0382,1.68574 -3.90347,2.02104 -5.11991,0.92076 -0.20131,-0.18217 -0.35641,-0.38415 -0.49172,-0.56235 -0.13531,-0.17689 -0.26336,-0.34455 -0.38547,-0.41649 -0.0739,-0.0442 -0.16566,-0.0983 -0.3584,0.0918 -0.35443,0.3485 -0.55905,1.11415 -0.29172,1.57881 0.33794,0.58744 0.93064,1.03296 1.55768,1.50554 0.52407,0.3947 1.06595,0.80327 1.52203,1.33592 1.63756,1.91477 1.4653,5.10869 -0.36962,6.83535 -0.70821,0.6673 -1.77945,1.01117 -3.01306,0.97091 -1.9042,-0.064 -3.93646,-1.00061 -5.34762,-2.45534 -0.365,0.44882 -1.06134,2.03093 -1.49696,5.12321 -0.68973,4.88692 -0.29767,10.96322 2.13587,13.52152 3.43352,3.61172 7.53434,4.32786 13.03904,4.32721 l 0.002,1.52073 h -0.066 c -5.71262,0 -10.29526,-0.82241 -14.07859,-4.80046 -2.12202,-2.23225 -2.71209,-6.08356 -2.83356,-8.92238 -0.1353,-3.19063 0.25677,-6.76539 1.02373,-9.32897 0.73858,-2.46524 1.50027,-2.90812 2.01114,-3.02626 0.26534,-0.062 0.78214,-0.0878 1.26528,0.43231 1.13066,1.21712 2.85533,2.03688 4.39652,2.08902 0.82438,0.0284 1.50885,-0.17095 1.91939,-0.55905 1.25077,-1.17619 1.37221,-3.43483 0.25675,-4.73906 -0.34784,-0.40659 -0.80063,-0.74848 -1.28247,-1.11019 -0.72141,-0.5432 -1.46658,-1.1049 -1.95963,-1.96162 -0.6541,-1.13791 -0.22838,-2.66127 0.54254,-3.42032 0.63496,-0.62637 1.4798,-0.74651 2.20453,-0.3155 0.37357,0.22244 0.61846,0.54255 0.81448,0.80063 0.10689,0.13794 0.2066,0.26864 0.30297,0.35708 0.89501,0.80788 2.76423,-0.66136 3.13054,-0.96432 2.53786,-2.10156 5.41561,-4.48363 6.75746,-7.67161 1.60193,-3.80182 0.6046,-8.63594 -2.37084,-11.49389 -1.70686,-1.638879 -4.88494,-4.690235 -2.61704,-7.057786 0.59139,-0.618454 1.35175,-0.905565 2.1966,-0.827682 1.6943,0.151802 3.48235,1.782758 4.50409,3.329888 0.7894,1.196649 2.24281,2.512756 3.37609,2.597247 0.38348,0.02902 0.68775,-0.09307 0.94979,-0.384807 0.48975,-0.545851 0.42242,-1.461986 0.34982,-2.431575 -0.029,-0.39074 -0.0574,-0.794685 -0.0522,-1.19335 0.0231,-1.878462 1.01184,-3.66981 2.71144,-4.911997 1.29103,-0.944517 2.85268,-1.451416 4.36153,-1.463304 -0.82637,-0.927349 -1.76429,-1.777479 -2.68503,-2.610441 l -6.89541,-6.246601 c -1.52799,-1.384093 -3.03815,-3.078409 -2.65996,-5.14498 0.41911,-2.284389 2.80318,-3.279724 4.83279,-3.889599 6.3192,-1.899593 10.66159,-1.18807 12.56118,2.056011 0.60656,1.039556 0.83099,2.183405 1.04747,3.288302 0.15907,0.805909 0.30758,1.566269 0.59469,2.262616 0.36171,0.879828 1.27916,1.675831 2.1339,1.848099 0.45278,0.09178 0.80987,0 1.09171,-0.280513 0.54915,-0.545198 0.49371,-1.530626 0.4343,-2.574809 -0.01,-0.202631 -0.0217,-0.403945 -0.0284,-0.601297 -0.15247,-4.488249 4.64997,-7.657747 7.82804,-9.756661 0.75047,-0.496351 1.64416,-1.086423 2.07187,-1.467931 -0.95178,-0.503601 -4.02359,-1.531279 -11.10844,-3.003162 -6.26837,-1.300942 -13.41458,-2.473161 -18.65066,-3.057954 l -48.84209,-5.466427 c -5.21958,-0.584793 -11.1355,-1.246814 -16.23164,1.000615 -0.67259,0.295689 -1.35307,0.655413 -2.01049,1.001932 -1.55636,0.819114 -3.16486,1.667916 -4.99118,1.902227 -1.17289,0.152477 -2.10751,-0.472584 -2.93059,-1.025697 -0.98476,-0.658712 -1.63159,-1.044172 -2.487,-0.709541 -0.72802,0.287121 -1.50556,1.199947 -2.32994,2.166248 -1.39729,1.640852 -3.13584,3.681687 -5.69611,3.732505 -0.66071,0.01382 -1.34517,0.0054 -2.00916,-0.0032 -2.96687,-0.03566 -6.03736,-0.07465 -7.99041,1.797934 -0.45476,0.432326 -0.83297,0.961674 -1.23362,1.518749 -0.55904,0.779498 -1.13857,1.585407 -1.9702,2.193301 -1.01052,0.738587 -2.5088,0.89765 -3.64275,0.386777 -0.81976,-0.36962 -1.33328,-1.059358 -1.41115,-1.892321 -0.18415,-1.974829 1.95699,-2.327956 3.37477,-2.562921 0.40723,-0.06801 0.98675,-0.162372 1.26727,-0.273916 -0.38547,-0.724728 -2.67183,-2.504188 -4.92718,-3.46916 -6.77925,-2.895581 -15.5386,-1.032295 -20.82879,4.434132 -1.24881,1.289054 -2.76953,3.269164 -3.87639,5.045325 -1.48839,2.386037 -1.65276,3.457273 -1.58675,3.715349 0.43101,0.215173 0.96167,0.06137 1.77088,-0.212538 0.97355,-0.32935 2.30616,-0.778834 3.4454,0.273917 1.64086,1.516767 2.86389,2.296276 4.26449,1.795963 1.35045,-0.481827 1.74911,-1.73722 1.98079,-3.743065 0.16697,-1.437568 0.91018,-3.263884 2.1999,-4.105436 0.69765,-0.454763 1.47518,-0.569616 2.24874,-0.331342 0.0931,0.02838 0.17887,0.07454 0.25543,0.136636 0.99666,0.809197 1.59465,2.036209 1.68243,3.453974 0.11024,1.765601 -0.58083,3.653306 -1.80255,4.925192 -2.07977,2.166248 -5.12321,2.899544 -7.82672,3.332534 -0.37359,0.05869 -0.74848,0.11616 -1.12537,0.172269 -2.24214,0.33794 -4.5602,0.685776 -6.47826,1.775497 -0.54058,0.307578 -1.05606,0.67588 -1.60322,1.064639 -1.23691,0.877194 -2.51475,1.784087 -4.11666,1.995296 -0.43431,0.05741 -0.81251,-0.0032 -1.14054,-0.145215 -0.80591,0.42771 -1.60654,0.750464 -2.24678,1.009204 -0.2046,0.08247 -0.41252,0.165008 -0.59535,0.24289 0.21517,0.114842 0.46004,0.236956 0.65411,0.334641 0.92933,0.45938 1.9801,0.980149 2.44873,1.740519 0.93724,1.527328 0.96431,3.901476 -0.63034,5.077658 -1.20325,0.88709 -2.66127,0.687768 -3.94703,0.511537 -0.50559,-0.06929 -0.98345,-0.134645 -1.43492,-0.141906 -0.2013,0.294372 -0.45476,1.504226 -0.26994,3.501493 0.21121,2.294285 0.80062,3.603806 1.05606,3.766168 0.19734,0.101636 0.33925,0.285804 0.3881,0.503611 0.0508,0.217818 0,0.446185 -0.13334,0.623079 l -5.31263,7.10333 c -2.18143,2.9167 -4.43545,5.93307 -6.07564,9.22269 -2.34181,4.69947 -3.02167,9.45438 -1.9128,13.38886 1.28708,4.5734 5.38856,8.0551 9.54019,8.098 1.67253,0.0159 3.29951,-0.44816 5.02156,-0.94055 0.71812,-0.20594 1.46133,-0.41913 2.20847,-0.59272 2.33523,-0.54453 5.60637,-0.78676 7.91254,1.15308 2.06988,1.73854 2.48042,4.37539 2.87776,6.92512 0.27062,1.73589 0.55047,3.5312 1.36165,4.9549 0.5254,0.91943 1.27915,1.71214 2.07715,2.5517 1.14055,1.19863 2.31935,2.43818 2.83024,4.11533 0.66201,2.17152 -0.004,4.2975 -0.64751,6.35418 -0.40063,1.27916 -0.81448,2.60252 -0.8719,3.8731 -0.20594,4.63874 1.87054,8.69071 4.07044,12.97897 1.04088,2.02763 2.11543,4.12326 2.94377,6.30599 0.13465,0.35643 0.29372,0.78612 0.47457,1.27915 1.53921,4.1787 4.73973,12.87205 10.04049,20.5298 6.47826,9.35735 13.96177,14.10236 22.24127,14.10236 h 64.32327 c 4.90012,0 11.7315,-2.97216 20.3067,-8.83394 4.45724,-3.04607 9.34414,-6.83666 14.80992,-11.49323 -3.00714,-2.44344 -5.5991,-5.63011 -7.51188,-9.34217 -0.0745,-0.14718 -0.1505,-0.2957 -0.2264,-0.4442 -1.04616,-2.0481 -2.1273,-4.16549 -4.06715,-4.67371 -1.92334,-0.5056 -3.8896,0.79072 -5.79248,2.0428 -0.18745,0.12343 -0.37359,0.24619 -0.55774,0.36501 -2.47051,1.60321 -5.16017,2.81637 -7.997,3.60709 -1.86066,0.51747 -3.29491,0.12871 -3.83615,-1.04218 -0.33067,-0.72011 -0.16699,-1.49565 -0.0574,-2.00917 l 1.84347,-8.66496 c 0.59139,-2.77414 1.36231,-5.61297 3.67376,-7.17594 0.96632,-0.6521 2.05801,-0.97157 3.11407,-1.27914 1.04947,-0.3056 2.0395,-0.59469 2.82694,-1.18278 0.88048,-0.6574 1.46792,-1.65407 2.09034,-2.71013 0.16039,-0.27456 0.32738,-0.55772 0.49964,-0.83362 1.20128,-1.93061 2.58008,-3.00514 4.0962,-3.19458 0.53397,-0.066 1.03559,-0.0178 1.52204,0.029 0.37557,0.0363 0.73,0.0699 1.06333,0.0462 1.33591,-0.0957 2.43818,-1.095 3.60379,-2.15305 0.34785,-0.31682 0.70954,-0.64551 1.07983,-0.94781 1.3148,-1.07785 3.05795,-1.64812 4.44073,-1.45473 0.91019,0.1274 1.65206,0.57225 2.14709,1.28576 0.81317,1.17421 0.62704,2.5847 0.46138,3.82887 -0.0217,0.16238 -0.0436,0.32475 -0.0628,0.48381 -0.12672,1.07257 0.0799,2.27779 0.82174,2.55171 0.26534,0.0977 0.53528,0.0627 0.82769,-0.10624 0.53727,-0.30956 0.99533,-1.00326 1.11347,-1.68707 0.10958,-0.62768 0.0779,-1.28904 0.0455,-1.99 -0.0357,-0.75575 -0.0706,-1.53789 0.0693,-2.33389 0.19802,-1.13065 0.93132,-2.20585 1.86395,-2.73719 0.68247,-0.38809 1.43427,-0.46004 2.11674,-0.20196 1.89629,0.7168 1.92666,3.14574 1.94315,4.45063 0.0311,2.39725 0.53266,4.83411 1.45341,7.0459 0.43099,1.0389 0.97355,2.07978 1.49696,3.08501 1.09698,2.10354 2.23026,4.28034 2.53784,6.72513 0.37688,3.00777 -0.56566,6.33635 -2.65797,9.37449 -1.627,2.36228 -3.77938,4.2797 -5.86311,6.13505 -0.26863,0.24026 -0.53529,0.47854 -0.80261,0.71812 -1.67583,1.50423 -3.30678,2.94179 -4.89814,4.31401 2.4362,1.69828 5.10606,2.89294 7.86698,3.46915 0.92076,0.19075 1.85208,0.30691 2.78142,0.34916 0.74517,-1.21645 1.84149,-2.38867 3.31205,-3.5444 1.61511,-1.27256 3.61899,-2.34576 6.12514,-3.28302 1.74184,-0.65081 3.93647,-1.30158 6.09413,-0.92472 0.0964,-0.16038 0.18811,-0.32406 0.2759,-0.48973 0.18415,-0.34324 0.3617,-0.70823 0.53397,-1.06136 0.47457,-0.98014 0.96828,-1.99198 1.72864,-2.8606 1.07124,-1.21974 3.01768,-2.19329 4.75952,-1.44283 0.85145,0.36633 1.49565,1.10159 1.8151,2.06988 0.37623,1.14515 0.2495,2.4362 -0.34189,3.45002 -0.88709,1.5227 -2.4428,2.27118 -3.5939,2.62959 -1.63689,0.51151 -2.81638,0.0759 -4.06716,-0.38547 -0.13993,-0.0522 -0.28381,-0.10496 -0.43033,-0.1571 -1.82699,2.60518 -4.51003,4.714 -7.71716,6.03076 -2.4131,0.99006 -5.01826,1.50026 -7.59836,1.50687 -0.15907,0.34124 -0.2838,0.68579 -0.37686,1.0323 -1.58014,5.89545 0.32274,8.91183 1.891,10.66752 0.99335,1.1115 3.3213,3.021 7.77392,3.34705 l 22.87165,1 v -1.47927"
     id="path91"
     style="stroke-width:0.16897"
     sodipodi:nodetypes="scccccccccssscccccccssscccccccssscccccccccccccccccccccccccccccccccccscccccccccccccsccccccsscccccccccccccccccccccccccccccccccccccccccccccccccccccccccscccccccccccccccccccccccccccccccccsccccccccccccccccscccscccccccccsccccsccccccccccccccccccccccccccccccccccccccccccccccccccccccccccccccccccccccccccccscccccsccccccccccccccccssccccccccccccscccccccccccccccccccccccccccccccccccccccccccccccc" />
  <path
     fill-rule="nonzero"
     fill="#2d2d2d"
     fill-opacity="1"
     d="m 327.05364,137.44441 c 1.14517,0 2.12862,0.57358 2.81638,1.05011 0.63034,0.43827 1.01579,0.9201 1.35704,1.34517 0.32605,0.40856 0.60855,0.76102 1.08641,1.06992 0.19802,0.12738 0.55444,0.18612 0.73661,0.16765 -0.0284,-0.0983 -0.12342,-0.26995 -0.29899,-0.39735 -0.0825,-0.0614 -0.16897,-0.1221 -0.25478,-0.18415 -0.40725,-0.29173 -0.87059,-0.62308 -1.24746,-1.0323 -0.61517,-0.67059 -0.74652,-1.47056 -0.86334,-2.17613 -0.0627,-0.37887 -0.12145,-0.73594 -0.24818,-1.05606 -0.31285,-0.78941 -1.14384,-1.32008 -2.11739,-1.88309 l -5.18064,-3.00053 c -0.77554,-0.44883 -1.57617,-0.91217 -2.41111,-1.03692 -0.6508,-0.097 -1.47651,0.0607 -1.85537,0.63033 -0.0825,0.12277 -0.16237,0.28118 -0.24816,0.44883 -0.28383,0.55641 -0.71484,1.39796 -1.67783,1.44746 -0.98344,0.0561 -1.63557,-0.82109 -1.82698,-1.65274 -0.0455,-0.20328 -0.0726,-0.39932 -0.0997,-0.58875 -0.0436,-0.31286 -0.0812,-0.58347 -0.18877,-0.77092 -0.0964,-0.16831 -0.26733,-0.28052 -0.50691,-0.33266 -0.34323,-0.0739 -0.75904,-0.007 -1.09171,0.16699 0.49503,0.51417 0.87851,1.10754 1.23824,1.6666 0.69303,1.07519 1.29301,2.00452 2.50615,2.28768 0.47787,0.11155 1.41249,0.10891 2.09694,0.10625 0.42242,-0.001 0.78743,-0.002 1.04088,0.0198 0.94913,0.0812 1.97022,0.70888 2.08506,1.75108 0.0422,0.38348 -0.0528,0.71812 -0.12673,0.98742 -0.0336,0.11947 -0.066,0.23233 -0.0779,0.32407 -0.0303,0.2198 0.0403,0.4409 0.20923,0.65608 0.27722,0.35444 0.76432,0.61713 1.24021,0.66928 0.75245,0.0818 1.53987,-0.14389 2.37283,-0.38348 0.22442,-0.0647 0.4475,-0.12871 0.67258,-0.18745 0.2957,-0.0779 0.58413,-0.11221 0.86333,-0.11221 z m -113.96861,8.76265 c 1.45868,2.87843 2.67973,5.8618 1.8811,9.07419 -0.0799,0.32079 -0.17624,0.65542 -0.27062,0.97819 -0.49832,1.72864 -0.76895,2.90811 -0.006,3.53516 0.73331,0.60327 2.04282,0.10432 2.95038,-0.61384 2.3484,-1.86198 3.62096,-4.82355 3.23879,-7.54423 -0.40394,-2.86852 -2.73387,-5.28162 -5.42023,-5.61361 -0.81646,-0.101 -1.61245,-0.0251 -2.37282,0.18414 z M 72.50039,116.50935 c 1.34054,0 2.45138,1.15639 2.7682,2.37547 0.21781,0.84089 0.19009,1.72666 0.16369,2.58339 -0.0107,0.33662 -0.0205,0.65343 -0.0146,0.95508 0.0422,2.25468 -1.19137,4.25195 -2.27977,6.01426 l -0.10495,0.17095 c -0.99797,1.61774 -2.03687,3.49951 -1.72797,5.35025 0.22705,1.35836 1.18014,2.57877 2.02103,3.65463 l 4.80045,6.14362 c 1.93259,2.47316 3.93118,5.03081 5.21957,8.01286 1.7029,3.94043 2.01509,8.27093 2.31739,12.46151 0.44817,6.2116 0.90293,11.79948 1.93524,17.29561 0.60195,3.2058 1.56495,7.35215 3.683,10.99688 1.15969,1.99397 4.2546,4.96085 8.26565,7.15546 0.19075,-0.21254 0.36896,-0.43431 0.53397,-0.66399 0.37688,-0.52671 0.54651,-0.93594 0.53397,-1.28708 -0.0138,-0.40593 -0.19472,-0.86201 -0.32012,-0.98874 -0.12738,-0.0118 -0.25081,-0.0555 -0.35774,-0.1287 -2.091,-1.41578 -3.64868,-3.62758 -4.3866,-6.22811 -0.73793,-2.59858 -0.57358,-5.30011 0.46202,-7.60363 0.78611,-1.74844 1.98077,-3.21703 3.13584,-4.63808 l 5.91987,-7.27889 c 1.33789,-1.64613 2.854,-3.51009 3.30877,-5.65586 0.13333,-0.63166 0.17755,-1.28708 0.22375,-1.9821 0.0594,-0.89368 0.12079,-1.81774 0.38876,-2.73057 0.56037,-1.90752 2.6111,-3.23352 4.43743,-2.89096 2.63289,-0.19404 5.00704,-2.35831 5.4288,-4.96743 0.15445,-0.95509 0.0864,-1.96362 0.0138,-3.03156 -0.11815,-1.73657 -0.24025,-3.53318 0.65476,-5.15753 0.53661,-0.97422 1.34317,-1.68838 2.12333,-2.37878 0.74321,-0.65806 1.44482,-1.27915 1.84415,-2.06262 0.4475,-0.87917 0.47588,-1.85337 0.0839,-2.89624 -0.62242,-1.65405 -2.28374,-3.26257 -4.13513,-4.00312 -1.41975,-0.56698 -2.91935,-0.86069 -4.50674,-1.17157 -1.81114,-0.3551 -3.68367,-0.72208 -5.41891,-1.53261 -3.08105,-1.43887 -5.31264,-4.04801 -7.4703,-6.57132 l -0.29372,-0.34322 c -6.79507,-7.93036 -12.87336,-11.20216 -18.57939,-10.00221 -1.06992,0.22507 -2.09297,0.60789 -3.17609,1.01382 -1.03559,0.38744 -2.10618,0.78874 -3.22626,1.04087 -2.27977,0.51351 -5.30274,0.2957 -6.95085,-1.85338 -0.80657,-1.05144 -1.07916,-2.29627 -1.34252,-3.50017 -0.13135,-0.60065 -0.25543,-1.16695 -0.4409,-1.70093 -0.316821,-0.91217 -1.063324,-1.75239 -1.815106,-2.04347 -0.394042,-0.15246 -0.742542,-0.14125 -1.06464,0.0336 -0.319457,0.17359 -0.71746,0.0964 -0.949134,-0.18349 -0.231673,-0.28051 -0.232333,-0.68578 -0.0019,-0.96695 0.759703,-0.92537 1.620392,-1.97483 1.863945,-3.14706 0.199992,-0.96036 -0.18019,-2.19199 -1.06464,-2.49626 -0.873229,-0.29966 -1.699595,0.25675 -2.958287,1.20985 -1.0686,0.80921 -2.277789,1.72335 -3.740431,1.70817 -1.009856,-0.0132 -1.94513,-0.50096 -2.632228,-1.37419 -0.860688,-1.09434 -1.218428,-2.67183 -0.910852,-4.02029 0.51615,-2.26129 2.274489,-3.90742 3.687628,-5.23014 1.663955,-1.55768 3.551001,-3.32395 5.964756,-4.10477 2.397917,-0.77488 5.610979,-0.31946 7.111909,2.0514 0.26665,0.42044 0.4706,0.87983 0.66861,1.32404 0.44751,1.00523 0.76169,1.62831 1.35308,1.80519 1.16365,0.34785 2.19859,-1.52204 2.7121,-2.66787 4.08233,-9.11842 12.25029,-16.217119 21.8492,-18.984652 1.13593,-0.327381 2.10684,-0.922733 2.36096,-1.448118 0.0818,-0.16897 0.0858,-0.315502 0.0138,-0.493051 -0.11484,-0.282495 -0.46598,-0.520769 -0.83824,-0.774219 -0.51549,-0.349828 -1.10028,-0.746501 -1.39005,-1.451426 -0.32407,-0.787424 -0.15048,-1.603229 0.4759,-2.235552 0.91415,-0.922068 2.59593,-1.258691 3.82887,-0.766957 0.64552,0.25873 1.22371,0.625051 1.78342,0.980159 0.81647,0.516806 1.58806,1.005231 2.41178,1.046154 0.82967,0.0422 1.44481,-0.414506 1.8151,-0.8026 0.75178,-0.792714 1.16827,-2.005856 1.06002,-3.092279 -0.20923,-2.105523 -1.72401,-4.009721 -2.94113,-5.540358 -1.44349,-1.815092 -2.93716,-3.692247 -4.92256,-4.856552 -1.58012,-0.927349 -4.11731,-1.560978 -6.06904,-0.297018 -1.01645,0.656742 -1.80123,1.795964 -2.55962,2.895592 -1.16034,1.683092 -2.36029,3.423611 -4.50739,3.798511 -1.23097,0.214509 -2.49693,-0.155111 -3.56156,-1.040873 -1.25738,-1.0455 -2.04875,-2.676457 -2.0646,-4.254603 -0.0244,-2.428276 1.38014,-4.933781 3.85395,-6.87495 4.35229,-3.417014 10.46423,-4.244696 15.56897,-2.110803 0.53396,0.223098 1.05737,0.478529 1.56428,0.7234 1.18081,0.572915 2.29627,1.114804 3.49094,1.271897 1.50819,0.199996 3.32725,-0.555748 3.52526,-1.958326 0.11617,-0.815805 -0.31879,-1.657357 -0.77885,-2.547745 -0.21054,-0.407244 -0.42836,-0.829675 -0.60393,-1.269252 -0.68776,-1.720063 -0.58413,-3.750991 0.28316,-5.574019 0.86729,-1.824998 2.37877,-3.186654 4.14635,-3.739114 1.76824,-0.551131 3.78598,-0.291073 5.53706,0.71615 1.75041,1.005231 2.99128,2.619019 3.40447,4.425543 0.46599,2.039518 -0.007,4.04471 -0.46599,5.984562 -0.23894,1.009193 -0.48579,2.053376 -0.58216,3.059924 -0.16434,1.710156 0.53859,3.67509 1.67254,4.672406 0.62769,0.550478 1.31546,0.746502 2.04479,0.579513 0.98874,-0.225069 1.7458,-1.079815 2.54775,-1.98539 0.25015,-0.282495 0.50823,-0.574232 0.77686,-0.848149 2.73189,-2.796579 6.55219,-3.752972 10.24708,-4.679003 1.6369,-0.410543 3.32857,-0.834291 4.87965,-1.410494 2.35502,-0.877194 5.37799,-3.141127 8.29271,-6.20963 2.72398,-2.869181 3.98135,-5.011664 4.12127,-5.652565 -0.25873,-0.153784 -1.23031,-0.53859 -4.62488,-0.726035 -2.51077,-0.138607 -5.4981,-0.128711 -7.68085,-0.122114 l -25.30583,0.07454 c -5.46774,0.01521 -11.12162,0.03234 -16.37288,1.748444 -4.73708,1.547783 -9.06693,4.537098 -12.19286,8.418118 -1.11217,1.380794 -2.79395,3.467832 -5.05787,2.968847 -1.0818,-0.238284 -1.83622,-1.01382 -2.5022,-1.699596 -0.15577,-0.160392 -0.30296,-0.310887 -0.45212,-0.454774 -3.96948,-3.813687 -10.50054,-2.316069 -13.12419,-1.494984 -1.459347,0.456091 -2.931889,1.023716 -4.356249,1.572877 -3.136497,1.209843 -6.38058,2.459956 -9.831254,2.681725 -3.496877,0.223088 -6.996394,-0.621752 -10.380404,-1.438221 -4.536437,-1.09302 -8.82074,-2.127296 -12.93013,-0.71284 -2.724634,0.937909 -4.999783,2.870499 -7.199687,4.737748 -1.570229,1.335256 -3.640765,2.919999 -5.642658,4.452607 -2.8507,2.182752 -7.025436,5.377985 -7.936946,6.687505 0.700958,0.04755 2.405835,-0.114852 5.661798,-0.969599 3.024292,-0.794021 6.36672,-1.924664 8.51514,-2.883039 2.853341,-1.268598 5.859811,-1.931273 8.462338,-1.869895 3.274444,0.07925 5.791825,1.312819 7.28021,3.566846 1.733918,2.623646 1.725337,6.364741 -0.0231,10.25962 -0.632317,1.407194 -1.41644,2.745749 -2.175483,4.040083 -0.88841,1.517432 -1.807182,3.085682 -2.445439,4.721254 -2.696252,6.910582 -0.550471,14.66867 2.088359,22.67492 0.455425,1.38013 0.951113,2.06526 1.561649,2.15635 0.349158,0.0515 0.584132,-0.0462 0.786763,-0.3287 0.557732,-0.77753 0.53727,-2.5154 -0.04224,-3.64671 -0.796006,-1.55175 -2.660612,-5.18592 -0.211212,-6.93765 0.274575,-0.1967 0.645515,-0.18812 0.91151,0.0198 2.756975,2.16162 3.36685,5.63737 3.956924,8.99894 0.508228,2.89558 0.988735,5.63012 2.711433,7.59902 1.989352,2.27251 5.464447,3.29952 8.825357,4.29288 4.169454,1.23229 8.480158,2.50682 10.310441,6.20633 l 0.0924,0.18745 c 0.398001,0.80855 0.773562,1.57154 1.37221,2.08571 0.64684,0.55576 1.46529,0.78479 2.0844,0.58348 0.13861,-0.0449 0.28844,-0.11617 0.44751,-0.19207 0.27061,-0.12871 0.57753,-0.27458 0.93791,-0.34454 0.15247,-0.029 0.30362,-0.0436 0.45147,-0.0436 z m 36.67035,87.57704 c -0.01,0 -0.0205,0 -0.0311,-0.002 -3.35562,-0.13464 -6.54229,-1.14385 -9.33424,-2.53785 -1.86329,1.59863 -4.37143,2.53983 -6.95613,2.53983 H 36 v -0.52073 l 56.84934,-1 c 2.01478,-0.0354 3.97013,-0.65938 5.50141,-1.79992 -4.15031,-2.38075 -7.23269,-5.4981 -8.3838,-7.47822 -2.23488,-3.84406 -3.23813,-8.15476 -3.86253,-11.47805 -1.04748,-5.57599 -1.50621,-11.21138 -1.95767,-17.46789 -0.29306,-4.06384 -0.59602,-8.26431 -2.19595,-11.96844 -1.21182,-2.80319 -3.14903,-5.28229 -5.02222,-7.67954 l -4.80045,-6.14363 c -0.90557,-1.15902 -2.03225,-2.6012 -2.32267,-4.3404 -0.37688,-2.25799 0.70624,-4.41037 1.93325,-6.39972 l 0.10561,-0.17095 c 1.0257,-1.66131 2.08704,-3.37939 2.05272,-5.18723 -0.007,-0.33861 0.005,-0.69041 0.0152,-1.03098 0.0231,-0.74915 0.0475,-1.52403 -0.1155,-2.15371 -0.17558,-0.67587 -0.83693,-1.3425 -1.45803,-1.22106 -0.17161,0.0336 -0.36764,0.12673 -0.57489,0.22507 -0.18679,0.0885 -0.398,0.18943 -0.62968,0.26468 -1.12998,0.36764 -2.489,0.0323 -3.545714,-0.87588 -0.834948,-0.71679 -1.298295,-1.65801 -1.745799,-2.5682 l -0.09109,-0.18415 c -1.535245,-3.10415 -5.344981,-4.23018 -9.377809,-5.4222 -3.569482,-1.05474 -7.259749,-2.14578 -9.538857,-4.75029 -2.003213,-2.28835 -2.543123,-5.36346 -3.065214,-8.33759 -0.520108,-2.9629 -1.013817,-5.77467 -2.879081,-7.60891 -0.576873,1.03229 0.195371,2.86127 1.072561,4.57141 0.844848,1.6468 0.811185,3.99191 -0.07525,5.22684 -0.535291,0.7465 -1.331957,1.08312 -2.246107,0.9465 -1.821703,-0.27128 -2.519363,-2.38802 -2.782059,-3.18469 -2.729253,-8.2795 -4.941036,-16.322721 -2.060635,-23.705234 0.681819,-1.745799 1.631612,-3.367513 2.549723,-4.935763 0.738582,-1.258691 1.501585,-2.561604 2.100239,-3.894879 0.724061,-1.613124 2.188024,-5.699421 0.141248,-8.798297 -2.577446,-3.902794 -8.815458,-3.387305 -13.85484,-1.143839 -2.292971,1.021071 -5.82219,2.208477 -8.991027,3.026264 -5.906014,1.524029 -6.756142,0.829674 -7.076919,0.569616 -0.3353,-0.273916 -0.478529,-0.693037 -0.384803,-1.123382 0.318138,-1.450099 3.501499,-3.949007 8.66959,-7.906592 1.98737,-1.520719 4.042067,-3.093585 5.583253,-4.403106 2.199906,-1.868566 4.692866,-3.985966 7.689435,-5.016944 4.528515,-1.55769 9.2326,-0.423737 13.780917,0.672582 3.274445,0.790722 6.661096,1.607191 9.926959,1.397299 3.218343,-0.203949 6.211611,-1.359675 9.381769,-2.581407 1.446141,-0.557728 2.942446,-1.133942 4.44865,-1.60521 2.88173,-0.902266 10.0768,-2.526625 14.6317,1.850081 0.16832,0.160392 0.33135,0.329362 0.48909,0.491735 0.56697,0.582811 1.10293,1.135259 1.73854,1.273867 1.24153,0.273916 2.3867,-0.996653 3.54704,-2.436191 3.30811,-4.108081 7.89141,-7.272951 12.90439,-8.911823 5.47897,-1.789366 11.25562,-1.806523 16.84085,-1.823027 h 0.0726 l 25.23258,-0.07454 c 8.57718,-0.02838 12.81264,0.206594 13.67266,1.611807 0.21979,0.360388 0.22838,0.821749 0.0238,1.411168 -0.97819,2.832211 -7.88547,10.627912 -13.26874,12.632451 -1.63094,0.606566 -3.3642,1.040874 -5.04071,1.461323 -3.65,0.914143 -7.09738,1.77946 -9.52895,4.26648 -0.2429,0.248169 -0.47722,0.513507 -0.72605,0.794021 -0.88247,0.997316 -1.88309,2.125978 -3.34837,2.46062 -1.21446,0.276551 -2.38603,-0.0422 -3.38665,-0.921416 -1.49631,-1.316117 -2.39329,-3.766167 -2.18275,-5.959468 0.10689,-1.110188 0.36567,-2.205189 0.61582,-3.264547 0.43826,-1.85141 0.85145,-3.602488 0.46401,-5.296805 -0.3188,-1.394 -1.29565,-2.649382 -2.67976,-3.445395 -1.38475,-0.796002 -2.96158,-1.007212 -4.32587,-0.582811 -1.36496,0.427047 -2.54115,1.498283 -3.22693,2.939813 -0.68577,1.442837 -0.77488,3.031543 -0.24421,4.357557 0.14851,0.372265 0.33992,0.741885 0.54321,1.135924 0.52407,1.01382 1.11744,2.162285 0.93395,3.460582 -0.32804,2.314751 -2.96819,3.549677 -5.23079,3.250678 -1.43822,-0.189426 -2.71803,-0.811178 -3.9556,-1.411157 -0.48778,-0.236293 -0.99204,-0.481164 -1.48707,-0.687758 -4.53446,-1.896947 -10.17778,-1.131961 -14.04361,1.902881 -2.09892,1.64746 -3.29161,3.71205 -3.27181,5.663779 0.0112,1.143849 0.59272,2.331919 1.51677,3.100857 0.71614,0.596017 1.54251,0.848149 2.32729,0.711523 1.51808,-0.265338 2.489,-1.673196 3.51668,-3.163553 0.84352,-1.223049 1.71544,-2.48702 2.98535,-3.310097 2.08439,-1.348451 5.09285,-1.245486 7.66435,0.262039 2.23027,1.30952 3.88431,3.387968 5.34366,5.222873 1.3412,1.686402 3.01043,3.784653 3.26454,6.334379 0.15247,1.532608 -0.41186,3.176759 -1.47122,4.292227 -0.83297,0.875202 -1.89629,1.327995 -2.99194,1.273867 -1.22438,-0.05944 -2.20388,-0.679179 -3.15103,-1.280475 -0.52406,-0.331332 -1.01975,-0.645518 -1.53459,-0.852101 -0.72207,-0.288439 -1.74843,-0.01317 -2.18339,0.424401 -0.24355,0.246852 -0.21254,0.435625 -0.14983,0.588091 0.1155,0.280514 0.46664,0.518787 0.83759,0.772248 0.51812,0.351135 1.10424,0.748482 1.39267,1.456042 0.23432,0.578185 0.21584,1.176183 -0.0541,1.73193 -0.67521,1.392683 -2.70219,2.06988 -3.30745,2.24413 -9.17451,2.648075 -16.98144,9.430612 -20.88291,18.145752 -1.58673,3.54308 -3.34243,3.86055 -4.53578,3.50414 -1.30357,-0.39074 -1.83688,-1.58806 -2.30683,-2.64412 -0.18349,-0.41252 -0.35708,-0.80194 -0.56367,-1.12866 -1.07586,-1.69893 -3.564204,-1.99859 -5.359506,-1.41842 -2.090337,0.67588 -3.845375,2.31872 -5.393823,3.76815 -1.261332,1.18081 -2.831559,2.65071 -3.244083,4.45855 -0.205931,0.9036 0.04489,2.00519 0.623736,2.74114 0.281175,0.35709 0.761682,0.78478 1.456702,0.79403 h 0.02508 c 0.929992,0 1.827642,-0.67985 2.777436,-1.39928 1.250771,-0.94715 2.667871,-2.02103 4.370766,-1.43624 1.719399,0.59072 2.397255,2.62233 2.059316,4.24404 -0.18811,0.9049 -0.622414,1.71213 -1.116121,2.42828 0.108905,0.0297 0.218471,0.0653 0.328037,0.10824 1.174207,0.45476 2.23554,1.61775 2.70219,2.96224 0.21517,0.61912 0.3551,1.25737 0.49041,1.87451 0.23827,1.08906 0.46334,2.1174 1.06332,2.90021 1.21248,1.58144 3.67244,1.68573 5.41032,1.29499 1.01843,-0.22904 1.99397,-0.59469 3.02694,-0.98148 1.08839,-0.40724 2.21442,-0.829 3.3972,-1.07784 6.2994,-1.32404 12.85686,2.11013 20.04599,10.50119 l 0.29438,0.34388 c 2.05338,2.40056 4.17606,4.8823 6.95877,6.18191 1.56693,0.73198 3.26719,1.0653 5.06777,1.41842 1.58672,0.31088 3.22692,0.63165 4.77867,1.25209 2.25864,0.90293 4.21895,2.81836 4.99384,4.87965 0.54123,1.43822 0.48908,2.86325 -0.15181,4.12128 -0.53001,1.04153 -1.37486,1.7887 -2.19132,2.51144 -0.71482,0.63297 -1.39004,1.2303 -1.79926,1.97417 -0.67985,1.23295 -0.57753,2.73256 -0.46995,4.32061 0.0753,1.10689 0.15313,2.25073 -0.029,3.37807 -0.53726,3.31668 -3.58597,6.06244 -6.94161,6.2479 -0.0706,0.004 -0.14124,-0.002 -0.21054,-0.0166 -1.07191,-0.24487 -2.41112,0.63693 -2.75632,1.81114 -0.22112,0.75179 -0.27458,1.5544 -0.33068,2.40452 -0.0482,0.71614 -0.097,1.45801 -0.25345,2.1966 -0.53068,2.50418 -2.17021,4.51993 -3.61701,6.2994 l -5.91921,7.27888 c -1.09368,1.34516 -2.22499,2.73586 -2.92924,4.30213 -1.80983,4.02622 -0.35378,9.29861 3.24341,11.84832 0.97554,0.20594 1.45935,1.49037 1.49235,2.42433 0.0317,0.92602 -0.45081,1.71345 -0.81713,2.22365 -0.12012,0.16897 -0.24619,0.33333 -0.37753,0.49173 2.53189,1.20326 5.35553,2.0547 8.24583,2.17483 h 39.08544 c 19.99054,0 40.69459,-22.5746 53.40295,-43.69909 0.77884,-1.29565 1.40918,-2.73057 2.01707,-4.11796 0.76037,-1.73194 1.54647,-3.52264 2.65137,-5.13643 1.0983,-1.60124 2.70483,-3.20909 4.62291,-4.19321 -1.20787,-2.31475 -2.43819,-4.70937 -2.79129,-7.29143 -0.50691,-3.71138 0.83955,-7.84256 4.00112,-12.27867 0.81779,-1.14714 1.70357,-2.26723 2.55832,-3.35035 1.70619,-2.15964 3.47046,-4.39255 4.70078,-6.85449 0.44619,-0.88972 0.5254,-2.17086 0.17359,-2.74179 -0.11088,-0.18085 -0.24487,-0.25477 -0.4607,-0.25477 -0.38547,0 -0.72011,0.34585 -1.22371,0.91547 -0.36304,0.40988 -0.77556,0.8752 -1.31083,1.18278 -1.6818,0.9663 -3.83944,0.11749 -5.77203,-2.26987 -4.93049,-6.09147 -8.61085,-13.31294 -10.64046,-20.88358 -0.0792,-0.29965 0.0303,-0.61845 0.27919,-0.80524 0.24817,-0.18613 0.58413,-0.20263 0.84946,-0.0416 4.68429,2.83881 8.02276,7.75807 8.93229,13.1585 0.598,3.54769 1.91081,5.59513 3.90478,6.0862 1.42898,0.3518 2.14908,0.0706 3.46388,-0.89897 2.56622,-1.89299 5.05523,-3.94703 7.40231,-6.10469 1.07323,-0.98675 2.05998,-2.06393 2.00916,-3.25068 -0.0594,-1.3841 -1.59202,-2.44016 -3.08567,-2.87314 -0.54718,-0.15907 -1.11019,-0.27392 -1.70488,-0.39602 -1.24021,-0.25346 -2.52398,-0.51615 -3.6784,-1.20457 -1.14515,-0.68248 -2.01244,-1.94381 -2.21177,-3.21504 -0.14851,-0.95442 0.091,-1.84679 0.67918,-2.51343 0.2673,-0.30163 0.7214,-0.34387 1.03956,-0.0958 2.8771,2.25073 6.31259,3.70347 9.93158,4.20114 0.87057,0.11947 1.77945,0.18746 2.65797,0.2528 1.96361,0.14653 3.99455,0.29768 5.9093,1.02899 3.36883,1.28774 6.15353,4.24866 8.27226,8.80028 0.73,1.56891 1.34383,3.20514 1.93655,4.78792 0.76365,2.03489 1.55306,4.13843 2.58338,6.06309 0.32473,0.6079 0.69832,1.19929 1.20985,1.40258 0.33991,0.13399 0.64419,0.11287 0.96167,-0.0653 0.92735,-0.52275 1.64218,-2.15502 1.86857,-3.49754 l 0.0336,-0.19537 c 0.58348,-3.46123 1.24548,-7.38383 3.79522,-10.11903 1.57485,-1.69102 4.09948,-2.61309 6.42941,-2.34841 1.78078,0.20197 3.20712,1.08246 4.01302,2.47844 0.37359,0.64618 0.68117,1.56957 1.00525,2.54774 0.32472,0.98016 0.68974,2.07846 1.08642,2.70681 0.23695,-0.22837 0.56762,-0.68446 0.74715,-0.93065 0.53069,-0.73264 0.95112,-1.31017 1.61843,-1.18344 0.17424,0.033 0.59469,0.17622 0.74846,0.78016 0.0574,0.22111 0.0997,0.56829 0.16239,1.09368 0.3485,2.87314 1.27253,10.50582 6.84325,15.89634 2.44875,2.37085 3.89686,5.4057 4.42358,9.2788 0.0357,0.26269 0.066,0.52736 0.095,0.7927 0.10432,0.93396 0.20264,1.81642 0.56896,2.57151 0.73659,1.52139 2.5484,2.52267 5.38325,2.97545 3.89158,0.6211 7.67293,0.3419 10.93748,-0.80723 3.62492,-1.27585 6.62018,-3.6269 8.43528,-6.61951 0.0931,-0.15511 0.18414,-0.31285 0.27721,-0.47126 0.18217,-0.31221 0.36632,-0.62836 0.56896,-0.93396 -0.0674,-0.0205 -0.13663,-0.0382 -0.20726,-0.0541 l 0.32738,-1.48508 c 0.34455,0.0759 0.65541,0.18547 0.93989,0.32143 0.0759,-0.0628 0.15379,-0.12342 0.2363,-0.18216 0.70095,-0.49833 1.64546,-0.697 2.46721,-0.51814 0.65674,0.14323 1.1894,0.51879 1.50158,1.05805 0.25743,0.44552 0.32146,0.9115 0.37689,1.32271 0.0238,0.16434 0.0455,0.31945 0.0759,0.45873 0.0627,0.26665 0.21519,0.45344 0.2759,0.4739 0.0977,-0.0455 0.29042,-0.42044 0.39339,-0.62242 0.0997,-0.198 0.20461,-0.40261 0.33463,-0.59798 0.65741,-0.98941 1.97219,-1.49697 3.34573,-1.29302 1.1234,0.16699 2.09363,0.72934 2.95038,1.22503 l 5.18062,3.00053 c 0.94452,0.54585 2.23687,1.29499 2.76885,2.64081 0.18614,0.46994 0.26401,0.94583 0.33464,1.36627 0.0983,0.59139 0.17424,1.05871 0.48513,1.39598 0.26864,0.29306 0.64552,0.56301 1.01052,0.82439 0.0897,0.064 0.17888,0.12804 0.26666,0.19273 0.79797,0.58281 1.26264,1.69564 0.65936,2.54907 -0.6488,0.91547 -2.15633,0.6125 -2.81835,0.18612 -0.68644,-0.44288 -1.0917,-0.95045 -1.4501,-1.39796 -0.3155,-0.39337 -0.5881,-0.73396 -1.0356,-1.04549 -0.98015,-0.67918 -1.72864,-0.90096 -2.42828,-0.7168 -0.21121,0.0561 -0.42374,0.11682 -0.63693,0.17821 -0.93792,0.26995 -1.90751,0.54849 -2.95828,0.4343 -0.87719,-0.0964 -1.74713,-0.57291 -2.27318,-1.24417 -0.42375,-0.54255 -0.60328,-1.16364 -0.51879,-1.7953 0.0271,-0.19735 0.0766,-0.3749 0.12014,-0.53199 0.0442,-0.15775 0.0897,-0.32078 0.0799,-0.4112 -0.0192,-0.17756 -0.36169,-0.37293 -0.70292,-0.40263 -0.18614,-0.0159 -0.53596,-0.0152 -0.90624,-0.0138 -0.84089,0.002 -1.79595,0.006 -2.44808,-0.14587 -1.81313,-0.42309 -2.67644,-1.76296 -3.4388,-2.94508 -0.33594,-0.52342 -0.6521,-1.01118 -1.02569,-1.40655 -0.18547,0.2759 -0.35973,0.5749 -0.53728,0.88115 -0.0964,0.16567 -0.19404,0.33134 -0.29172,0.49372 -1.99595,3.29226 -5.27371,5.873 -9.2293,7.26634 -3.50283,1.23295 -7.5429,1.53525 -11.68265,0.87389 -3.35564,-0.53595 -5.54763,-1.81906 -6.51194,-3.81436 -0.47984,-0.99005 -0.59866,-2.04478 -0.71151,-3.06455 -0.029,-0.25345 -0.0574,-0.50691 -0.0911,-0.75706 -0.47983,-3.52196 -1.77946,-6.26706 -3.97407,-8.39105 -5.79118,-5.60504 -6.87034,-13.34133 -7.2624,-16.54251 -0.53924,0.73066 -1.10886,1.41512 -1.86064,1.42832 -0.39337,0.002 -0.74321,-0.17492 -1.00722,-0.51153 -0.60986,-0.78214 -1.04219,-2.0877 -1.46132,-3.35101 -0.28711,-0.86267 -0.58281,-1.75438 -0.8785,-2.26591 -0.71812,-1.24086 -1.95503,-1.62501 -2.86788,-1.72863 -1.83952,-0.20858 -3.90807,0.54452 -5.14629,1.87384 -2.23754,2.40188 -2.83223,5.92647 -3.40845,9.33556 l -0.0317,0.19537 c -0.28908,1.70093 -1.20983,3.77344 -2.62298,4.56944 -0.71812,0.40461 -1.50159,0.45741 -2.26724,0.15445 -0.96828,-0.38414 -1.5293,-1.23559 -1.99197,-2.09891 -1.07852,-2.01312 -1.88442,-4.1655 -2.66459,-6.24726 -0.58347,-1.55504 -1.18673,-3.16355 -1.89298,-4.679 -1.94644,-4.18134 -4.44864,-6.88023 -7.43795,-8.02209 -1.70489,-0.65146 -3.5378,-0.78809 -5.47766,-0.93264 -0.90226,-0.0674 -1.8349,-0.13729 -2.75104,-0.26335 -3.58729,-0.49239 -7.00365,-1.85933 -9.93884,-3.96617 -0.037,0.1934 -0.0389,0.40461 -0.003,0.63298 0.13002,0.82967 0.72803,1.69102 1.48707,2.1438 0.93395,0.55641 2.03754,0.78214 3.20712,1.02108 0.59799,0.12277 1.21645,0.2495 1.82302,0.42506 1.86725,0.54189 4.08233,1.98473 4.18002,4.26847 0.0779,1.81245 -1.21976,3.25925 -2.49891,4.43545 -2.38604,2.19461 -4.91858,4.28363 -7.52905,6.20896 -1.56163,1.15177 -2.72198,1.64613 -4.73115,1.15177 -2.63617,-0.64947 -4.33247,-3.10878 -5.03871,-7.30992 -0.72142,-4.28165 -3.10085,-8.23396 -6.50202,-10.91701 2.05997,6.61952 5.409,12.90175 9.76327,18.27974 0.3782,0.46795 2.3451,2.76159 3.83217,1.9075 0.31945,-0.18349 0.61515,-0.51813 0.92933,-0.87256 0.56235,-0.63563 1.26398,-1.42767 2.36228,-1.42767 0.74319,6.8e-4 1.36496,0.34718 1.75371,0.97619 0.71945,1.16497 0.48314,3.0441 -0.10624,4.22161 -1.3016,2.6012 -3.11405,4.89681 -4.86646,7.11652 -0.84484,1.06859 -1.71873,2.17416 -2.51407,3.29094 -2.93058,4.11006 -4.18729,7.87491 -3.73318,11.18961 0.32276,2.36425 1.52601,4.67637 2.69361,6.91257 1.0323,-0.32804 2.12928,-0.4607 3.26785,-0.32078 3.34771,0.41384 6.24527,3.38467 6.74029,6.9119 0.45478,3.24408 -1.03559,6.75681 -3.79982,8.94681 -1.31348,1.04089 -3.3728,1.81973 -4.86184,0.59668 -1.59135,-1.30952 -0.97817,-3.42824 -0.48644,-5.13179 0.0931,-0.32409 0.18282,-0.63035 0.25543,-0.92273 0.68578,-2.75765 -0.42771,-5.40175 -1.82831,-8.14948 -1.66923,0.85277 -3.08898,2.28373 -4.06385,3.70743 -1.02569,1.49563 -1.7491,3.1431 -2.51408,4.88824 -0.62902,1.43095 -1.27783,2.91141 -2.1075,4.29023 -7.01553,11.66087 -15.56829,22.30068 -24.08475,29.95975 -10.67874,9.60619 -20.98061,14.47594 -30.62045,14.47594 h -39.10118"
     id="path92"
     style="stroke-width:0.16897"
     sodipodi:nodetypes="scccccccscccccccccccccsccsccccccssccccccccccccccccccccccccccccccccsccccccccccccccccccscccccccccccccccccccccccccccccccccscccccccccccccccscccccccccscsccccccccccccccccccscccccccccccccccccsccsccccccccccccccccccsccsccccccccccccccccccccccccccccccccccccccccccccccccccccccccccccccccccccccccccccscccccccccccccccccccccccccccccccccccscccccccccsccccccccccccccccccccccccccccccsccccccsccccccccccccccccccccccccccccccccccccscccccccccccccccccccccccccccccccccccccsccccscccccccccccccccccccsc" />
  <path
     fill-rule="nonzero"
     fill="#2d2d2d"
     fill-opacity="1"
     d="m 301.52077,120.59366 c 1.17749,0.007 2.5781,-0.0185 3.58532,-0.67125 1.08115,-0.70228 1.68442,-2.21312 1.46462,-3.67311 -0.20065,-1.34187 -1.01845,-2.67448 -2.3009,-3.75232 -0.2924,-0.24487 -0.60524,-0.4805 -0.93659,-0.73066 -1.23493,-0.93461 -2.63749,-1.99331 -2.96355,-3.69818 -0.12015,-0.62177 -0.0693,-1.21249 -0.0198,-1.78409 0.0111,-0.12673 0.0217,-0.25345 0.0303,-0.37951 0.0336,-0.47127 0.0382,-1.06531 -0.2066,-1.47915 -0.16038,-0.27128 -0.5102,-0.45146 -0.70426,-0.36236 -0.23365,0.10689 -0.37161,0.58017 -0.34321,1.17817 0.0561,1.14516 0.39008,2.27383 0.97025,3.26322 0.23761,0.40526 0.51682,0.79138 0.8125,1.19994 0.42902,0.59404 0.87323,1.20853 1.20326,1.91544 0.71283,1.52534 0.77685,3.21899 0.83097,4.71333 0.0357,0.92933 0.0832,2.20253 -0.54386,3.25793 -0.23696,0.39999 -0.54057,0.72604 -0.87851,1.0026 z m -13.74594,4.2447 c -0.006,0 -0.0118,6.7e-4 -0.0171,0.001 -0.0118,0.01 -0.0706,0.0918 -0.0845,0.21122 -0.0271,0.22968 0.0594,0.52868 0.14389,0.81778 l 0.96167,3.31273 c 0.15511,0.53595 0.3188,1.03494 0.63034,1.25077 0.21583,0.1518 0.56235,0.20329 0.92933,0.25807 0.17557,0.0265 0.35643,0.0534 0.54189,0.0931 0.69107,0.14785 1.29962,0.44355 1.88574,0.72934 0.2805,0.13596 0.54452,0.26467 0.81317,0.3749 0.48115,0.19867 1.38343,0.4772 2.01046,0.10956 0.58281,-0.34322 0.7927,-1.12008 1.03559,-2.01971 0.24158,-0.89632 0.51747,-1.91146 1.26597,-2.64477 0.0508,-0.0495 0.10292,-0.097 0.15708,-0.14257 -0.41384,-0.71019 -0.6541,-1.16562 -0.66268,-1.18278 -0.95441,-2.02962 -0.56564,-3.80973 0.38876,-4.82883 -0.0745,-0.066 -0.14719,-0.13598 -0.21782,-0.21121 -0.21121,-0.22508 -0.37489,-0.47259 -0.51878,-0.69041 -0.16766,-0.25213 -0.31087,-0.46928 -0.47984,-0.59601 -0.53069,-0.39404 -1.49696,0.0561 -2.06658,0.72274 -0.37821,0.44289 -0.68446,0.95705 -1.00721,1.50159 -0.30231,0.50822 -0.61517,1.03427 -1.00195,1.52402 -0.83099,1.04814 -2.37086,2.1075 -3.96879,1.64284 -0.12542,-0.0363 -0.23829,-0.0779 -0.34851,-0.11815 -0.11946,-0.0442 -0.31418,-0.11551 -0.39008,-0.11551 z m 16.91212,16.69564 c -0.77751,0 -1.60321,-0.19207 -2.40979,-0.57621 -0.8818,-0.41912 -1.64745,-0.9927 -2.38735,-1.54713 -0.33265,-0.2495 -0.64684,-0.48513 -0.97158,-0.70888 -2.66259,-1.83029 -6.03734,-2.71341 -9.25437,-2.42431 l -0.13664,-1.51413 c 3.56488,-0.32144 7.30067,0.65805 10.25106,2.68503 0.35178,0.24157 0.69302,0.49767 1.02437,0.74518 0.71085,0.53331 1.38344,1.03693 2.12729,1.39071 0.87653,0.41714 2.13391,0.66134 3.03815,0.0964 0.4759,-0.29768 0.81581,-0.8059 0.91019,-1.35902 0.0951,-0.55377 -0.0574,-1.14648 -0.40856,-1.58475 -0.31417,-0.39272 -0.78939,-0.68709 -1.293,-0.99863 -0.0845,-0.0522 -0.16897,-0.10432 -0.25148,-0.15643 -2.29826,-1.4468 -4.62291,-4.73577 -6.07102,-7.05382 -0.38348,0.44882 -0.56631,1.12866 -0.76038,1.84547 -0.28711,1.06727 -0.61514,2.27712 -1.73391,2.93452 -0.89699,0.52737 -2.05932,0.52209 -3.36025,-0.0138 -0.31154,-0.1287 -0.61053,-0.27391 -0.89765,-0.41384 -0.52868,-0.25741 -1.029,-0.5003 -1.54118,-0.60987 -0.13795,-0.0297 -0.28843,-0.0522 -0.44752,-0.0759 -0.5003,-0.0745 -1.06594,-0.15972 -1.57616,-0.51482 -0.77554,-0.5419 -1.04287,-1.46397 -1.2204,-2.07451 l -0.9597,-3.31272 c -0.11485,-0.39272 -0.25677,-0.88181 -0.19406,-1.41578 0.0825,-0.72736 0.56435,-1.33195 1.19601,-1.50423 0.52405,-0.1419 0.99003,0.029 1.32996,0.1538 0.0825,0.0303 0.16566,0.0614 0.24817,0.0858 0.81978,0.23828 1.77286,-0.3947 2.35238,-1.12734 0.32606,-0.40989 0.59798,-0.86927 0.88709,-1.35573 0.34124,-0.57621 0.69634,-1.17156 1.15903,-1.71345 1.01909,-1.19269 2.81307,-1.93324 4.12985,-0.95441 0.38347,0.28579 0.62637,0.65344 0.84087,0.97751 0.12015,0.18416 0.235,0.35708 0.35841,0.48711 0.13334,0.14323 0.2957,0.25478 0.47854,0.34322 0.002,-6.8e-4 0.003,-0.001 0.003,-0.002 0.80392,-0.41649 1.56429,-0.80921 1.94447,-1.45143 0.3683,-0.62175 0.37027,-1.43162 0.33332,-2.4263 -0.0528,-1.41578 -0.10699,-2.87974 -0.68975,-4.12523 -0.26994,-0.57622 -0.65409,-1.10688 -1.05936,-1.66924 -0.30229,-0.41912 -0.61646,-0.85343 -0.89037,-1.32205 -0.70296,-1.19995 -1.1102,-2.56886 -1.17752,-3.95824 -0.0628,-1.28971 0.38678,-2.25007 1.23163,-2.63487 1.02041,-0.46467 2.14578,0.12937 2.64411,0.97157 0.45806,0.77423 0.46137,1.6666 0.41384,2.35766 -0.007,0.13531 -0.0198,0.26995 -0.0317,0.40526 -0.0422,0.49041 -0.0812,0.9531 -0.002,1.3676 0.2165,1.13064 1.27057,1.92731 2.38802,2.77083 0.33069,0.25082 0.6739,0.51021 0.99666,0.78017 1.56627,1.31611 2.57019,2.98205 2.82693,4.69089 0.31089,2.06261 -0.55113,4.14173 -2.14248,5.17469 -1.4468,0.93922 -3.20909,0.92536 -4.62817,0.9148 -0.6607,-0.005 -1.36562,-0.033 -2.02633,-0.1947 -0.0152,0.009 -0.0317,0.0171 -0.0468,0.0257 -0.6607,0.36897 -1.32997,1.58409 -0.46796,3.4157 0.0772,0.16369 0.29702,0.57357 0.62637,1.13659 0.84354,-0.233 1.7557,-0.21056 2.54511,-0.14257 3.06851,0.26269 6.0829,0.95573 8.95868,2.05865 l -0.54586,1.41974 c -2.74244,-1.0521 -5.61624,-1.7128 -8.54153,-1.96361 -0.50031,-0.0429 -1.06069,-0.0667 -1.57617,0.005 1.394,2.19858 3.54309,5.18591 5.50471,6.42084 0.0812,0.0501 0.16237,0.10035 0.24158,0.15048 0.56433,0.34917 1.20323,0.74387 1.68177,1.34187 0.61647,0.77223 0.88709,1.8151 0.71945,2.78931 -0.16569,0.97487 -0.76566,1.86989 -1.60324,2.39329 -0.60195,0.37623 -1.32007,0.56434 -2.08705,0.56434"
     id="path93"
     style="stroke-width:0.16897" />
</svg>
