<?xml version="1.0" encoding="UTF-8" standalone="no"?>
<svg
   width="10cm"
   height="9.8735628cm"
   viewBox="0 0 377.95276 373.17403"
   version="1.1"
   id="svg1"
   sodipodi:docname="vecteezy_dog.svg"
   inkscape:version="1.3.2 (091e20e, 2023-11-25)"
   xmlns:inkscape="http://www.inkscape.org/namespaces/inkscape"
   xmlns:sodipodi="http://sodipodi.sourceforge.net/DTD/sodipodi-0.dtd"
   xmlns="http://www.w3.org/2000/svg"
   xmlns:svg="http://www.w3.org/2000/svg">
  <sodipodi:namedview
     id="namedview1"
     pagecolor="#ffffff"
     bordercolor="#000000"
     borderopacity="0.25"
     inkscape:showpageshadow="2"
     inkscape:pageopacity="0.0"
     inkscape:pagecheckerboard="0"
     inkscape:deskcolor="#d1d1d1"
     inkscape:zoom="1"
     inkscape:cx="147"
     inkscape:cy="153"
     inkscape:window-width="1920"
     inkscape:window-height="1052"
     inkscape:window-x="0"
     inkscape:window-y="0"
     inkscape:window-maximized="0"
     inkscape:current-layer="svg1"
     inkscape:document-units="cm" />
  <defs
     id="defs1" />
  <path
     fill-rule="nonzero"
     fill="#000000"
     fill-opacity="1"
     d="m 242.05046,337.03028 c -18.34736,-4.72686 -31.25566,-36.86779 -37.47734,-93.31475 -1.42214,-12.9053 -0.7519,-11.80161 -9.25516,-15.22658 -10.38958,-4.18438 -34.11454,-11.57795 -35.461,-11.05045 -1.21797,0.47655 -10.87212,15.79903 -13.47627,21.3887 -4.14016,8.88726 -5.52222,16.59141 -4.28215,23.85946 1.29851,7.60186 3.94461,11.31157 9.17348,12.86222 5.69344,1.68776 8.31931,7.79218 5.34503,12.42276 -1.36183,2.11898 -5.82719,3.93112 -10.60837,4.30501 -7.36471,0.57621 -13.51147,-1.88033 -18.14767,-7.25194 -2.47451,-2.86715 -5.73915,-9.58598 -7.0148,-14.43647 -2.23549,-8.50438 -3.04322,-24.19814 -1.86272,-36.2028 0.69459,-7.06538 0.84219,-7.54492 2.26246,-7.33887 1.29289,0.18808 1.2337,-1.42401 0.59007,16.00921 -0.90739,24.5784 3.91576,39.48692 14.38813,44.4734 2.59814,1.23708 3.70108,1.43489 8.01509,1.43825 5.62676,0.004 8.61153,-1.05236 9.94676,-3.52088 1.37906,-2.54906 -0.44621,-6.05235 -3.48268,-6.68437 -2.92333,-0.60842 -6.11416,-2.67082 -7.85587,-5.0764 -3.4527,-4.76769 -4.97937,-12.98735 -3.92063,-21.10285 1.16513,-8.93034 4.15965,-15.94627 11.93872,-27.97228 2.81019,-4.34398 4.97862,-8.02858 4.82127,-8.18968 -1.09995,-1.12205 -18.66467,-4.28628 -26.71911,-4.81265 -5.96355,-0.39038 -7.87497,-1.12993 -7.93529,-3.07094 -0.0202,-0.65787 -0.21579,-1.66304 -0.43571,-2.23399 -0.33831,-0.88228 -0.83059,-0.44283 -3.3036,2.95405 -4.00979,5.50799 -8.67184,10.22286 -19.129977,19.34577 -11.032837,9.62531 -15.976241,15.00667 -18.421905,20.0561 -2.417941,4.99248 -8.438442,20.88105 -9.509544,25.09653 -0.515133,2.02794 -1.022398,7.42279 -1.301132,13.83666 -0.814847,18.76583 -2.210014,21.59663 -11.406356,23.14277 -5.267844,0.88566 -14.428596,-1.2307 -17.017372,-3.93112 -4.04726,-4.22184 -3.377775,-15.26929 1.519173,-25.07967 3.99556,-8.00348 6.316842,-16.15682 9.758305,-34.27414 2.703044,-14.23004 3.837086,-22.96258 4.755335,-36.61791 1.295886,-19.27571 2.105488,-24.73013 5.071156,-34.152 0.921245,-2.92821 3.034977,-10.88074 4.696889,-17.67525 2.197277,-8.98167 4.114696,-15.24456 7.025665,-22.94796 2.202148,-5.82718 4.146915,-11.17708 4.321873,-11.88777 0.437582,-1.77917 -0.904762,-4.25257 -6.451713,-11.8889 C 59.37829,96.002352 58.6616,94.237413 57.900701,79.520343 57.376577,69.37803 56.871559,66.431843 54.966129,62.395823 53.146867,58.542253 47.695073,50.956873 42.093423,44.484929 38.023311,39.78242 34.874442,36.755686 23.961864,27.051704 22.337791,25.608207 22.336667,25.603337 23.387913,24.562955 25.55297,22.420377 34.56836,19.970967 43.412538,19.122027 c 11.24039,-1.077097 22.125994,0.850813 31.580839,5.593407 14.458191,7.254572 22.953578,18.269428 28.181713,36.544099 5.32591,18.615597 8.11325,22.915365 18.42116,28.414738 6.08231,3.245525 7.99298,3.598439 22.11624,4.08847 10.16181,0.351789 13.75537,0.676229 16.92222,1.522921 12.21971,3.270626 20.05535,11.124628 23.65191,23.708478 1.65929,5.80171 2.01895,19.06779 0.76352,28.08131 -2.38235,17.09942 -9.11616,37.67477 -18.75684,57.31201 -2.53782,5.16932 -4.45112,9.55226 -4.25069,9.74107 0.20044,0.1892 3.52464,1.23071 7.3887,2.31642 8.77,2.46402 23.03937,7.3044 28.66425,9.72421 2.34301,1.00704 4.36683,1.72335 4.4972,1.58923 0.1315,-0.13337 -0.0892,-5.38622 -0.49003,-11.67235 -0.97632,-15.3135 -1.00329,-61.93285 -0.0393,-69.43281 2.59514,-20.20595 3.52837,-25.14711 6.48805,-34.37268 5.28358,-16.470015 13.44366,-28.238275 25.41385,-36.653113 3.32608,-2.338143 3.70409,-2.801575 4.51444,-5.521477 1.63906,-5.499373 4.26605,-9.654155 10.02355,-15.851861 3.62241,-3.899651 7.56328,-8.99516 11.43034,-14.77926 3.24552,-4.854988 7.00318,-10.105973 8.35152,-11.668232 5.82381,-6.747305 17.7468,-12.628439 27.10461,-13.367982 4.70738,-0.37202 8.54372,0.573577 13.5021,3.328321 7.0178,3.9004 8.33729,3.703712 19.34653,-2.872756 13.79957,-8.2432526 17.73444,-8.8310662 22.5722,-3.369907 6.78739,7.662932 3.33468,20.040735 -9.21882,33.040445 -2.54233,2.63336 -4.62272,4.88908 -4.62272,5.013087 0,0.123632 2.55694,0.05657 5.6807,-0.149857 10.39633,-0.687469 14.27874,1.08384 13.53058,6.171856 -1.14228,7.771578 -8.05144,14.242398 -21.58127,20.212696 -3.61641,1.595975 -6.79975,2.901229 -7.07399,2.901229 -1.1539,0 -1.05312,1.317617 0.43833,5.766118 2.03506,6.066206 2.6787,10.293668 2.67944,17.596193 0,6.99082 -0.77214,12.56962 -3.94348,28.46457 -1.51056,7.57114 -2.53895,14.42072 -2.86114,19.06554 -0.76615,11.02384 -5.91373,29.8335 -10.43379,38.13258 -1.04637,1.91892 -3.15448,6.08718 -4.68527,9.26078 -3.6464,7.5614 -5.37275,10.23148 -11.20218,17.32383 -9.40651,11.44382 -15.046,21.50746 -19.00222,33.90962 -5.17981,16.23849 -6.00477,33.51586 -2.37374,49.72251 2.02194,9.02288 3.5074,11.49739 9.32222,15.52405 5.08727,3.52388 6.74618,5.50986 6.74618,8.07653 0,2.90385 -2.24522,5.10488 -6.92339,6.78739 -9.50466,3.41786 -18.5047,2.15195 -23.73245,-3.33806 -3.84045,-4.03227 -8.9311,-15.01004 -11.21005,-24.16967 -1.86909,-7.51494 -2.09162,-12.56774 -1.05499,-23.92277 0.88641,-9.70773 0.80174,-14.54511 -0.31732,-18.13269 -0.51888,-1.66191 -0.6264,-1.7181 -2.742,-1.42401 -4.66992,0.64888 -13.5894,-3.67861 -28.1952,-13.67968 -5.02845,-3.44259 -9.46047,-6.49331 -9.84785,-6.7784 -0.38851,-0.28474 -0.83246,-0.38926 -0.98605,-0.23303 -0.38252,0.39037 1.52591,16.64011 3.14287,26.76143 6.34082,39.68211 15.97961,62.58548 29.10633,69.16046 4.21435,2.10998 9.85271,2.08901 15.00292,-0.0562 3.64002,-1.51617 5.10899,-1.53978 5.10899,-0.0832 0,2.90198 -11.92299,6.022 -17.51077,4.58262 z m 36.99478,-10.22848 c 4.7943,-0.79124 9.40653,-2.97803 9.819,-4.65531 0.39525,-1.60533 -0.14948,-2.19914 -6.43522,-7.01442 -3.97758,-3.04696 -4.94341,-4.09896 -6.28125,-6.84283 -4.01392,-8.23315 -6.31647,-26.00842 -5.04082,-38.91747 2.16731,-21.92893 9.24355,-39.04034 23.21171,-56.12252 6.40563,-7.83489 8.43319,-10.92606 11.88665,-18.12781 1.5941,-3.32196 3.77601,-7.73599 4.85124,-9.80739 1.96912,-3.79886 5.46865,-14.11015 7.45575,-21.97276 1.08572,-4.29378 1.65068,-8.24438 2.65884,-18.56876 0.30196,-3.10054 1.74433,-11.55997 3.20319,-18.79693 4.11358,-20.39777 4.16452,-31.974212 0.18133,-41.449662 -0.7845,-1.867592 -1.45212,-4.22971 -1.48359,-5.250985 l -0.0577,-1.855977 7.37258,-3.26763 c 4.05401,-1.79641 8.89363,-4.098211 10.7541,-5.115739 6.00964,-3.284863 10.96429,-8.796599 11.86118,-13.194899 0.55709,-2.736386 -0.51026,-3.179588 -7.55878,-3.136504 -6.99944,0.04234 -14.0075,1.271911 -17.99219,3.154487 -2.89936,1.369692 -4.17315,1.304505 -4.17315,-0.212797 0,-1.102946 1.36783,-2.436298 3.03161,-2.952929 1.97287,-0.612914 9.09894,-6.337822 13.14545,-10.559665 8.99778,-9.388534 12.91392,-17.704841 11.28834,-23.974104 -0.7875,-3.034601 -3.05858,-6.106667 -5.04868,-6.830851 -2.17217,-0.788247 -7.26506,1.229576 -15.59935,6.182346 -8.91311,5.295942 -10.61136,6.024995 -14.05957,6.033613 -2.20177,0.0049 -3.70296,-0.465307 -7.37146,-2.306672 -5.64324,-2.833045 -8.50512,-3.749045 -11.71506,-3.749045 -3.89291,0 -10.35998,1.907678 -15.79791,4.660175 -6.84509,3.46544 -11.6791,8.4287 -18.90183,19.410961 -3.67149,5.581045 -7.24783,10.200008 -11.11863,14.358537 -4.1855,4.497204 -6.20894,7.155665 -7.59025,9.970727 -1.87883,3.831465 -2.2797,5.306432 -1.43938,5.306432 0.24427,0 1.81739,-0.481415 3.49579,-1.070353 8.85617,-3.108406 22.42796,-3.763281 34.23743,-1.653296 8.71717,1.557388 9.74219,1.942145 9.74219,3.656883 0,1.866468 -5.6968,12.826625 -9.39228,18.068243 -3.9993,5.673957 -9.86021,11.177074 -14.22328,13.353374 -3.20807,1.60047 -3.92625,1.74846 -8.50588,1.7462 -4.38519,-0.002 -5.32779,-0.1772 -7.63746,-1.41839 -1.44799,-0.77851 -3.85356,-2.73152 -5.34389,-4.338731 -4.30352,-4.641067 -6.58509,-10.16629 -7.32463,-17.737435 -0.21281,-2.183789 -0.59644,-3.624288 -0.96471,-3.624288 -0.33568,0 -2.26359,1.330355 -4.28329,2.9578 -14.07081,11.336298 -22.71117,31.053344 -25.78699,58.850294 -0.43908,3.96184 -0.92649,7.77532 -1.08271,8.47366 -0.79013,3.51789 -1.21047,28.56909 -0.73955,44.10625 0.51626,17.02936 1.80315,37.77742 2.40633,38.77209 1.00704,1.66191 17.21369,12.9068 25.29584,17.55012 5.04493,2.89936 11.05344,5.44618 12.84797,5.44618 0.64739,0 1.25169,-0.53237 1.56826,-1.37982 1.4405,-3.86405 5.23937,1.42477 6.34344,8.8322 0.47355,3.18033 0.40649,6.27338 -0.34055,15.68552 -0.88527,11.14898 -0.8864,12.00428 -0.0172,17.44109 0.50239,3.14437 1.63306,7.80717 2.51273,10.36223 1.98448,5.76237 6.42773,14.69533 8.51561,17.12077 1.90881,2.21788 4.98349,3.87979 8.20579,4.43614 3.44633,0.59493 3.63028,0.59418 7.41491,-0.0303 z M 60.862248,306.4445 c 1.205973,-0.54361 2.442292,-1.46373 2.747251,-2.0448 1.15727,-2.20552 1.728599,-6.63192 2.165057,-16.77798 0.53424,-12.42538 1.10969,-15.2648 5.2094,-25.70645 1.695256,-4.31738 3.486795,-9.11579 3.980948,-10.66344 2.239611,-7.00993 8.408095,-14.24315 22.408099,-26.27665 4.489337,-3.85844 9.722337,-8.67896 11.628897,-10.71402 9.46271,-10.09436 13.9734,-19.69682 15.27978,-32.52943 0.67997,-6.67051 1.30413,-8.10801 2.84278,-6.53901 0.82946,0.84594 0.90064,1.63532 0.61292,6.77391 -0.17946,3.19869 -1.01565,9.37055 -1.85785,13.7149 -2.14183,11.05457 -2.14932,11.10739 -1.74733,11.74129 0.19744,0.31357 2.4925,0.73654 5.09925,0.9426 6.51203,0.51325 10.77134,1.1655 20.13889,3.08667 4.41479,0.90514 8.34965,1.51917 8.74303,1.36558 0.95234,-0.37315 9.5811,-18.23909 12.88994,-26.69027 16.93382,-43.24419 15.67053,-74.39907 -3.43547,-84.73507 -5.87626,-3.178465 -10.00894,-3.938239 -24.11909,-4.430144 -14.36003,-0.500522 -15.95414,-0.818219 -23.432,-4.656428 -3.77527,-1.937275 -5.93995,-3.506277 -8.81982,-6.392145 -4.67404,-4.683402 -6.89342,-9.207207 -10.11759,-20.625927 -1.209721,-4.283284 -2.908349,-9.600581 -3.775271,-11.81509 -8.263108,-21.12008 -29.676532,-33.63238 -53.391383,-31.197955 -6.892668,0.707699 -14.973325,2.58653 -15.342348,3.566594 -0.155102,0.412481 0.601676,1.474217 1.748081,2.453532 5.058793,4.319624 17.215183,17.401381 21.104344,22.71006 7.79031,10.633469 8.892507,13.829917 9.617814,27.890988 0.709573,13.750493 1.586985,16.170307 10.087616,27.813435 6.745059,9.23905 9.920901,14.43047 9.920901,16.21827 0,0.78449 -1.329605,4.99398 -2.954429,9.35406 -5.60165,15.03177 -6.443471,17.68836 -9.080578,28.65938 -1.455485,6.05459 -3.363162,13.29268 -4.238701,16.08376 -2.959674,9.43237 -3.858816,15.3461 -5.057296,33.27048 -0.97332,14.55597 -1.409403,18.34547 -3.447083,29.97437 -3.850572,21.97164 -7.76858,36.74753 -11.293214,42.59007 -2.216758,3.67449 -3.402125,7.94242 -3.786883,13.63398 -0.480291,7.0976 0.916375,9.1128 7.209989,10.40494 1.592604,0.32669 3.369907,0.70096 3.949103,0.83133 1.819638,0.40911 6.229551,-0.25662 8.512246,-1.28539 z M 265.38205,100.15039 c 6.18234,-3.338811 12.79028,-11.318314 18.39718,-22.216282 1.96799,-3.825846 2.10811,-4.337982 1.34572,-4.907813 -1.59224,-1.186491 -12.36957,-2.549065 -20.03438,-2.531831 -8.33541,0.01798 -12.08446,0.600176 -19.13298,2.972036 -6.0336,2.030561 -6.2539,2.393964 -5.46564,9.006773 0.6485,5.428566 2.10136,9.56012 4.56314,12.971611 3.67524,5.092886 7.46774,7.022296 13.21812,6.728196 2.99152,-0.1536 4.37657,-0.54697 7.10884,-2.02269 z m 0,0"
     id="path1"
     style="stroke-width:0.0959084" />
  <plotdata
     application="axidraw"
     model="1"
     plob_version="n/a"
     layer="-2"
     pause_dist="-25400"
     pause_ref="-25400"
     last_x="4.917316553942896e-14"
     last_y="9.070157819257573e-14"
     rand_seed="1"
     row="0" />
</svg>
