<?xml version="1.0" encoding="UTF-8" standalone="no"?>
<svg
   width="10cm"
   height="10cm"
   viewBox="0 0 377.95276 377.95276"
   version="1.1"
   id="svg1"
   sodipodi:docname="vecteezy_cat.svg"
   inkscape:version="1.3.2 (091e20e, 2023-11-25)"
   xmlns:inkscape="http://www.inkscape.org/namespaces/inkscape"
   xmlns:sodipodi="http://sodipodi.sourceforge.net/DTD/sodipodi-0.dtd"
   xmlns="http://www.w3.org/2000/svg"
   xmlns:svg="http://www.w3.org/2000/svg">
  <defs
     id="defs1" />
  <sodipodi:namedview
     id="namedview1"
     pagecolor="#ffffff"
     bordercolor="#000000"
     borderopacity="0.25"
     inkscape:showpageshadow="2"
     inkscape:pageopacity="0.0"
     inkscape:pagecheckerboard="0"
     inkscape:deskcolor="#d1d1d1"
     inkscape:zoom="0.098333333"
     inkscape:cx="1200"
     inkscape:cy="1200"
     inkscape:window-width="1920"
     inkscape:window-height="1080"
     inkscape:window-x="0"
     inkscape:window-y="0"
     inkscape:window-maximized="0"
     inkscape:current-layer="svg1"
     inkscape:document-units="cm" />
  <path
     fill="none"
     stroke-width="1.30833"
     stroke-linecap="round"
     stroke-linejoin="bevel"
     stroke="#231f20"
     stroke-opacity="1"
     stroke-miterlimit="1145.92"
     d="m 71.169681,142.24757 c -12.96247,48.18655 -10.4546,115.80713 0.0962,152.14188 4.55055,15.67278 15.47255,25.21804 14.8265,35.99069 -0.40876,6.81394 -6.88198,16.14958 -5.72373,21.94135 1.15879,5.79176 8.72166,4.56493 10.97067,4.4969 1.05038,-0.0315 14.682689,-0.61508 28.529049,-0.70025 15.78009,-0.0974 32.04085,0.20243 33.8197,-1.68428 3.33865,-3.54331 6.06445,-30.45889 12.05976,-44.22285 5.99698,-13.76395 24.39501,-36.38673 29.84661,-61.32546 5.44993,-24.93927 4.4969,-95.66841 -0.13608,-110.11435 -4.63462,-14.44486 -10.22229,-26.43826 -10.22229,-26.43826 m 45.61673,124.91322 c 34.88722,-15.38406 53.10271,-39.46046 50.55945,-86.40081 -3.70982,-53.582842 28.46323,-55.383802 32.94464,-4.48143 4.85145,61.28122 -23.59739,104.73744 -82.14174,122.77152 m -90.99446,-11.52823 c -1.22683,1.17539 -14.74796,21.13545 -15.53616,30.15192 m -15.26347,-45.51716 c 0,0 13.90057,32.16197 15.26347,45.51716 1.3629,13.35519 -3.81546,22.07742 -3.81546,29.98157 0,7.90359 1.15769,14.99078 0.068,23.031 -1.09021,8.04076 0.65766,14.01672 -2.06869,15.34644 m 36.7507,-2.53608 c 0,0 45.78931,1.36234 50.83158,0.81751 5.04229,-0.54537 10.49388,-0.95413 9.67526,-10.35725 -0.81697,-9.40311 -5.58767,-10.90209 -5.72318,-12.4016 -0.13606,-1.49898 16.44549,-31.1376 17.99038,-46.88006 2.52999,-25.80216 -8.75542,-98.26589 -28.34708,-111.88492 M 58.161861,225.85456 c -3.19264,25.13895 -14.14837,41.39693 -14.99576,53.89755 -0.7965,11.75057 5.50967,73.02294 30.73104,74.4771 4.09036,0.23619 5.11032,-0.30642 5.11032,-0.30642 M 122.24022,44.274298 c 4.42057,0 18.53465,3.339208 21.94134,2.725798 3.4067,-0.614515 16.49031,-16.320489 22.8269,-14.922743 14.7037,3.240754 7.15079,26.151725 9.60887,31.274766 5.85925,12.210213 9.55911,33.191329 6.09599,49.643471 -1.26057,5.98535 -3.46643,11.37224 -6.86206,15.51791 -9.16583,11.19357 -27.80059,16.86919 -49.86196,17.35594 -23.59519,0.51993 -37.105249,-1.91879 -45.368929,-6.06447 -3.74742,-1.87895 -6.41625,-4.11081 -8.45727,-6.5772 -6.54125,-7.90414 -12.40548,-26.3348 -9.8163,-40.235922 2.58917,-13.899474 7.6309,-14.582028 8.72111,-19.078928 1.09021,-4.497453 2.04379,-15.398985 0.95359,-18.534091 -1.97355,-5.673949 -4.53673,-25.892867 5.04228,-25.892867 4.90621,0 16.96709,14.990782 22.89493,16.558335 5.928379,1.566448 15.536159,-1.567553 22.281509,-1.769999 z m 0,0"
     id="path1" />
</svg>
