<?xml version="1.0" encoding="UTF-8" standalone="no"?>
<svg
   width="10cm"
   height="9.7071133cm"
   viewBox="0 0 377.95276 366.88302"
   version="1.1"
   id="svg1"
   sodipodi:docname="vecteezy_person.svg"
   inkscape:version="1.3.2 (091e20e, 2023-11-25)"
   xmlns:inkscape="http://www.inkscape.org/namespaces/inkscape"
   xmlns:sodipodi="http://sodipodi.sourceforge.net/DTD/sodipodi-0.dtd"
   xmlns="http://www.w3.org/2000/svg"
   xmlns:svg="http://www.w3.org/2000/svg">
  <defs
     id="defs1" />
  <sodipodi:namedview
     id="namedview1"
     pagecolor="#ffffff"
     bordercolor="#000000"
     borderopacity="0.25"
     inkscape:showpageshadow="2"
     inkscape:pageopacity="0.0"
     inkscape:pagecheckerboard="0"
     inkscape:deskcolor="#d1d1d1"
     inkscape:zoom="1"
     inkscape:cx="199"
     inkscape:cy="380"
     inkscape:window-width="1920"
     inkscape:window-height="1080"
     inkscape:window-x="0"
     inkscape:window-y="0"
     inkscape:window-maximized="0"
     inkscape:current-layer="svg1"
     inkscape:document-units="cm" />
  <path
     fill-rule="nonzero"
     fill="#000000"
     fill-opacity="1"
     d="m 225.94,336.06305 c -7.32903,-8.85005 -14.22946,-14.29329 -20.1807,-15.91784 -7.35537,-2.00823 -8.39548,-1.71286 -31.44308,8.92204 -17.21288,7.94314 -28.64075,10.27644 -35.99427,7.35017 -2.09655,-0.83417 -4.95788,-2.58933 -6.35793,-3.89996 -3.79605,-3.55375 -9.61148,-14.05061 -12.96671,-23.40308 -2.51734,-7.02029 -3.39047,-8.57286 -5.73007,-10.19332 -7.81476,-5.41244 -8.217,-5.80615 -8.217,-8.04334 0,-4.86733 3.43797,-6.71639 16.81286,-9.043 11.58187,-2.01492 13.36598,-2.98675 4.17714,-2.27541 -3.92519,0.30391 -10.66495,0.55624 -14.97679,0.56107 -7.55576,0.008 -7.91384,-0.062 -9.8653,-1.92809 -1.11359,-1.06498 -2.024936,-2.65353 -2.024936,-3.53001 0,-1.80302 2.951496,-5.23061 4.503686,-5.23061 0.56292,0 2.69286,-1.39782 4.73228,-3.10587 2.87727,-2.4101 4.31481,-3.10549 6.41878,-3.10549 3.64318,0 38.07004,10.0768 40.1254,11.74477 1.44013,1.1685 1.49727,1.51991 0.49315,3.06171 -0.62414,0.9581 -5.81839,5.86032 -11.54253,10.89353 -5.72452,5.03359 -10.99298,10.2308 -11.7073,11.54996 -2.0613,3.80496 -1.2301,14.54636 1.46499,18.93576 2.76412,4.50183 6.86148,7.12605 12.69695,8.13239 4.13224,0.71246 5.6169,0.62785 12.1355,-0.69056 19.80704,-4.00609 57.30785,-24.45211 83.70214,-45.63618 11.85979,-9.51872 17.0637,-14.9716 21.68984,-22.72996 2.68359,-4.49924 3.53297,-6.80618 3.85135,-10.45084 0.3874,-4.46102 0.30465,-4.73264 -1.80898,-5.87072 -2.62347,-1.41341 -6.06329,-1.04011 -10.31428,1.11915 -1.57038,0.79781 -6.57167,5.37756 -11.11544,10.17774 -9.77178,10.32468 -17.36575,16.48966 -23.4131,19.00848 -13.55857,5.64771 -27.07446,4.7627 -36.60505,-2.39711 -4.22242,-3.17266 -4.6254,-3.32035 -7.31084,-2.6873 -4.88923,1.15292 -10.9299,0.77888 -15.46401,-0.95662 -7.9528,-3.0439 -14.79053,-11.32064 -23.74299,-28.73946 -9.0033,-17.51603 -13.53073,-32.06239 -14.23207,-45.72078 -0.24786,-4.83988 -0.74473,-8.79921 -1.10467,-8.79921 -1.53401,0 -6.72084,6.01025 -8.70904,10.09202 -2.80047,5.75013 -4.95788,16.03621 -4.24987,20.26531 0.82155,4.91224 2.99119,7.25555 8.99772,9.72354 6.32566,2.59714 8.69086,4.27846 10.81525,7.68303 3.94114,6.31637 0.87869,12.219 -7.21586,13.90738 -4.15228,0.86533 -4.20089,0.90689 -4.7575,4.10627 -0.93287,5.36012 -5.57905,10.13692 -9.86047,10.13692 -1.78819,0 -4.27808,-2.40306 -4.27066,-4.12186 0.0108,-2.36558 1.86909,-6.31414 3.91073,-8.30791 1.1941,-1.16664 1.9381,-2.31326 1.652,-2.54777 -0.28498,-0.23377 -4.39348,0.30279 -9.129832,1.1941 -11.382976,2.13997 -20.613741,2.23978 -23.866179,0.25715 -3.303275,-2.0138 -3.368583,-4.57271 -0.388882,-15.19313 2.896581,-10.32505 7.667441,-31.38037 7.667441,-33.84168 v -1.68615 l -3.358563,2.21789 c -3.62017,2.39119 -4.068053,3.40458 -2.098778,4.74786 1.947009,1.32918 1.541799,4.66251 -0.801514,6.58799 -2.586737,2.12587 -5.507438,2.16186 -7.86782,0.0969 -2.032356,-1.77818 -2.299157,-3.69439 -0.873131,-6.26777 0.847156,-1.52844 0.647148,-1.96816 -1.815279,-3.99273 -6.243271,-5.13228 -8.375445,-13.78454 -8.36654,-33.95448 0.0059,-14.10775 1.319158,-31.74253 3.875096,-52.04569 0.964042,-7.65445 1.142156,-11.47129 0.558461,-11.95108 -0.583695,-0.479799 -2.479868,-0.429333 -5.937879,0.1577 -4.022411,0.68314 -5.793904,0.68685 -8.509402,0.0182 C 41.798946,98.912635 35.582392,91.921284 31.255332,81.582873 30.411889,79.567957 28.128316,75.900291 26.180565,73.43341 12.693615,56.348556 7.5583626,37.146741 13.795697,27.122626 c 2.629038,-4.224273 5.612449,-5.792419 11.038993,-5.802067 4.127424,-0.0078 4.713716,-0.223385 7.868191,-2.895467 6.898953,-5.842886 12.276516,-4.885522 34.267301,6.099666 11.235661,5.612079 18.206231,8.424797 23.978613,9.674936 l 3.94968,0.854948 10.323195,-4.197556 c 5.67813,-2.309547 11.89283,-4.58347 13.8109,-5.054731 8.71386,-2.14108 15.25102,2.413818 10.99261,7.659279 -1.46277,1.801179 -3.20309,2.732938 -7.35834,3.939662 -4.9909,1.450516 -6.4585,1.552932 -17.68377,1.24049 -9.270836,-0.258265 -13.224969,-0.09796 -16.295582,0.661991 -10.011869,2.476528 -19.051532,0.781847 -39.074898,-7.325686 -8.372106,-3.390475 -15.93305,-6.164232 -16.802098,-6.164232 -3.90775,0 -6.126013,17.763915 -4.118518,32.980797 2.012318,15.256216 4.803886,20.854195 13.793454,27.666317 6.952017,5.267354 8.610704,5.320418 33.599001,1.093176 39.379181,-6.662581 56.384991,-8.255961 82.517671,-7.730524 19.24301,0.386656 24.19903,1.174069 28.58398,4.540797 3.51182,2.696945 4.02761,5.828042 2.48506,15.078473 -0.70875,4.246165 -1.0954,8.550225 -0.85977,9.563985 0.60893,2.61605 4.53783,3.76081 12.97524,3.77899 14.87328,0.033 16.95165,2.23608 25.92971,27.49599 5.30446,14.92633 6.23622,16.9394 7.53014,16.28298 0.44826,-0.22821 2.15555,-2.73702 3.79494,-5.57535 1.63865,-2.83943 5.59798,-8.38027 8.79847,-12.3151 5.20836,-6.40247 5.81728,-7.50269 5.80689,-10.48907 C 253.60483,115.41343 242.81372,93.797419 228.08664,76.98419 216.22461,63.44195 206.92483,56.252819 185.35447,43.948102 171.11574,35.826098 166.85361,32.538409 165.79606,28.861094 c -0.76923,-2.673195 -0.83195,-2.709189 -6.20394,-3.508106 -2.98378,-0.443429 -10.14843,-1.156999 -15.92006,-1.585215 -12.94296,-0.960703 -14.80499,-1.249396 -16.37982,-2.544063 -2.86021,-2.351107 2.6257,-5.596123 12.79267,-7.567253 8.06041,-1.561838 30.37255,-0.938439 40.94844,1.143641 6.22583,1.22639 10.58703,1.521021 24.76788,1.673902 12.26279,0.132101 19.14319,0.522468 23.92889,1.358491 23.28693,4.069537 47.81436,14.544502 63.07726,26.939389 13.86989,11.263491 24.47028,28.49529 27.1034,44.060979 1.8138,10.715421 -2.33478,22.557411 -7.90047,22.557411 -3.24205,0 -5.14787,-2.6628 -10.6156,-14.838019 C 295.1878,82.732451 275.65314,61.109027 257.25766,47.694807 240.70195,35.622752 221.17025,26.91965 196.49922,20.620348 c -4.30888,-1.099855 -5.18386,-1.111358 -10.92433,-0.149913 -6.94793,1.165535 -12.51734,2.87172 -12.51734,3.835762 0,0.347694 2.36149,1.335485 5.24731,2.195257 7.78878,2.319936 17.04219,6.314516 24.13818,10.420046 8.70236,5.035435 23.80829,17.302303 33.49028,27.195057 17.17947,17.553889 36.98873,42.680593 39.64115,50.281993 1.01451,2.90808 -0.83788,5.87442 -5.6247,9.01034 -6.83104,4.47438 -12.93368,9.6011 -12.93368,10.86459 0,2.28729 1.59709,1.95851 6.44847,-1.32435 15.15158,-10.25566 26.81471,-14.65767 38.84298,-14.65767 9.65045,0 21.15514,4.78607 29.61741,12.32178 11.63753,10.36215 18.50754,25.01279 19.6267,41.85459 1.40004,21.06571 -8.88308,43.59825 -25.8414,56.62396 -9.87161,7.58062 -20.32467,10.89687 -34.2699,10.86942 -25.79871,-0.0505 -42.47762,-11.74441 -50.13059,-35.146 -1.9585,-5.99057 -2.23236,-8.14501 -2.2691,-17.85521 -0.0401,-10.27161 0.11096,-11.37851 2.15816,-15.87256 1.50469,-3.30216 2.35852,-6.8329 2.69879,-11.1581 0.55846,-7.11306 3.00086,-13.44539 5.80689,-15.06141 4.32224,-2.48766 8.99143,0.10094 8.99143,4.9846 0,2.37745 -0.95403,3.97454 -5.94864,9.96288 l -5.94753,7.13126 0.43675,5.52116 c 0.87499,11.03269 5.37311,24.41351 10.73249,31.92658 1.55404,2.17819 5.65883,6.29152 9.12315,9.14134 10.24342,8.42776 21.67501,12.05759 32.87096,10.43675 15.39277,-2.22829 27.9398,-11.74589 34.18381,-25.93045 9.38142,-21.31284 5.7375,-40.06752 -10.5425,-54.25319 -9.76659,-8.5094 -17.99027,-10.26197 -26.90154,-5.73267 -12.92774,6.56869 -19.54802,27.76093 -14.08474,45.0881 2.08691,6.62102 6.53456,13.23833 12.30917,18.31272 12.64202,11.10876 22.07316,11.04679 31.62379,-0.20706 3.62499,-4.27102 5.18943,-5.23989 5.18943,-3.21347 0,3.09473 -7.44554,10.57478 -12.73294,12.79194 -4.59386,1.92622 -10.67349,1.73735 -16.05104,-0.49984 -5.26773,-2.19155 -13.41237,-8.90459 -17.24368,-14.21202 -15.57125,-21.57407 -7.59656,-56.36681 14.28921,-62.3418 12.56966,-3.43241 27.46854,5.23507 36.85589,21.439 6.88522,11.88578 7.50528,25.20204 1.86389,40.00036 -7.58358,19.8868 -23.88177,31.56182 -43.98825,31.5095 -11.03639,-0.0286 -20.76291,-3.73038 -30.42857,-11.58373 -9.17622,-7.45482 -15.09814,-17.59842 -18.34613,-31.4249 -1.00708,-4.28809 -1.95294,-7.92645 -2.10323,-8.08415 -1.63085,-1.72103 -2.87171,9.33429 -1.89134,16.85033 1.90952,14.6395 8.08118,27.18839 16.94422,34.45247 13.58602,11.13622 36.00093,13.89772 53.96412,6.64774 18.61701,-7.51419 33.88176,-30.49982 35.41205,-53.32143 1.67947,-25.06214 -11.84199,-48.33089 -33.05798,-56.88817 -4.47809,-1.80563 -5.64918,-1.97002 -13.71144,-1.92622 -7.8322,0.0416 -9.47568,0.27718 -14.72039,2.10582 -6.65813,2.32254 -11.29763,4.79165 -20.83676,11.09169 -6.83476,4.51408 -9.0263,5.12857 -11.56554,3.23908 -1.40525,-1.04494 -1.70507,-0.84345 -4.89999,3.27841 -1.87243,2.41567 -5.27775,7.37318 -7.56726,11.01747 -4.67735,7.44184 -6.16015,8.8352 -8.27785,7.77987 -2.31103,-1.15328 -4.00498,-4.74302 -9.33578,-19.78439 -5.5553,-15.67589 -7.8296,-20.06863 -11.81639,-22.82718 -2.23719,-1.54662 -3.45318,-1.82196 -8.22739,-1.86574 -10.09498,-0.0902 -14.46954,-0.89391 -16.75423,-3.07692 -2.2268,-2.12773 -2.22271,-2.01195 -0.52061,-18.404016 0.54436,-5.23136 0.51393,-5.344537 -1.9407,-7.362051 -4.31073,-3.543357 -7.41437,-3.891793 -34.2443,-3.845409 -27.95686,0.04861 -32.83014,0.517644 -71.505763,6.894871 -12.545541,2.067979 -24.17528,3.759693 -25.844728,3.759693 -3.662844,0 -7.835538,-1.359234 -11.79635,-3.842441 -2.126609,-1.332888 -2.938883,-1.561839 -2.938883,-0.828231 0,1.591895 4.810194,6.642915 7.791751,8.182489 2.760768,1.426026 4.017586,1.444208 14.655081,0.209283 5.570518,-0.647148 5.67145,0.05009 3.198261,22.075392 -3.386024,30.15324 -4.32743,52.80081 -2.503987,60.24561 0.348435,1.42195 0.496122,1.44681 2.857618,0.47869 2.937028,-1.2045 6.897469,-0.55104 10.913571,1.79932 1.395599,0.81672 2.908084,1.29652 3.361533,1.06571 0.45345,-0.23005 2.5808,-2.29433 4.727075,-4.58717 3.016066,-3.22127 4.417601,-5.63064 6.170911,-10.60336 3.643919,-10.3373 6.09707,-12.26464 13.11811,-10.30502 l 3.80941,1.06312 8.56024,-3.49104 c 11.12843,-4.53893 22.50027,-6.94125 32.86205,-6.94125 11.6264,0 20.81227,2.64351 23.01902,6.62399 3.40755,6.1479 -11.92251,10.21262 -38.50566,10.21188 -12.79008,-0.001 -15.39204,-0.19296 -20.08942,-1.48317 -2.96672,-0.81487 -5.80059,-1.28614 -6.29633,-1.04679 -2.83573,1.36628 -8.718323,5.79761 -11.726967,8.8326 -3.22164,3.2517 -3.57861,4.04505 -4.980145,11.05829 -3.216073,16.10077 -9.15284,42.39116 -11.109497,49.19845 -2.758543,9.59628 -2.71624,11.66351 0.257894,12.61902 3.019034,0.96998 12.233471,0.33619 21.706545,-1.4943 7.04515,-1.36035 10.24193,-1.42009 15.64325,-0.29352 3.20494,0.66867 7.98321,-0.19185 9.92392,-1.7867 1.10691,-0.91025 1.63308,-2.29026 1.63308,-4.28699 0,-4.3471 -2.98007,-7.52087 -9.42929,-10.04304 -5.70521,-2.23051 -9.26193,-4.87587 -10.66792,-7.93387 -1.32398,-2.88025 -1.08278,-12.27206 0.46087,-17.93498 2.18672,-8.01922 6.16127,-14.30887 12.22197,-19.33688 2.92293,-2.42532 6.07109,-5.43842 6.99357,-6.69412 2.85243,-3.88067 5.73677,-5.16124 11.62529,-5.16124 4.38012,0 5.86775,0.34288 9.38439,2.15853 2.29804,1.18743 5.68073,2.34331 7.51716,2.57041 6.3969,0.78853 9.80036,4.5664 6.67408,7.40583 -2.34554,2.12958 -4.79534,1.60897 -8.75171,-1.86017 l -3.63056,-3.18417 -5.85364,0.47386 c -7.39248,0.59854 -16.21469,2.81013 -16.87669,4.23021 -0.94808,2.03013 -0.51022,15.78907 0.67907,21.33288 2.93442,13.67731 9.50609,29.62779 18.19732,44.16858 8.83223,14.77495 13.49362,18.46561 23.77972,18.82593 8.29121,0.29054 8.59141,0.0182 6.38538,-5.7902 -2.08318,-5.48369 -2.44312,-13.36634 -0.86904,-19.00997 2.62756,-9.41482 11.88763,-20.18144 20.33544,-23.64205 8.03555,-3.29177 16.52973,-1.69654 24.05431,4.51594 7.9283,6.54606 10.40113,13.53481 6.89561,19.48791 -3.52999,5.99316 -18.97694,15.81245 -34.63391,22.01564 -4.05433,1.606 -7.37727,3.30625 -7.3858,3.77862 -0.0219,1.35775 6.57167,4.92189 11.19038,6.04957 5.66552,1.38298 11.11432,1.29467 17.2652,-0.27905 9.99813,-2.55778 16.06923,-6.90303 29.23817,-20.92506 10.48573,-11.16478 15.57646,-13.89402 22.89546,-12.27355 4.94378,1.09355 6.22324,3.11403 5.63434,8.8916 -0.83788,8.21143 -5.84399,16.22769 -16.75237,26.82548 -9.95918,9.67567 -31.14102,24.5764 -50.4512,35.49146 -5.15751,2.91588 -10.13432,5.79168 -11.05754,6.39096 -1.58336,1.02712 -1.48652,1.06163 1.67947,0.59928 13.0142,-1.90063 22.61826,2.96337 33.94632,17.19358 4.782,6.00615 6.15161,8.81739 4.29737,8.81739 -0.4386,0 -3.4851,-3.24576 -6.77093,-7.21288 z m -71.11466,-2.39787 c 5.40243,-1.52769 21.86277,-8.33907 21.28909,-8.80997 -0.21003,-0.17291 -1.45608,0.13879 -2.76893,0.69317 -5.65401,2.38635 -16.76574,4.7408 -22.53738,4.77531 -7.00508,0.0416 -11.31024,-1.26943 -15.69037,-4.77828 -4.69367,-3.75896 -6.74087,-8.34056 -7.21102,-16.1364 -0.53286,-8.84596 0.48091,-10.56662 12.36149,-20.99854 10.69464,-9.3907 12.37596,-11.18928 11.29207,-12.08022 -1.31285,-1.07945 -33.99457,-10.34954 -36.48705,-10.34954 -1.72066,0 -2.9849,0.65012 -4.55527,2.34294 -1.19485,1.28836 -3.2658,2.71439 -4.5998,3.16857 -4.11852,1.40229 -4.33448,5.13563 -0.34509,5.95867 1.96408,0.4052 4.39496,0.31912 23.4053,-0.82786 6.85554,-0.41338 7.75131,-0.32395 9.65602,0.96515 l 2.0984,1.4212 -1.68986,1.41156 c -1.22453,1.02305 -5.03469,1.98115 -13.84058,3.47916 -12.92291,2.19897 -16.20133,3.46692 -16.63436,6.43326 -0.21115,1.44347 0.53841,2.29137 3.90514,4.4176 5.20093,3.28398 6.99136,5.8184 9.6857,13.70551 4.7345,13.86433 10.72284,22.55481 17.73423,25.73453 2.61902,1.18742 9.76362,0.93583 14.93227,-0.52582 z m 35.83285,-73.23421 c 8.02516,-3.18973 19.52205,-9.18587 25.5731,-13.33667 9.03039,-6.19465 11.06423,-12.12437 6.43401,-18.75876 -4.55007,-6.51934 -11.77743,-10.66384 -18.59883,-10.66384 -11.57036,0 -24.45803,13.67546 -26.41692,28.03072 -0.88166,6.46072 2.30844,17.51789 5.05288,17.51789 0.51653,0 4.09588,-1.25533 7.95576,-2.78934 z m -79.98251,-5.66477 c 3.43908,-3.10289 5.00538,-8.10902 2.53738,-8.10902 -3.3363,0 -7.51271,5.77164 -6.20394,8.57472 0.69354,1.48539 1.63754,1.36554 3.66656,-0.4657 z M 75.078456,205.86014 c 1.177038,-1.53623 0.148057,-3.37155 -1.890237,-3.37155 -1.792272,0 -3.203827,2.72737 -2.142193,4.14004 0.773683,1.02861 2.977104,0.60893 4.03243,-0.76849 z m 1.955915,-10.52728 c 3.902555,-3.20792 4.330771,-4.25767 2.551857,-6.25737 -0.911722,-1.0249 -1.439756,-1.11248 -2.883594,-0.47684 -2.827932,1.24347 -8.115696,0.9403 -10.502796,-0.60335 -2.830901,-1.83049 -3.26728,-1.74293 -2.607516,0.51801 1.272774,4.36306 6.035842,9.8345 8.561722,9.8345 0.666816,0 2.863185,-1.35627 4.880327,-3.01495 z m 8.999958,-11.30542 c 0.663846,-3.448 -0.294259,-3.7712 -2.756315,-0.9288 -2.107314,2.43275 -2.142565,3.05578 -0.302794,5.36309 l 1.433075,1.79821 0.531004,-1.64978 c 0.291661,-0.90726 0.784444,-2.96968 1.09503,-4.58272 z m -10.831193,1.95332 c 0.262718,-0.34955 -0.532116,-1.28836 -1.765927,-2.08617 -4.904818,-3.1708 -10.001108,-2.35779 -6.179076,0.98593 2.008979,1.75851 6.937174,2.44054 7.945003,1.10024 z m 85.103294,-7.47412 c -0.15399,-0.66422 -1.12657,-1.30729 -2.16,-1.429 -2.06724,-0.24194 -2.43682,0.52358 -0.87313,1.80786 1.50357,1.23678 3.35411,1.00524 3.03313,-0.37886 z m -15.79576,-4.77643 c 2.30287,-0.59668 -1.70692,-2.29804 -5.40798,-2.29507 -3.66099,0.003 -8.86489,2.14294 -8.86489,3.64763 0,0.74771 1.15811,0.73731 6.5071,-0.0586 3.57861,-0.53212 7.07336,-1.11433 7.76577,-1.29393 z M 99.071541,163.67048 c 1.902849,-1.42306 3.459869,-2.86133 3.459869,-3.19753 0,-0.76217 -3.158931,-1.48317 -4.560837,-1.04048 -1.205239,0.37998 -3.83502,4.64173 -3.83502,6.2147 0,1.42492 0.828972,1.09244 4.935988,-1.97669 z m 56.742699,-2.92107 c 13.62203,-2.37486 15.95309,-4.97013 7.29824,-8.12424 -11.17593,-4.07213 -28.73835,-2.4602 -45.23061,4.1534 -3.36264,1.34884 -6.11451,2.7014 -6.11451,3.00568 0,0.51393 3.41312,1.42269 8.39549,2.23793 4.55972,0.74474 29.10347,-0.13099 35.65139,-1.27277 z m 96.09517,-4.57902 c 2.34072,-2.881 3.42832,-4.96716 3.42832,-6.57724 0,-2.8784 -1.9778,-3.76266 -4.23094,-1.89431 -2.55632,2.11955 -5.38425,12.69136 -3.3953,12.69136 0.42376,0 2.31325,-1.89914 4.19792,-4.21981 z m 11.45348,-31.6995 c 7.51679,-4.91595 9.72651,-7.22697 9.09569,-9.5098 -1.16479,-4.21018 -16.85107,-25.107043 -29.06563,-38.71793 -23.78343,-26.505236 -44.22721,-41.064952 -66.37422,-47.272599 -6.17277,-1.729934 -8.15911,-1.821959 -8.15911,-0.379977 0,1.450517 5.88519,5.935281 13.78678,10.507248 29.47863,17.056282 40.95659,26.351242 54.18825,43.888061 11.15068,14.778277 17.01732,27.347937 19.78254,42.380027 0.26124,1.4238 0.68797,2.58748 0.94808,2.58748 0.25938,0 2.86876,-1.56629 5.79762,-3.48251 z m 52.6086,-21.59967 c 1.81529,-4.980515 1.18075,-15.141183 -1.38483,-22.191534 C 309.82544,67.598688 301.40509,55.52886 291.12865,47.051741 276.3077,34.826804 252.46305,24.496185 230.16799,20.641499 c -7.59843,-1.313963 -25.20575,-2.19637 -25.20575,-1.262755 0,0.372556 3.30587,1.699506 7.3461,2.948902 31.57295,9.762509 57.85517,27.805469 79.96989,54.898853 6.5687,8.048903 9.46899,12.649441 13.70552,21.742167 1.68058,3.606074 3.6914,7.302304 4.46954,8.215144 l 1.41453,1.66054 1.52955,-1.55293 c 0.84048,-0.85421 1.99933,-2.84352 2.57412,-4.4202 z M 26.649599,66.014215 c -0.237486,-0.663846 -0.865709,-4.934874 -1.396341,-9.489772 -1.050131,-9.017027 -0.549185,-18.475257 1.398566,-26.41321 0.677577,-2.760398 0.97666,-5.357524 0.66496,-5.771639 -0.81413,-1.083157 -6.87001,-0.265316 -8.829265,1.19188 -4.77754,3.554861 -5.326354,16.625097 -1.127314,26.852188 2.725517,6.639203 7.608071,14.838018 8.835573,14.838018 0.486845,0 0.691306,-0.543248 0.453821,-1.207465 z M 86.419873,36.951929 c 0.751789,-0.392594 -1.183347,-1.474266 -6.104862,-3.416081 -3.962668,-1.56258 -12.014169,-5.239895 -17.891935,-8.171356 -11.404127,-5.686293 -17.191351,-7.832197 -21.12656,-7.832197 -2.54963,0 -7.650001,2.950386 -7.562429,4.374185 0.06308,1.025269 28.13832,12.529958 34.793851,14.258035 5.196479,1.348844 15.910415,1.819733 17.891935,0.787414 z m 34.085107,-1.587443 c 3.92407,-0.825633 8.27971,-4.1226 7.54053,-5.706331 -0.65642,-1.406731 -3.77528,-2.043118 -7.3268,-1.495045 -2.85576,0.439719 -15.97646,5.405021 -18.11346,6.853682 -2.620504,1.776318 9.95992,2.021596 17.89973,0.347694 z m 51.803,-13.914794 c 2.9515,-1.262384 6.31155,-2.509554 7.46559,-2.771901 3.14816,-0.715425 0.86458,-1.492448 -7.55576,-2.568554 -14.47065,-1.850531 -31.42601,-0.912835 -38.62182,2.136256 -3.81201,1.614901 -3.28101,1.749971 12.17448,3.095104 6.92678,0.60299 14.10477,1.35441 15.95234,1.66982 1.84757,0.316524 3.77714,0.61004 4.2881,0.653457 0.51208,0.04378 3.34557,-0.952541 6.29707,-2.214182 z m 0,0"
     id="path1"
     style="stroke-width:0.0949942" />
</svg>
