<?xml version="1.0" encoding="UTF-8" standalone="no"?>
<svg
   version="1.1"
   viewBox="0 0 377.95276 377.95274"
   id="svg153"
   sodipodi:docname="pyday_logo.svg"
   inkscape:version="1.3.2 (091e20e, 2023-11-25)"
   width="10cm"
   height="10cm"
   xmlns:inkscape="http://www.inkscape.org/namespaces/inkscape"
   xmlns:sodipodi="http://sodipodi.sourceforge.net/DTD/sodipodi-0.dtd"
   xmlns="http://www.w3.org/2000/svg"
   xmlns:svg="http://www.w3.org/2000/svg">
  <defs
     id="defs153" />
  <sodipodi:namedview
     id="namedview153"
     pagecolor="#ffffff"
     bordercolor="#000000"
     borderopacity="0.25"
     inkscape:showpageshadow="2"
     inkscape:pageopacity="0.0"
     inkscape:pagecheckerboard="0"
     inkscape:deskcolor="#d1d1d1"
     inkscape:zoom="1.08"
     inkscape:cx="526.85185"
     inkscape:cy="130.55556"
     inkscape:window-width="1920"
     inkscape:window-height="1052"
     inkscape:window-x="0"
     inkscape:window-y="0"
     inkscape:window-maximized="0"
     inkscape:current-layer="svg153"
     inkscape:document-units="cm" />
  <path
     id="path105"
     style="fill:none;stroke:#000000;stroke-width:0.394929"
     d="m 171.65893,10.798836 c -0.72272,-0.04351 -1.30335,0.27203 -2.06951,0.216744 -0.45023,-0.03153 -0.8923,0.01627 -1.32671,0.142693 -0.71615,0.208004 -1.5178,0.291728 -2.40507,0.252231 -0.68716,-0.03153 -1.33107,0.260869 -2.03404,0.320115 -0.50288,0.03947 -1.00832,0.107824 -1.51647,0.20518 -3.29895,0.634519 -6.49822,1.503992 -9.59709,2.607146 l -0.0632,0.232949 c -0.0342,0.126374 -0.1106,0.216996 -0.22909,0.272282 -1.14791,0.531841 -2.29047,1.073871 -3.42786,1.626772 -0.17639,0.08424 -0.35886,0.137068 -0.54843,0.158128 -0.11324,0.01009 -0.21517,0.05032 -0.30468,0.118795 -0.14481,0.110598 -0.26711,0.244678 -0.36716,0.402642 -0.11842,0.189568 -0.27858,0.251714 -0.48131,0.185898 -0.11325,-0.03682 -0.17292,0.0038 -0.1782,0.121821 0,0.04477 0.013,0.0821 0.0393,0.111103 0.0448,0.05271 0.0329,0.07869 -0.0354,0.07869 l -0.25607,-0.0038 c -0.13692,-0.0025 -0.26121,0.03708 -0.3718,0.118795 -0.5687,0.430474 -1.12141,0.857064 -1.78489,1.149323 -2.23528,0.976792 -4.50982,2.090084 -6.82411,3.340697 -0.40544,0.426515 -0.88123,0.832006 -1.42621,1.216413 -0.60556,0.431785 -1.08422,0.826722 -1.43702,1.184784 -0.89253,0.908339 -1.75012,1.82045 -2.77299,2.574747 -0.63452,0.46866 -1.22814,1.051714 -1.78104,1.749414 -2.29584,2.917197 -4.14375,5.936455 -5.54443,9.056386 -2.00359,4.462679 -3.59833,9.065781 -4.78312,13.810176 -0.15007,0.600293 -0.11021,1.173371 -0.41036,1.726272 -0.0632,0.121065 -0.0936,0.248322 -0.091,0.382591 0.0316,0.951772 -0.33578,1.698439 -0.39107,2.622581 -0.0816,1.324324 -0.19581,2.659443 -0.34325,4.004827 -0.16324,1.484924 -0.0856,3.427915 0.23295,5.829061 0.20536,1.556024 0.0161,3.273796 0.21752,4.944328 0.60424,4.956347 1.79246,9.588656 3.11546,14.359382 1.68635,6.089777 4.34071,11.919084 6.95909,17.669238 4.73123,10.38659 12.48729,19.33999 20.32265,27.53473 0.62136,0.65031 1.36163,1.29108 2.21994,1.92297 0.25275,0.18693 0.48557,0.42789 0.69884,0.72274 0.53711,0.73852 1.40579,1.17742 2.01399,1.91989 0.30277,-0.0211 0.51081,0.0435 0.62401,0.19362 0.0586,0.0763 0.1429,0.1282 0.2368,0.14578 0.96758,0.1856 1.84429,1.37429 2.43669,2.10886 0.99126,1.24007 2.4564,2.10136 3.49111,3.21111 0.25276,0.27382 0.34781,0.63829 0.28463,1.09377 -0.0158,0.12637 -0.0759,0.22634 -0.18127,0.30005 -0.17377,0.11589 -0.2725,0.29342 -0.29619,0.533 4.42319,2.35377 8.50906,5.19224 12.25822,8.51489 7.15609,6.33991 13.75576,13.33251 19.79815,20.9783 0.23959,0.34227 0.53257,0.68883 0.8801,1.03901 1.40989,1.4257 2.60677,3.15503 3.47955,4.85717 0.0264,0.0499 0.0158,0.0923 -0.0317,0.1265 -0.0501,0.0368 -0.0971,0.0344 -0.14193,-0.008 -1.31642,-1.26639 -2.66332,-2.4878 -4.0403,-3.66466 -1.48229,-1.26904 -3.20302,-1.98251 -5.16186,-2.14049 -0.22379,-0.0158 -0.30262,0.083 -0.23679,0.29619 0.0579,0.18957 0.16599,0.34845 0.32396,0.47746 3.50696,2.81978 6.58314,5.64648 9.22915,8.47942 0.0829,0.0912 0.022,0.23731 -0.0987,0.2368 -13.04313,0.10266 -26.04912,0.11691 -39.01855,0.0433 -1.79296,-0.008 -3.81889,0.15065 -5.46575,0.89707 -1.01364,0.45548 -2.03588,0.99752 -3.06534,1.62677 -0.25687,0.15548 -0.57474,0.17311 -0.84848,0.047 -1.77979,-0.82409 -3.51674,-1.6363 -5.20966,-2.43669 -0.5845,-0.27381 -1.24516,-0.42091 -1.98236,-0.44197 -4.63646,-0.11855 -9.22977,-0.17497 -13.77933,-0.1697 -1.93513,0.004 -3.53787,0.44185 -5.19656,1.3028 -1.19663,0.62399 -2.27908,0.33603 -3.50731,-0.047 -1.54549,-0.48181 -3.13944,-0.69105 -4.78235,-0.62787 -0.0264,0.0101 -0.0544,0.0211 -0.0833,0.0317 -0.22379,0.15797 -0.19088,0.37536 0.0987,0.65179 0.10997,0.10454 0.25241,0.16732 0.40264,0.17741 1.33222,0.10795 2.55682,0.39481 3.67316,0.86082 1.56654,0.65558 3.06622,0.66492 4.49849,0.0277 1.0505,-0.46601 2.11657,-0.45394 3.20262,-0.96341 0.59766,-0.28171 1.37696,-0.39222 2.33795,-0.33167 1.12424,0.0711 2.99893,0.18972 5.62389,0.35559 0.64767,0.0395 1.30956,0.005 1.98621,-0.10341 0.79513,-0.12638 1.44967,-0.18042 1.96308,-0.16198 0.72665,0.0289 1.43448,0.0464 2.12428,0.0517 0.78592,0.004 1.45399,0.37882 2.24385,0.27614 0.0474,-0.005 0.0685,0.0159 0.0632,0.0632 -0.003,0.0395 0.004,0.0768 0.0193,0.11111 0.0237,0.0448 0.0578,0.0764 0.10265,0.0948 1.43755,0.59502 2.87017,1.13828 4.29718,1.63062 0.46864,0.1606 0.92817,0.38041 1.37839,0.6595 0.54499,0.33437 1.16464,0.40586 1.85971,0.21365 1.80615,-0.50022 3.55608,-1.03859 5.24902,-1.61519 0.59765,-0.20272 1.27256,-0.29656 2.02556,-0.28077 2.95406,0.0632 5.87945,0.0924 8.7756,0.0871 1.5955,-0.004 3.21458,-0.16207 4.77849,-0.15813 3.71496,0.0158 7.31037,0.024 10.78573,0.024 2.55519,0 5.2211,-0.36388 7.72889,-0.17432 2.59073,0.18957 5.13759,-0.0232 7.7204,-0.1535 0.63716,-0.0315 1.28926,-0.10795 1.95537,-0.22909 1.47703,-0.26855 3.25012,0.47339 4.67975,0.84463 0.63717,0.16324 1.25679,0.38994 1.85972,0.67955 0.90044,0.42652 1.884,1.122 2.95426,1.00353 0.13427,-0.0131 0.26224,0.008 0.38336,0.0626 1.03866,0.4818 1.78504,1.30002 2.83161,1.81343 0.44495,0.2159 0.87156,0.46172 1.27967,0.73818 0.40545,0.27382 0.82272,0.52286 1.25188,0.74667 1.43753,0.75298 2.48502,1.62413 3.14324,2.61408 0.1053,0.15797 0.2463,0.26972 0.42269,0.33554 1.25983,0.47786 2.23961,0.63185 3.30985,-0.42656 0.67928,-0.67136 1.16852,-1.37184 1.46865,-2.10114 0.2646,-0.64768 0.76659,-1.04983 1.03514,-1.67382 0.39494,-0.92018 1.29101,-1.46969 2.12428,-1.95152 1.01366,-0.58448 1.88802,-1.46987 2.62259,-2.65729 0.37913,-0.61082 0.62941,-1.0878 0.75052,-1.43006 l -0.77443,-4.78621 c -0.0289,-0.18429 0.0499,-0.27569 0.2368,-0.27306 9.18867,0.21853 18.05918,-1.37788 26.61067,-4.79006 0.47129,-0.18693 0.69799,-0.5266 0.67956,-1.01895 -0.0789,-0.91622 -0.46779,-1.23355 -1.1655,-0.95183 -8.50412,3.42796 -17.35718,5.03125 -26.559,4.81011 -0.13947,-0.005 -0.262,-0.0956 -0.30777,-0.22909 l -2.24306,-6.70609 c -0.0554,-0.1606 0.003,-0.24877 0.17355,-0.26456 8.08812,-0.63979 15.89492,-2.40885 23.41961,-5.30764 0.5766,-0.22116 0.85901,-0.64089 0.84848,-1.2596 -0.003,-0.0948 -0.0286,-0.18419 -0.0787,-0.26844 -0.26066,-0.42126 -0.62634,-0.55612 -1.09763,-0.40341 -4.76281,1.54548 -8.77552,2.70426 -12.03763,3.47568 -3.84132,0.91098 -7.83658,1.50582 -11.98594,1.7849 -0.14905,0.0101 -0.29142,-0.0607 -0.37179,-0.18512 l -3.73178,-5.73882 c -0.0802,-0.12271 -0.0184,-0.2879 0.12271,-0.32782 7.17583,-2.05362 13.89374,-4.12699 20.72993,-7.07709 0.33437,-0.14483 0.5424,-0.39509 0.62402,-0.75053 0.0527,-0.22643 -0.001,-0.40277 -0.16198,-0.52914 -0.54236,-0.42653 -1.03725,-0.55372 -1.48484,-0.38259 -6.96915,2.68024 -14.00357,5.05916 -21.10173,7.1365 -0.19743,0.0574 -0.40976,-0.0136 -0.533,-0.17818 -1.37171,-1.79035 -2.89173,-3.55009 -4.56097,-5.27987 -0.11286,-0.11829 -0.0902,-0.31003 0.047,-0.39878 1.72716,-1.1058 3.60431,-2.13049 5.6316,-3.07305 4.0625,-1.88775 8.11054,-3.6743 12.14408,-5.35931 0.56871,-0.23696 0.67677,-0.60632 0.32397,-1.1092 -0.0448,-0.0658 -0.1024,-0.1198 -0.17355,-0.16198 -0.58187,-0.34228 -1.17059,-0.40198 -1.76562,-0.17818 -5.9634,2.25898 -11.76631,5.07265 -17.40852,8.44006 -0.13979,0.083 -0.31784,0.0618 -0.43427,-0.0517 l -5.44184,-5.23281 c -0.0844,-0.0778 -0.0689,-0.2153 0.0309,-0.27228 4.67594,-2.75266 9.31686,-4.87376 14.09944,-7.12878 0.50023,-0.23434 0.55428,-0.54844 0.16198,-0.94336 -0.0685,-0.0685 -0.14928,-0.12006 -0.24144,-0.15427 -0.54236,-0.20537 -1.07383,-0.23138 -1.59514,-0.0787 -1.30063,0.38176 -2.64998,0.9169 -4.04802,1.60671 -3.24367,1.59814 -6.44905,3.33876 -9.61638,5.22124 -0.26257,0.15612 -0.59513,0.12919 -0.82919,-0.0671 l -5.32383,-4.44681 c -0.17378,-0.14481 -0.16566,-0.27768 0.024,-0.39879 3.84659,-2.42484 7.56354,-4.63111 11.15211,-6.61892 0.55291,-0.30804 0.60694,-0.68753 0.16199,-1.13774 -0.21589,-0.21853 -0.60761,-0.33593 -1.1763,-0.35173 -0.22271,-0.008 -0.4434,0.0429 -0.64022,0.14655 -3.86503,2.02995 -7.56975,4.3207 -11.11356,6.87193 -0.0841,0.0581 -0.19597,0.0531 -0.27228,-0.0126 l -6.12912,-5.11402 c -0.27908,-0.2317 -0.25918,-0.43283 0.0594,-0.60396 3.62544,-1.96938 7.22332,-4.03098 10.79346,-6.18466 0.35806,-0.21327 0.4418,-0.50579 0.25223,-0.87702 -0.0789,-0.15008 -0.19073,-0.26871 -0.33554,-0.35559 -0.52393,-0.31068 -1.05052,-0.31435 -1.57972,-0.0113 l -10.90375,6.26333 c -0.23532,0.13691 -0.53371,0.10518 -0.73895,-0.0787 l -7.39643,-6.64283 c -0.14482,-0.12901 -0.1318,-0.23953 0.0393,-0.33168 l 10.89219,-5.95171 c 0.43969,-0.23959 0.47014,-0.524 0.091,-0.85311 l -0.42656,-0.37095 c -0.37122,-0.3212 -0.77428,-0.36912 -1.2087,-0.14269 -3.83869,1.9799 -7.40366,3.94156 -10.69471,5.8846 -0.16039,0.0953 -0.36557,0.0711 -0.50139,-0.0594 -2.25109,-2.14314 -4.44877,-4.41646 -6.59192,-6.82024 -0.11652,-0.13283 -0.0753,-0.34006 0.0834,-0.41807 l 6.55182,-3.27436 c 1.47439,-0.80566 3.05534,-1.7483 4.74301,-2.82776 0.20009,-0.12901 0.23055,-0.41587 0.091,-0.86082 -0.10795,-0.33701 -0.50044,-0.51091 -1.17708,-0.52143 -0.0955,-0.003 -0.19074,0.0206 -0.27614,0.0671 l -11.2632,5.88846 c -0.2894,0.15233 -0.6468,0.0681 -0.83769,-0.19747 l -4.91655,-6.75699 c -0.0721,-0.1 -0.0358,-0.24 0.0748,-0.28849 l 10.07456,-4.45838 c 0.0627,-0.0288 0.12005,-0.0691 0.16969,-0.11879 0.5371,-0.55028 0.75814,-1.05695 0.66336,-1.52032 -0.12639,-0.629264 -0.48275,-0.814954 -1.06986,-0.556914 l -11.05802,4.884934 c -0.1606,0.0711 -0.28613,0.0309 -0.37565,-0.12183 l -4.45837,-7.677984 c -0.0365,-0.0617 -0.008,-0.1413 0.0594,-0.16584 3.77287,-1.387507 7.65515,-2.975357 11.64654,-4.763067 0.41336,-0.18428 0.50888,-0.4736 0.28772,-0.86852 l -0.32319,-0.58083 c -0.20726,-0.36503 -0.64882,-0.52436 -1.039,-0.37487 l -11.50001,4.38742 c -0.11009,0.0405 -0.23297,-0.009 -0.28463,-0.11413 l -3.91372,-8.269614 c -0.0701,-0.150827 0.0219,-0.327102 0.18589,-0.35559 2.57756,-0.442316 5.02599,-0.868944 7.34553,-1.279656 0.90832,-0.157977 1.67034,-0.446616 2.54313,-0.742809 0.14218,-0.04742 0.28438,-0.04742 0.42656,0 l 5.94399,1.959208 c 1.47176,0.352816 2.813,0.705493 4.02411,1.058297 0.82936,0.240906 1.23217,1.102069 1.67845,1.998554 0.1106,0.0421 0.21744,0.0644 0.32011,0.0671 0.11325,0.005 0.16037,0.0618 0.14193,0.1697 -0.008,0.0368 -0.0266,0.0641 -0.0556,0.0825 -0.0211,0.003 -0.0173,0.0342 0.004,0.0316 0.18956,0.0289 0.3728,0.0254 0.54919,-0.0113 0.12902,-0.0264 0.23219,-0.0946 0.30854,-0.20518 0.53711,-0.779325 0.99586,-1.135218 1.37763,-1.066766 0.70823,-0.787225 1.46398,-0.941217 2.26699,-0.462039 0.15533,0.09219 0.32311,0.134407 0.50214,0.1265 0.83725,-0.03682 1.64625,0.04199 2.4282,0.236808 1.05445,0.260655 2.04622,0.05978 3.07304,0.273052 0.75035,0.160613 1.48498,0.252458 2.20374,0.276154 3.19365,0.115768 6.33689,0.112237 9.43047,-0.01135 0.49762,-0.01841 1.00184,-0.09118 1.51262,-0.217526 0.89254,-0.217198 1.74941,-0.05082 2.63801,-0.315475 0.85697,-0.252761 1.78171,-0.312486 2.67426,-0.506001 4.51007,-0.984686 8.83686,-2.477479 12.98098,-4.47843 3.20285,-1.54813 5.47391,-3.673059 7.6934,-6.311164 0.0342,-0.04212 0.0777,-0.06444 0.13036,-0.06709 l 0.16584,-0.01135 c 0.12638,-0.0076 0.18408,-0.07491 0.17355,-0.201321 -0.0158,-0.213263 0.0395,-0.416387 0.16584,-0.608591 1.4744,-2.224769 2.64617,-4.599243 3.51503,-7.124152 0.13821,-0.402831 0.10265,-0.786342 0.36329,-1.133887 0.0869,-0.115894 0.12792,-0.244261 0.12271,-0.386449 -0.0184,-0.426501 0.0734,-0.804766 0.27614,-1.133861 0.0842,-0.136917 0.12409,-0.285246 0.11879,-0.445847 -0.0356,-1.026794 0.39446,-1.808709 0.41421,-2.799979 0.0342,-1.803501 0.0281,-3.567694 -0.0193,-5.292213 -0.0198,-0.616095 -0.26868,-1.066582 -0.32397,-1.666875 -0.10265,-1.074211 -0.32128,-2.053425 -0.65564,-2.938069 -0.41468,-1.086027 -0.81353,-2.191665 -1.5481,-3.068415 -0.882,-1.045219 -1.5788,-2.236926 -2.08957,-3.574403 -0.0491,-0.126639 -0.13103,-0.23614 -0.23681,-0.316257 -0.70297,-0.529205 -0.86308,-1.273616 -0.48132,-2.234593 0.12637,-0.315942 0.20077,-0.643826 0.22446,-0.983464 0.0658,-0.916234 0.22182,-1.830413 0.46667,-2.741363 0.62004,-2.314294 0.38632,-4.83368 -0.23372,-7.219037 -0.55554,-2.135245 -1.43601,-4.111125 -2.64186,-5.927792 -1.78113,-2.689457 -4.1465,-4.47495 -7.1203,-5.643945 -1.06631,-0.41862 -2.11012,-0.637205 -3.13167,-0.655642 -1.09262,-0.01841 -2.18435,0.02131 -3.27436,0.118795 -0.42126,0.03682 -0.79629,-0.05007 -1.12539,-0.260706 -1.6745,-1.071576 -3.38588,-2.096705 -5.13408,-3.076133 -1.02155,-0.573949 -2.0747,-1.082623 -3.15943,-1.524939 -4.47322,-1.821951 -8.96657,-3.112818 -13.47928,-3.873711 -1.53233,-0.260655 -3.06168,-0.432101 -4.58874,-0.513719 -0.30805,-0.01576 -0.62414,-0.07226 -0.94799,-0.169692 -0.30014,-0.08954 -0.6069,-0.128102 -0.92022,-0.114886 -1.46386,0.05788 -2.98388,0.03191 -4.56097,-0.07869 -1.23216,-0.08689 -2.42017,-0.10795 -3.56283,-0.06318 -1.2085,0.05007 -2.39574,0.03695 -3.56209,-0.03935 z m 4.34576,3.357672 c 2.92001,0.01135 5.84953,0.173766 8.77793,0.468975 8.50278,0.853028 16.93059,2.748968 23.9287,7.36173 0.15374,0.102653 0.20793,0.302145 0.12649,0.465885 -0.26064,0.526582 -0.68971,0.940196 -1.28737,1.240323 -3.70836,5.272288 -5.19357,11.460761 -3.14787,17.744054 0.85306,2.556513 2.42466,4.802557 4.71526,6.737704 4.13884,3.499066 8.76996,4.404341 13.89348,2.716684 1.66134,-0.544994 3.16345,-1.75582 4.5062,-3.633032 0.0842,-0.115895 0.19478,-0.192241 0.33168,-0.229103 0.21063,-0.05271 0.3833,0.04363 0.51758,0.288488 2.61704,3.701786 3.99931,7.790098 4.14675,12.265943 0.0948,2.922469 -0.48705,5.809312 -1.74556,8.66068 -1.04524,3.12519 -2.88703,5.95309 -5.52515,8.483258 -0.13164,0.123713 -0.26006,0.198912 -0.38645,0.225244 0.008,0.110598 -0.0319,0.206857 -0.11879,0.288487 -1.05841,0.951772 -2.11722,2.010371 -3.27437,2.756787 -2.90139,1.869318 -6.08121,3.237818 -9.54077,4.106635 -2.85665,0.824099 -4.95928,1.301082 -6.3073,1.430092 -6.36624,0.616081 -12.63021,0.848841 -19.10702,-0.05561 -8.18027,-1.140016 -15.61495,-2.985474 -22.30502,-5.536727 -4.79969,-1.829821 -9.56122,-4.170964 -14.28455,-7.022332 -0.14745,-0.08954 -0.32823,-0.235396 -0.54149,-0.438129 -0.16324,-0.152706 -0.34892,-0.297353 -0.55691,-0.434257 1.0742,3.664924 2.18827,7.299368 3.34148,10.903748 0.4581,1.434897 1.01881,2.924008 1.6823,4.466866 2.86453,6.647938 6.06991,12.897369 9.61636,18.747569 2.20371,3.63595 4.97879,7.3151 8.32515,11.03796 4.9761,5.53688 10.25609,10.61574 15.84036,15.2364 6.17141,5.11036 11.88123,9.9117 17.12852,14.40334 4.7286,4.04406 9.20127,8.71866 13.41911,14.02386 0.75036,0.94255 1.84332,2.62836 3.27822,5.05848 3.21472,5.07614 4.70872,10.66978 4.48229,16.78063 -0.008,0.29226 -0.20508,0.69145 -0.4065,0.90865 -2.13262,2.29848 -4.23389,4.65225 -5.58455,7.47203 -0.0836,0.17551 -0.31653,0.21551 -0.45818,0.0787 -4.23363,-4.17571 -9.25156,-6.92155 -15.05436,-8.23798 -0.74246,-0.16983 -1.22825,-0.80572 -1.57972,-1.4455 -1.99834,-3.63071 -4.21515,-7.10061 -6.65055,-10.4101 -5.11827,-6.51894 -10.48719,-12.49818 -16.1057,-17.93765 -3.34504,-3.2384 -7.02972,-6.36606 -10.92766,-9.1582 -2.66181,-1.9075 -5.34343,-3.77181 -7.83147,-5.78201 -4.55748,-3.68598 -8.85826,-7.76695 -12.90232,-12.2428 -2.1405,-2.36957 -4.77016,-5.50178 -7.8901,-9.39577 -1.04787,-1.30854 -1.80605,-2.4901 -2.2747,-3.54588 -1.13739,-1.28484 -2.20434,-2.78328 -3.19954,-4.49463 -4.74441,-8.15132 -8.28822,-16.668371 -10.63147,-25.551619 -1.11895,-4.233627 -1.88081,-8.582316 -2.28627,-13.044996 -0.30014,-3.330558 -0.31515,-6.392517 -0.044,-9.185963 0.74642,-7.614213 2.55194,-15.603198 5.92857,-22.301164 4.54957,-9.031997 12.8346,-16.184562 22.24177,-19.798148 8.29347,-3.187059 16.9675,-4.512278 25.72748,-4.477661 z M 153.6372,78.269253 c 0.0454,-0.03758 0.13693,-0.01892 0.27383,0.05473 2.82243,1.516527 5.90917,2.904902 9.26078,4.166032 0.13691,0.05271 0.13324,0.0913 -0.0113,0.114886 l -7.11645,1.153168 c -0.48706,0.07895 -0.80561,-0.117281 -0.9557,-0.588539 L 153.639,78.548394 c -0.046,-0.148758 -0.047,-0.241714 -0.001,-0.279231 z"
     sodipodi:nodetypes="scccccccccccccccccccccccccccccccccccccccccccccccccccccccccccccccccccccccccccccccccccccccccsccscccccccccccccccccccccccccccccccccccccccccccccccccccccccscccccccccccccccccccccccccccccccccccccccccccccccccccccccccccccccccccccccccccccccccsccccccccccccccccccccccccccccsscccccccccccccccccccccccccccccccccccccscccccccccccssccccccssc" />
  <path
     fill="#fffdde"
     d="m 190.95118,40.048735 c -3.56574,1.1952 -5.02634,-5.706861 -5.12836,-7.72321 -0.1391,-2.709735 2.54563,-4.548156 4.96143,-2.814658 q 2.87021,2.057397 3.15306,6.163061 c 0.1391,2.002654 -1.04793,3.722469 -2.98613,4.374807 z"
     id="path113"
     style="fill:none;stroke:#000000;stroke-width:0.459918" />
  <path
     fill="#fffdde"
     d="m 219.62013,36.803111 c -3.56574,1.195201 -5.02634,-5.706874 -5.12835,-7.72321 -0.13911,-2.709735 2.54563,-4.548169 4.96142,-2.814658 q 2.87021,2.057397 3.15306,6.163049 c 0.1391,2.002653 -1.04793,3.722481 -2.98613,4.374819 z"
     id="path113-6"
     style="fill:none;stroke:#000000;stroke-width:0.459918" />
  <path
     fill="#252004"
     d="m 219.85249,76.663289 q 0.62793,-0.122452 1.22823,-0.161924 1.45333,-0.08689 2.89087,-0.932023 1.01102,-0.592398 0.42258,0.422567 -0.8412,1.461241 -2.53149,2.065481 c -1.83248,0.655579 -3.65311,1.054462 -5.64355,1.12555 q -6.13325,0.213264 -12.17566,-0.829358 -8.72004,-1.500725 -16.12101,-4.30078 c -2.53545,-0.955719 -5.19333,-2.330083 -7.2667,-3.905844 q -1.35461,-1.026819 -1.20848,-2.51965 a 0.22510967,0.22510967 0 0 1 0.32383,-0.181661 q 2.37353,1.165035 4.52194,2.436709 2.73686,1.623152 6.36626,2.926429 c 3.9572,1.42569 8.179,2.653919 12.44423,3.266066 2.92642,0.41862 5.90024,1.050503 8.8543,1.168982 q 4.11516,0.161925 7.89465,-0.580544 z"
     id="path119"
     style="fill:none;stroke:#000000;stroke-width:0.394929" />
  <path
     fill="#fffdde"
     d="m 175.01259,91.649159 q 2.20766,0.5292 4.02433,1.05841 c 0.82935,0.2409 1.23219,1.10185 1.67845,1.99834 2.5315,4.715457 5.64354,8.858271 8.9175,13.241981 q 4.60883,6.1846 11.13305,11.74125 c 5.41449,4.61672 12.17568,9.2295 18.74729,13.04057 q 6.48871,3.76367 12.60221,7.32987 7.18771,4.19021 13.77513,10.18128 13.19064,11.99401 17.2426,30.04622 1.01893,4.52589 1.05446,7.63794 0,0.21326 -0.2093,0.25276 -0.68323,0.13032 -1.38226,0.0356 -0.61214,-5.79361 -2.86718,-11.07777 -1.79693,-5.93184 -5.48558,-12.01375 c -5.37498,-8.87011 -12.69302,-15.88009 -21.61842,-21.30248 -2.96592,-1.80482 -5.93973,-3.75577 -9.02018,-5.42633 -2.12867,-1.16109 -4.22969,-2.4604 -6.42551,-3.68074 q -3.55831,-1.97859 -7.38517,-4.70361 -4.68386,-3.34505 -10.5841,-7.87488 -2.53149,-1.94305 -6.51238,-6.33467 -1.7061,-1.72188 -3.3648,-3.53067 -1.16505,-1.26772 -2.18396,-2.64602 -0.75827,-1.03077 -2.94223,-4.45875 c -1.02286,-1.61527 -2.4288,-2.95407 -3.349,-4.60093 q -1.66265,-2.969874 -3.51486,-6.034521 -0.47392,-0.78591 -1.09396,-1.50073 -0.56475,-0.65559 -1.23613,-1.37831 z"
     id="path124"
     style="fill:none;stroke:#000000;stroke-width:0.394929" />
  <path
     fill="#fffdde"
     d="m 155.7762,142.95616 q 6.6348,3.53066 12.2586,8.51467 10.73417,9.5099 19.7978,20.97865 -2.11288,-0.6161 -3.96509,-2.4999 -4.60882,-4.68781 -9.20975,-9.40721 l -3.60176,-3.37271 q -2.40906,-2.13261 -8.30931,-6.61901 -4.00063,-3.04491 -7.42466,-4.79445 -4.80629,-2.4604 -11.43321,-4.49429 c -10.18128,-3.12389 -21.184,-2.93432 -31.19546,0.2883 q -1.0742,0.34754 -1.99834,0.73852 c -1.69424,0.71877 -3.50697,1.29141 -5.07879,2.10892 -6.425493,3.33716 -12.072983,7.63794 -15.907749,13.79488 -5.852848,6.37416 -8.222426,15.37855 -7.393074,23.89717 l -2.037834,0.0711 q -0.236962,0.008 -0.256708,-0.22511 c -1.054456,-13.22223 6.259631,-26.5195 16.298732,-34.43782 q 10.280013,-8.10396 22.747923,-10.16944 c 12.32574,-2.04179 25.64275,-0.36332 36.70868,5.62775 z"
     id="path128"
     style="fill:none;stroke:#000000;stroke-width:0.394929" />
  <path
     fill="#20b701"
     d="m 270.66774,164.83782 q 0.92018,4.67992 2.7724,8.85038 c 0.8728,1.96675 2.28269,3.92559 4.01644,5.01955 q 2.44855,1.54417 3.41612,2.61838 1.13741,1.26772 2.32614,3.0212 a 0.9596781,0.9596781 0 0 0 1.07026,0.38308 q 1.03472,-0.31199 0.86885,0.74247 c -3.93349,-0.0395 -7.92228,-0.45022 -11.53194,1.07025 q -1.58367,0.67139 -3.10809,1.42176 -0.21326,0.10669 -0.40678,-0.0356 -1.9391,-1.39805 -3.94139,-2.15632 a 0.28829835,0.28829835 0 0 1 -0.18562,-0.24485 q -0.20537,-2.44066 -0.53315,-4.79839 -2.02995,-14.67952 -10.78552,-26.56688 -1.06236,-1.43756 -3.74392,-4.63648 6.34255,0.15403 11.06591,3.44379 3.45169,2.40512 4.84577,3.23051 0.50947,0.30016 0.74642,1.10581 1.19664,4.08751 3.1081,7.53129 z"
     id="path135"
     style="fill:none;stroke:#000000;stroke-width:0.394929" />
  <path
     fill="#fba606"
     d="m 258.14059,174.27664 q 2.25505,5.28415 2.86718,11.07776 -5.66724,0.0671 -11.29498,0.0632 -1.16503,0 -3.27792,1.03868 -0.17771,0.0869 -0.35937,0.0113 -3.0923,-1.25589 -4.94452,-1.22823 -5.23282,0.075 -10.67099,0.11854 l -0.77406,-4.78655 q -0.0435,-0.27645 0.23696,-0.2725 13.78303,0.3278 26.61033,-4.79049 0.70692,-0.2804 0.67928,-1.01892 0.50945,-0.008 0.92809,-0.21326 z"
     id="path141"
     style="fill:none;stroke:#000000;stroke-width:0.394929" />
  <path
     fill="#f73e22"
     d="m 252.79324,249.17891 q -3.9414,0.10266 -7.81565,0.0315 c -2.76845,-0.0474 -3.78736,-1.88382 -4.59697,-4.34422 q -0.67533,-2.05364 -1.23614,-4.05198 a 0.80960494,0.80565565 82 0 0 -0.78195,-0.59239 l -4.44296,0.0113 a 0.4699658,0.4778644 9 0 0 -0.45022,0.33174 c -1.03866,3.22263 -2.35378,8.68055 -6.76118,8.68449 q -5.29205,0.008 -11.66226,0.0513 c -2.32219,0.0158 -3.40824,-0.72273 -4.53774,-2.70527 a 0.29224764,0.29224764 0 0 0 -0.41863,-0.0948 c -2.96987,2.04573 -5.46187,2.80794 -9.07942,2.80398 q -12.6022,-0.008 -26.18382,-0.0276 c -2.84743,-0.004 -4.6799,-1.48494 -4.70359,-4.5417 q -0.0987,-12.28624 0.0869,-32.04851 c 0.004,-0.42256 -0.0671,-1.29537 -0.15403,-1.57181 q -0.58844,-1.92725 -1.42964,-0.0987 c -2.11288,4.58512 -4.01248,9.46645 -6.66246,13.9173 -0.41072,0.68323 -0.67138,1.57972 -0.67532,2.37352 q -0.0474,8.06446 -0.0711,16.68181 c -0.0113,2.71712 -1.1453,5.24467 -4.11516,5.26046 q -5.72648,0.0315 -11.87947,0.083 -2.85534,0.0237 -4.10726,-0.63979 c -2.79216,-1.48887 -2.72108,-5.0393 -2.71713,-7.90649 q 0.0158,-6.31491 -0.004,-13.6132 c -0.004,-1.1611 -0.2172,-2.25505 -0.72271,-3.28582 q -2.23531,-4.55353 -4.32843,-9.11891 -0.80171,-1.75349 -1.83642,-3.27001 a 0.14612383,0.14612383 0 0 0 -0.26855,0.075 c -0.35939,7.52735 -3.19498,14.08318 -9.34402,18.7394 -4.05593,3.06859 -10.06675,4.26128 -15.22058,3.92954 q -0.24485,-0.0158 -0.25275,0.22906 -0.15797,4.26129 -0.11057,8.74768 c 0.0355,3.60175 -1.46914,5.41054 -5.18542,5.31181 q -5.063003,-0.13428 -9.513852,-0.32385 c -3.933496,-0.16587 -7.993367,-2.21555 -7.815653,-6.78094 q 0.08689,-23.91296 -0.122426,-47.82198 -0.0079,-0.79381 0.264603,-1.71794 c 0.58449,-1.9865 2.78425,-2.91853 4.766793,-2.92248 q 12.594295,-0.0356 26.152215,0.0114 4.45085,0.0158 8.19478,2.24321 a 1.0070696,1.0031203 39.2 0 0 1.18874,-0.11855 c 1.77323,-1.61527 3.43984,-2.44461 6.05821,-2.41697 4.1981,0.0435 9.17422,-0.31989 13.05242,0.39098 q 3.43192,0.63188 6.40574,3.45958 a 0.86094577,0.85699647 42.7 0 0 1.22823,-0.0474 c 2.5631,-2.83955 5.46583,-3.59781 9.11892,-3.59386 q 20.23222,0.0315 39.9471,0.075 c 8.85431,0.0198 17.15571,4.84579 20.96679,12.8984 a 0.26065331,0.26065331 0 0 0 0.47392,-0.008 q 1.82062,-4.22969 3.64124,-7.90252 2.5315,-5.09064 7.92228,-5.17357 4.69571,-0.0711 7.89069,0.0552 2.90668,0.11842 5.44607,2.12077 0.24486,0.19353 0.37913,-0.0869 0.90439,-1.90356 3.17919,-1.91936 5.89629,-0.0395 12.59824,-0.0395 1.40595,0 2.44067,0.30014 c 1.97464,0.56869 3.85845,2.02993 5.29994,3.49908 a 0.27250119,0.27645047 43.6 0 0 0.40283,-0.0113 q 3.3016,-3.78737 8.15923,-3.77158 6.07797,0.0237 12.75227,0.0513 c 2.90274,0.0158 5.67514,1.89566 5.03931,5.16568 q -0.28436,1.45333 -1.05052,3.12783 -5.66724,12.38498 -12.58245,28.1624 c -0.81751,1.86407 -1.09,3.72025 -1.07815,5.73832 q 0.0356,5.46978 -0.075,11.20021 c -0.0711,3.70048 -2.77635,5.53294 -6.17668,5.73042 q -5.25257,0.30805 -10.44983,0.16982 -1.88777,-0.0474 -3.49514,-1.15714 a 0.60424175,0.59634317 42.8 0 0 -0.71877,0.0237 q -0.86489,0.69112 -1.80088,1.35065 -0.62003,0.44233 -1.70213,0.51342 -2.38933,0.15401 -4.71941,0.17376 z M 149.69302,208.22475 q -0.48182,-0.40282 -0.78197,-1.04656 -3.45169,-7.41281 -6.75724,-14.24114 a 0.86094577,0.86094577 0 0 0 -0.78196,-0.48577 l -10.92769,0.0474 a 0.51735731,0.51340803 85.8 0 0 -0.50551,0.58843 q 0.18561,1.32696 0.77801,2.5473 6.24778,12.92209 12.72463,26.00214 c 0.50551,1.02286 0.71876,1.75349 0.71876,2.82374 q 0.0158,8.34881 -0.008,16.40931 a 0.80565565,0.80565565 0 0 0 0.80961,0.80961 l 9.67972,-0.0356 q 0.81354,0 0.82145,-0.81356 0.0908,-7.44047 0.0198,-15.44174 -0.0158,-1.9312 0.60819,-3.13573 7.31803,-14.06739 14.06737,-28.83773 0.11451,-0.25277 0.0513,-0.52921 a 0.51340803,0.51735731 84.8 0 0 -0.48181,-0.39888 q -5.42632,-0.22116 -10.77367,0.0513 a 0.79775712,0.79380781 11.5 0 0 -0.67533,0.44627 q -3.50697,7.20351 -6.83228,13.92126 -0.41468,0.83724 -1.1374,1.34671 a 0.50156015,0.50550944 47.7 0 1 -0.61608,-0.0276 z m 92.8834,23.81029 q 0.14612,0.14217 0.19746,0.33965 1.19664,4.45874 2.99752,8.81481 c 0.17376,0.41863 0.5766,0.62004 1.01496,0.61609 q 5.06695,-0.0552 10.24448,-0.16587 a 0.31199411,0.31199411 0 0 0 0.29224,-0.41072 q -0.23696,-0.71878 -0.51341,-1.54813 -7.08108,-21.44071 -15.98279,-47.00053 -0.0552,-0.16192 -0.2251,-0.16982 -3.83476,-0.19746 -7.49576,0.0158 a 0.67532899,0.67137969 8.1 0 0 -0.5924,0.44231 l -17.66123,48.20902 a 0.35543633,0.34753774 44.5 0 0 0.004,0.24485 q 0.10265,0.28041 0.32383,0.28041 5.41448,0.0158 10.59596,0.0237 a 1.3783031,1.3743538 9.6 0 0 1.30721,-0.92808 l 2.86323,-8.37249 a 0.6832276,0.6832276 0 0 1 0.63979,-0.45813 l 11.7294,-0.0395 a 0.38308137,0.3712335 66.3 0 1 0.26066,0.10657 z m -142.06789,-4.7352 q 0.0908,-0.0356 0.22116,-0.0395 3.84661,-0.0593 7.70507,-0.083 2.72106,-0.0198 6.15299,-1.28351 c 6.26753,-2.29849 10.46563,-8.52653 10.94744,-15.02707 0.41468,-5.65933 -0.8175,-10.91584 -5.13408,-14.78219 -2.49595,-2.23135 -5.76597,-3.50302 -9.03993,-3.54252 q -10.48932,-0.13032 -22.064699,-0.0237 a 0.35543633,0.35938562 0 0 0 -0.355436,0.3594 l 0.03158,48.14977 a 0.48181369,0.48181369 0 0 0 0.481812,0.48181 l 9.59678,0.0158 q 1.078163,0.004 1.090003,-1.07027 l 0.16193,-12.85493 a 0.3198927,0.32779128 78.8 0 1 0.20536,-0.30016 z m 75.95278,14.33988 q 9.87324,0.0632 19.09089,0.15403 5.04718,0.0474 7.70901,-0.69507 6.31097,-1.76929 9.84954,-7.13243 3.30951,-5.01166 3.49512,-11.12911 0.17772,-5.97923 -0.0552,-11.92687 -0.44626,-11.50428 -11.06591,-16.70945 -3.38455,-1.66265 -7.25089,-1.67449 -11.37398,-0.0395 -22.34905,0.0434 a 0.19746463,0.19746463 0 0 0 -0.19746,0.19747 q -0.0356,24.37109 -0.0276,46.78726 0,0.75038 0.12637,1.51258 a 0.68717689,0.69112619 85.5 0 0 0.67533,0.57265 z m 93.91024,-33.43076 q -0.55686,-0.5529 -0.88859,-1.24008 -3.65705,-7.5313 -6.54794,-14.09107 a 0.67137969,0.66743047 77.9 0 0 -0.61213,-0.39889 l -11.21205,0.008 a 0.28829835,0.28434906 83.1 0 0 -0.27646,0.35544 q 0.29621,1.22033 0.88861,2.55519 6.22013,13.98839 13.17089,27.3212 c 0.2488,0.47787 0.44231,1.10975 0.44231,1.64291 q 0.0198,8.52257 0.0671,16.56729 a 0.72666981,0.72666981 0 0 0 0.72667,0.7227 l 9.17816,0.004 q 1.09,0 1.0979,-1.09396 0.0552,-7.87094 0.0315,-15.57601 c 0,-1.10975 0.18562,-2.32614 0.67533,-3.33321 q 6.30701,-12.98527 12.70093,-26.92627 0.44626,-0.97548 0.44232,-2.06943 a 0.18561675,0.18166746 0 0 0 -0.18562,-0.18167 l -11.11331,0.0198 a 0.62398822,0.62003893 12.3 0 0 -0.56475,0.35938 q -3.35689,7.21141 -6.73354,14.03974 -0.34754,0.69507 -0.96363,1.31511 -0.16192,0.16193 -0.32385,0 z"
     id="path143"
     style="fill:none;stroke:#000000;stroke-width:0.394929" />
  <path
     fill="#f73e22"
     d="m 113.86109,207.65211 c 0.67532,5.32759 -2.29455,8.9175 -7.70902,8.98859 q -2.89878,0.0356 -5.76202,-0.0554 -0.23301,-0.008 -0.23301,-0.24091 v -13.31306 a 0.48576298,0.48576298 0 0 1 0.48971,-0.48576 q 2.59074,0.0276 5.18542,-0.0395 3.51488,-0.0948 4.91688,0.60818 2.71315,1.36251 3.11204,4.53774 z"
     id="path150"
     style="fill:none;stroke:#000000;stroke-width:0.394929" />
  <path
     fill="#f73e22"
     d="m 205.42246,213.1579 c 0.93169,10.18914 -3.1656,17.0549 -10.63553,17.19086 q -3.99923,0.068 -7.94941,-0.10581 -0.32147,-0.0151 -0.32147,-0.46073 v -25.4615 a 0.67016912,0.92903101 0 0 1 0.67563,-0.92902 q 3.57423,0.0528 7.15391,-0.0755 4.8492,-0.18128 6.78343,1.16317 3.74313,2.60583 4.29344,8.67851 z"
     id="path150-4"
     style="fill:none;stroke:#000000;stroke-width:0.394929;stroke-dasharray:none" />
  <path
     fill="#f73e22"
     d="m 233.36667,221.58917 2.70527,-7.96177 a 0.34753774,0.34753774 0 0 1 0.65953,0.004 l 2.56704,8.00916 a 0.34753774,0.34753774 0 0 1 -0.33569,0.45417 l -5.26835,-0.0474 a 0.34753774,0.34753774 0 0 1 -0.3278,-0.45812 z"
     id="path153"
     style="fill:none;stroke:#000000;stroke-width:0.394929" />
  <ellipse
     style="fill:none;stroke:#000000;stroke-width:0.395012;stroke-dasharray:none"
     id="path154"
     cx="176.67584"
     cy="59.894844"
     rx="13.873196"
     ry="16.90489"
     transform="matrix(0.99351815,-0.11367363,0.14236303,0.98981451,0,0)" />
  <text
     xml:space="preserve"
     style="font-size:31.5943px;font-family:Arial;-inkscape-font-specification:Arial;text-align:center;text-anchor:middle;fill:none;stroke:#000000;stroke-width:0.394929"
     x="189.12071"
     y="297.7124"
     id="text1"><tspan
       sodipodi:role="line"
       id="tspan1"
       x="189.12071"
       y="297.7124"
       style="font-size:31.5943px;stroke-width:0.394929">Valparaiso</tspan></text>
  <text
     xml:space="preserve"
     style="font-size:42.1259px;font-family:Arial;-inkscape-font-specification:Arial;text-align:center;text-anchor:middle;fill:none;stroke:#000000;stroke-width:0.394929"
     x="191.2373"
     y="355.33737"
     id="text1-1"><tspan
       sodipodi:role="line"
       id="tspan1-3"
       x="191.23732"
       y="355.33737"
       style="font-size:42.1259px;stroke-width:0.394929">Sebastián</tspan></text>
</svg>
