<?xml version="1.0" encoding="UTF-8" standalone="no"?>
<svg
   height="5.6213593cm"
   version="1.2"
   width="10cm"
   id="svg1"
   sodipodi:docname="tmp.svg"
   inkscape:version="1.3.2 (091e20e, 2023-11-25)"
   xmlns:inkscape="http://www.inkscape.org/namespaces/inkscape"
   xmlns:sodipodi="http://sodipodi.sourceforge.net/DTD/sodipodi-0.dtd"
   xmlns="http://www.w3.org/2000/svg"
   xmlns:svg="http://www.w3.org/2000/svg">
  <sodipodi:namedview
     id="namedview1"
     pagecolor="#ffffff"
     bordercolor="#000000"
     borderopacity="0.25"
     inkscape:showpageshadow="2"
     inkscape:pageopacity="0.0"
     inkscape:pagecheckerboard="0"
     inkscape:deskcolor="#d1d1d1"
     inkscape:zoom="0.40759931"
     inkscape:cx="515.21186"
     inkscape:cy="289.5"
     inkscape:window-width="1248"
     inkscape:window-height="426"
     inkscape:window-x="0"
     inkscape:window-y="0"
     inkscape:window-maximized="0"
     inkscape:current-layer="svg1"
     inkscape:document-units="cm" />
  <defs
     id="defs1" />
  <path
     d="M 11.150821,2.7792663 2.7792662,11.150821 M 21.776402,2.7792663 2.7792662,21.776402 M 32.401983,2.7792663 2.7792662,32.401983 M 43.027562,2.7792663 2.7792662,43.027563 M 53.653147,2.7792663 2.7792662,53.653147 M 74.904308,2.7792663 2.7792662,74.904308 M 85.529889,2.7792663 2.7792662,85.529889 M 96.155469,2.7792663 2.7792662,96.155469 M 14.721568,94.83875 2.7792662,106.78105 m 5.9784767,4.64711 -5.9784767,5.97847 M 107.79157,76.147817 2.7792662,181.16012 M 170.62933,34.56122 2.7792662,202.41128 M 183.95822,31.857902 2.7792662,213.03686 M 64.278727,2.7792663 3.3137525,63.744242 M 118.77097,75.793995 4.1813186,190.38365 M 97.015718,76.298085 5.6447807,167.66902 M 86.239869,76.448354 9.3535091,153.33471 M 186.767,39.674714 9.5299603,216.91175 M 75.46402,76.598622 12.175669,139.88697 M 65.012522,76.424536 15.350532,126.08653 M 54.776362,76.035115 19.139776,111.6717 M 194.52851,42.538777 20.155541,216.91175 M 106.78105,2.7792663 21.478257,88.082059 M 117.40663,2.7792663 22.072089,98.113808 M 198.2293,49.463574 30.781123,216.91175 M 203.19976,55.118696 41.406704,216.91175 M 203.51994,65.424092 52.032284,216.91175 M 204.30923,75.260384 62.657865,216.91175 M 204.4544,85.74079 73.283445,216.91175 M 128.03221,2.7792663 73.747748,57.063729 M 203.87951,96.941272 83.909026,216.91175 M 138.6578,2.7792663 91.886753,49.550308 M 204.25132,107.19504 94.53461,216.91175 m 109.78487,-99.15929 -99.15929,99.15929 M 149.28338,2.7792663 106.26904,45.793598 M 329.91825,2.7792663 115.78577,216.91175 M 159.15761,3.5306084 117.2703,45.417927 M 276.05666,67.266435 126.41135,216.91175 M 165.27894,29.286028 126.96446,67.600501 M 165.35998,7.9538229 130.52472,42.789079 M 157.9314,26.007986 136.70599,47.233399 M 280.7311,73.217583 137.03693,216.91175 M 267.18951,97.384755 147.66251,216.91175 M 280.26025,94.939591 158.28809,216.91175 M 277.44262,108.3828 168.91367,216.91175 M 289.00979,107.44121 179.53926,216.91175 M 308.62622,98.450365 190.16484,216.91175 M 310.12597,107.5762 200.79042,216.91175 M 262.06935,28.125839 207.1049,83.090292 M 319.29267,2.7792663 207.44282,114.62912 M 315.25055,113.0772 211.416,216.91175 M 252.37173,27.197883 211.54806,68.021549 M 244.81462,24.129415 212.02,56.924032 M 269.68594,31.134839 212.2381,88.582674 M 227.83215,30.486301 215.83474,42.483707 M 308.66709,2.7792663 219.1616,92.284758 m 100.41786,27.089112 -97.53788,97.53788 m 101.79115,-91.16557 -91.16557,91.16557 m 95.68392,-85.05834 -85.05834,85.05834 m 88.40406,-77.77847 -77.77848,77.77847 m 81.03656,-70.41098 -70.41097,70.41098 m 72.86615,-62.24058 -62.24057,62.24058 M 340.54383,2.7792663 280.62431,62.698794 m 11.04543,10.205731 -10.64401,10.644011 m 9.75557,11.495593 -9.33729,9.337291 m 57.75925,59.12213 -53.40819,53.4082 M 302.86509,72.334756 290.33646,84.863384 M 351.16941,2.7792663 290.87422,63.074465 m 8.59378,33.90854 -8.11865,8.118645 M 298.04151,2.7792663 295.42699,5.3937845 M 340.63262,172.69978 296.42065,216.91175 M 313.80999,72.015436 299.08368,86.74174 M 361.795,2.7792663 301.4998,63.074465 m 41.9624,117.421315 -36.41597,36.41597 M 325.11178,71.339228 307.83091,88.620095 M 372.42058,2.7792663 311.74971,63.450136 m 24.45724,7.419503 -20.75583,20.755824 m 30.53546,96.971517 -28.31477,28.31477 M 383.04617,2.7792663 322.37529,63.450136 m 25.11466,6.762079 -23.4755,23.475498 m 24.13831,103.368657 -19.85537,19.85538 M 358.74165,69.586095 331.44289,96.884857 m 54.89649,-86.77323 -54.08985,54.089851 m 54.08985,-11.587527 -48.39353,48.393519 m 12.04686,104.83454 -11.06974,11.06974 M 386.33938,20.737208 342.10052,64.976067 m 44.23886,-1.736536 -41.95372,41.953719 m 7.85567,109.02573 -2.69277,2.69277 M 386.33938,73.865112 350.63763,109.56686 m 35.70175,-78.204071 -34.60049,34.600489 m 11.60816,41.519742 -5.70611,5.70611 m 28.69844,77.55738 -26.16524,26.16524 M 386.33938,41.98837 360.74523,67.582517 m 4.1401,48.987813 -2.10345,2.10345 m 23.5575,-34.183088 -20.99719,20.997188 M 386.33938,95.116277 368.42115,113.0345 m 0.0988,84.90586 -0.0249,0.0249 m 17.84437,3.40679 -15.53966,15.53966 m 13.3531,-34.60428 -13.02812,13.02813 m 15.21468,-89.59374 -14.87116,14.87116 m 14.87116,-4.24558 -11.63306,11.63305 m 11.63306,-1.00747 -7.25943,7.25944 m 7.25943,77.74521 -4.91408,4.91408 m 4.91408,-79.29315 -1.94665,1.94665 M 6.1594921,34.334548 2.7792662,37.714774 m 7.7706268,2.854953 -7.7706268,7.770628 M 3.2225568,69.148228 2.7792662,69.591516 M 23.157169,59.839194 2.7792662,80.217097 M 20.169772,73.452174 2.7792662,90.842681 M 14.256418,89.99111 2.7792662,101.46826 m 5.3155012,5.31008 -5.3155012,5.3155 M 19.107514,53.263268 3.726059,68.644724 M 14.835324,46.909878 4.0786702,57.666531 M 29.41491,181.08843 11.769992,198.73334 M 150.25082,70.878107 12.822559,208.30636 M 155.91111,75.843388 14.842751,216.91175 M 163.60196,78.778115 25.468332,216.91175 M 33.200081,81.673028 30.198982,84.674125 M 171.94335,38.55999 35.638044,174.86529 M 161.51229,91.493373 36.093913,216.91175 M 44.454628,81.044061 38.402149,87.096538 M 180.32824,83.303001 46.719496,216.91175 M 54.892373,81.231897 49.460335,86.663938 M 121.31025,78.567506 50.283261,149.5945 M 200.85949,73.39733 57.345076,216.91175 M 108.1359,81.116273 59.442575,129.8096 m 5.965806,-48.468131 -4.718315,4.718315 M 114.5785,170.3039 67.970657,216.91175 M 76.03918,81.336251 71.846087,85.529348 M 111.86586,183.64212 78.596237,216.91175 M 86.800419,81.200592 82.782828,85.218183 M 114.57296,191.5606 89.221818,216.91175 M 97.582531,81.044061 93.909302,84.71729 m 21.064498,117.06806 -15.126401,15.1264 m 19.343601,-8.71802 -7.49462,7.49462 m 18.2878,-7.66222 -8.88562,8.88562 m 2.32895,-23.58011 -1.48387,1.48387 M 203.08868,81.793724 124.39765,160.48476 m 15.63629,26.86603 -15.32995,15.32994 m 14.19473,-24.8203 -14.18655,14.18655 m 8.04289,-18.66848 -4.92689,4.92689 M 164.92996,34.947791 127.94392,71.933836 m 4.5911,91.039134 -4.00877,4.00876 m 9.68322,43.4447 -6.48533,6.48532 m 70.60205,-113.10437 -64.45114,64.45114 m 64.8466,-75.472185 -63.22782,63.227815 m 10.85739,31.64494 -10.28814,10.28814 M 154.90705,34.345119 140.38301,48.869168 M 197.40637,151.22952 140.4627,208.1732 m 4.47263,6.15294 -2.32524,2.32524 M 264.57544,94.686036 148.0372,211.22427 m 55.1472,-97.64953 -51.24456,51.24457 m 11.2269,-106.857134 -10.69862,10.69863 m 0.68651,148.071624 -0.17932,0.17932 M 261.80444,108.08262 157.92377,211.96328 m 40.56246,-83.06479 -40.06795,40.06795 m 34.85671,-24.23112 -33.33662,33.33662 m 6.24628,-112.502091 -4.82942,4.829423 m 80.22913,68.529008 -77.98347,77.98347 M 175.01941,77.986253 164.80745,88.198216 m 16.73147,-27.357059 -11.37883,11.378831 m 79.1576,69.600532 -75.09122,75.09123 m 8.586,-178.595306 -8.3532,8.353208 m 24.07587,7.800865 -19.38742,19.387427 m 8.5221,-29.773266 -6.66848,6.668484 m 11.10901,-0.483429 -8.82116,8.821154 M 287.32671,114.43708 184.85205,216.91175 m 15.11793,-153.250494 -13.0493,13.049308 m 57.33995,17.039112 -48.82821,48.828214 M 299.11347,113.27591 195.54629,216.84308 m 48.50349,-112.25697 -44.14232,44.14232 m 4.60844,-25.8596 -1.25559,1.25559 m 96.21652,-0.58629 -93.37362,93.37362 m 8.34956,-103.97979 -7.02113,7.02113 m 13.95052,-45.827266 -8.86852,8.868526 m 18.52869,-29.154273 -18.3358,18.335796 m 2.04202,29.834727 -1.84315,1.84314 M 244.75816,29.498664 214.16,60.096825 m 22.41841,30.709498 -21.46643,21.466427 m 98.49859,7.75722 -96.88178,96.88178 m 8.71122,-136.218197 -8.55753,8.557537 m 13.01155,-55.513875 -12.49738,12.497376 m 25.0174,28.110512 -20.53176,20.531755 m 17.69706,-38.948219 -12.40522,12.40522 m 91.12862,57.629501 -90.94838,90.94839 m 14.5395,-152.672055 -4.78085,4.780854 m 84.48115,64.276981 -83.61422,83.61422 m 12.45352,-139.960489 -11.68575,11.68575 m 16.21942,-58.721747 -11.51495,11.514949 m 25.62338,70.006847 -24.51758,24.51758 m 5.97631,-37.853052 -3.34509,3.345102 m 3.24734,-45.749675 -2.79085,2.790849 m 80.4957,78.888026 -79.53587,79.53586 m 4.16572,-131.672695 -3.0475,3.047508 m 23.06478,-44.315946 -22.80024,22.800244 m 13.00279,-34.253954 -9.91785,9.917847 m 5.26139,37.240937 -3.66793,3.667931 m 14.60766,-46.484408 -11.25904,11.25904 m 5.76977,15.481396 -4.56804,4.568039 m 72.19964,76.558491 -72.18557,72.18557 m 14.90826,-99.9129 -12.04967,12.04966 m 8.46439,-29.715548 -7.24697,7.246968 m 11.64609,-54.148413 -8.33504,8.335043 m 7.94201,2.683576 -5.94,5.939994 m 5.85194,4.773644 -5.0392,5.039195 m 65.14767,72.984891 -64.72389,64.72389 M 284.06884,96.443789 272.61121,107.90142 m 8.6501,-29.901256 -1.72905,1.729049 m 56.41189,81.720667 -55.46187,55.46187 m 12.98687,-119.242683 -5.13178,5.131783 m 3.85535,-25.10652 -2.07066,2.070661 m 47.00441,91.128139 -46.01861,46.01862 m 10.90604,-117.161857 -2.52589,2.525897 m 3.70684,-24.958006 -2.53665,2.536655 m 37.03178,101.100771 -35.95654,35.95654 m 8.3961,-114.65191 -6.13054,6.13054 m 10.18579,-31.436959 -2.9189,2.918907 m 30.8637,107.268852 -29.77057,29.77057 m 12.80615,-140.313128 -3.32737,3.327371 m 13.80286,124.329697 -12.65606,12.65606 m 13.18183,-140.688799 -3.64938,3.649377 m 14.10002,124.032532 -13.00689,13.00689 m 10.89235,-21.51794 -4.80897,4.80898 m 7.41151,-124.292897 -3.97586,3.97585 m 5.32515,132.807407 -4.2186,4.2186 m 13.74534,-141.252306 -4.08543,4.085423 m 14.89884,-4.273258 -4.50805,4.508052 m 15.39659,-4.771022 -4.58317,4.583187 m 11.2395,-0.613922 -0.46782,0.467827 M 3.9145462,39.235889 2.7792662,40.37117 m 3.4071048,1.905685 -2.0531577,2.053159 m 4.252997,1.05979 -2.3072643,2.307267 m 4.813676,0.499112 -2.4797135,2.479715 m 4.5889375,0.723854 -2.214295,2.214295 m 9.798985,133.646363 -8.160756,8.16075 M 15.293123,54.421266 12.51875,57.195638 M 116.30294,112.79517 13.232891,215.86521 M 110.56636,107.90617 13.574505,204.89802 M 18.181778,67.470981 13.673726,71.979033 M 32.099584,181.06015 13.707945,199.45179 m 3.785428,-141.917984 -2.911659,2.911661 m 96.314646,52.443493 -96.30299,96.30298 m 4.949985,-148.395326 -4.742616,4.742618 m 66.559528,87.511398 -63.861121,63.86112 m 55.157289,-49.8445 -49.844498,49.8445 M 64.401861,180.63462 28.124727,216.91175 M 55.152375,195.19689 33.437518,216.91175 M 108.45822,104.70151 36.754184,176.40555 m 10.29488,32.20744 -8.298756,8.29876 M 93.546603,114.30034 46.209271,161.63767 m 41.740953,-47.05374 -36.858199,36.8582 m 34.110102,-39.4229 -28.568042,28.56805 m 50.936355,28.7555 -47.568971,47.56897 M 90.390437,101.51813 60.010875,131.89769 m 48.410755,31.28111 -45.85801,45.858 m 41.88323,-31.25764 -39.132589,39.13259 M 108.81464,157.473 66.148326,200.13931 m 16.287198,-95.97905 -13.597398,13.59739 m 41.942194,32.43687 -41.143453,41.14346 m 32.838673,-6.27472 -31.848487,31.84849 m 40.908977,-72.78572 -38.437261,38.43726 m 28.604311,8.58522 -25.763239,25.76324 M 149.38252,100.96674 76.468106,173.88116 M 147.03283,98.003647 79.736072,165.3004 m 20.744498,32.38342 -19.227936,19.22793 m 29.287396,-87.7281 -26.881423,26.88143 m 8.741733,-51.24406 -5.867353,5.86735 m 13.622233,92.63358 -13.589798,13.5898 m 25.630128,-94.69641 -25.003336,25.00334 m 6.623445,-38.50019 -2.817533,2.81754 m 9.267774,96.98804 -8.387686,8.38768 M 94.68717,97.221402 93.913615,97.994957 M 109.37418,98.472762 94.630534,113.21641 M 106.3368,96.197345 96.32135,106.2128 m 4.28226,107.28634 -3.412607,3.41261 m 6.303407,-123.184791 -6.180927,6.180919 m 11.060337,-5.747552 -1.28202,1.282018 m 8.08408,108.797326 -3.3487,3.34869 m 8.72495,-104.35518 -7.66317,7.66318 m 35.27499,-45.900578 -33.9145,33.914502 M 143.7446,64.102342 114.54139,93.305546 m 27.08589,-16.4603 -26.1772,26.177194 m 36.32998,0.85956 -34.52465,34.52464 m 3.29672,-29.86067 -1.86304,1.86304 m 5.20739,5.41819 -3.60995,3.60995 m 23.59223,-2.34106 -21.76527,21.76527 m 6.03337,68.34569 -5.61935,5.61935 m 5.22152,0.0913 -3.99407,3.99407 m 4.67983,-15.30541 -2.4035,2.40349 M 142.08426,81.701057 126.56287,97.222446 m 19.59661,22.905704 -19.50612,19.50613 m 3.20894,55.23176 -2.78678,2.78678 m 2.54647,-7.85926 -2.50541,2.5054 M 142.71672,86.381381 127.65437,101.44373 m 15.91382,-10.60103 -15.50264,15.50264 m 17.07112,-11.758327 -17.05004,17.050037 m 2.79071,50.3372 -2.38139,2.38139 m 2.14563,19.10553 -1.4352,1.43521 m 3.16283,-8.47563 -2.38536,2.38536 m 3.1809,-24.43206 -2.76566,2.76566 m 30.60449,-46.54286 -30.44264,30.44264 m 3.96589,6.65969 -3.87854,3.87854 m 37.9221,-43.2349 -37.54859,37.5486 m 4.36731,48.7606 -2.34239,2.34239 m 6.97647,-134.483451 -6.88608,6.886083 m 2.86232,140.583028 -2.48967,2.48966 M 196.30771,85.918299 140.45191,141.7741 M 198.2417,89.297103 144.6577,142.8811 m 10.0605,-36.62446 -7.5701,7.57011 M 200.00655,92.845037 149.26519,143.5864 m 8.16978,-34.73374 -4.99911,4.99912 m 30.39745,1.47929 -29.5592,29.5592 m 4.09482,54.34587 -0.95824,0.95825 m 26.45113,-79.57904 -24.96586,24.96586 m 4.06075,65.00553 -1.07865,1.07864 m 38.43976,-102.19324 -36.92639,36.92639 m 19.46026,49.60601 -16.97038,16.97039 m 16.70595,-22.01874 -15.57894,15.57893 m 5.94717,-21.88553 -5.94615,5.94614 m 14.98826,-4.36267 -14.83901,14.839 m 28.35154,-12.41316 -28.25285,28.25285 m 3.54412,-35.42086 -3.30098,3.30098 m 31.56516,-68.7547 -31.53827,31.53827 m 5.34364,42.47148 -5.23551,5.23551 m 3.66388,-19.60226 -2.70449,2.70449 m 5.71881,-26.96997 -5.25841,5.25842 m 3.34631,12.59205 -3.25991,3.25992 m 12.48092,-23.10651 -12.47213,12.47214 m 4.02707,1.28571 -3.8306,3.83061 m 13.94946,-29.88783 -13.65199,13.65199 m 26.42624,42.64003 -23.50053,23.50053 m 9.60829,-36.17224 -9.15033,9.15033 m 3.55991,-40.74944 -1.33784,1.33783 m 10.1661,5.77227 -10.03877,10.03877 m 7.64838,8.29 -7.43558,7.43557 m 9.54422,-20.1698 -9.41056,9.41056 m 9.25281,-19.87839 -9.12223,9.12223 m 8.49954,7.43884 -8.23566,8.23566 m 20.6619,21.84042 -18.89739,18.89739 m 5.09297,-74.15925 -2.45996,2.45996 m 16.63217,57.7469 -13.95239,13.95239 m 16.45204,-96.14389 -14.94796,14.94796 m 6.12643,-0.81365 -4.39549,4.3955 m 8.47316,44.65474 -8.17278,8.17277 m 14.43414,-94.125996 -12.87488,12.874886 m 9.14737,97.10844 -8.92924,8.92924 m 11.44623,-112.38925 -10.76001,10.76001 m 5.04981,64.01647 -4.88372,4.88372 m 4.38484,-9.69763 -3.82133,3.82133 m 3.1932,-8.506 -2.25403,2.25403 m 1.21192,-6.52471 -0.46057,0.46058 m 4.19248,-83.884345 -3.50124,3.501251 m 5.17874,127.641014 -1.04334,1.04334 m 15.27657,-84.34284 -2.0678,2.06779 m 4.72419,0.5886 -3.60038,3.60039 m 5.95329,-0.64051 -5.16869,5.1687 m 7.59737,-2.28459 -5.68435,5.68436 m 7.91683,-2.60404 -5.71658,5.71658 m 8.13585,-2.82307 -6.42989,6.4299 m 10.39614,-5.08335 -8.64092,8.64092 m 3.67249,-51.4876 -2.08128,2.08128 m 5.53047,47.59743 -5.44274,5.44274 m 6.28559,-0.97281 -4.71398,4.71399 m 5.89727,-0.58448 -4.31544,4.31544 m 2.53458,-50.34969 -1.93342,1.93341 m 7.00844,51.43227 -6.27508,6.27508 m 4.62758,-9.94038 -4.50734,4.50734 m 1.31983,-49.13494 -0.39918,0.39918 m 6.03424,52.40645 -5.79394,5.79394 m 7.09293,-1.78014 -5.00894,5.00895 m 2.3951,-34.27186 -1.11929,1.11929 m 5.48866,31.70089 -4.68887,4.68887 m 6.9761,-1.66332 -4.94634,4.94634 m 6.32198,-1.00919 -4.00508,4.00508 m 5.1433,0.16949 -3.91106,3.91107 m 4.70641,0.60637 -4.14291,4.14291 m 6.20976,-0.89696 -4.94634,4.94633 m 7.32898,-2.01619 -5.23609,5.23609 m 7.56667,-2.25388 -5.47575,5.47575 m 7.75266,-2.43987 -5.47952,5.47953 m 7.67671,-2.36392 -5.33107,5.33107 m 7.50591,-2.19312 -2.19312,2.19312 m 13.50031,-71.941 -1.12702,1.12701 m 8.77542,-3.46263 -2.71129,2.71129 m 9.06951,-3.75671 -0.75135,0.75134 m 10.94786,-5.63506 -4.53893,4.53892 m 4.98982,69.38926 -3.00537,3.00536 m 2.25402,3.05877 -0.21345,0.21345 m 16.90418,-0.96581 -0.96581,0.96581 m 16.26065,-5.63507 -2.30756,2.30756 m 4.50806,0.80474 -2.52277,2.52277"
     fill="none"
     stroke="#000000"
     id="path1"
     style="stroke-width:0.375671" />
</svg>
