<?xml version="1.0" encoding="UTF-8" standalone="no"?>
<svg
   height="11.24031cm"
   version="1.2"
   width="20cm"
   id="svg1"
   xmlns="http://www.w3.org/2000/svg"
   xmlns:svg="http://www.w3.org/2000/svg">
  <defs
     id="defs1" />
  <path
     d="M 15.933263,2.8539631 2.8539625,15.933953 M 32.534142,2.8539631 2.8539625,32.535708 M 35.722026,16.267666 2.8539625,49.137463 M 34.548166,34.043341 2.8539625,65.739214 M 55.384171,29.807992 2.8539625,82.340974 M 20.455414,81.340347 2.8539625,98.942727 M 21.806411,96.591034 2.8539625,115.54448 m 7.5075035,9.09385 -7.5075035,7.5079 M 17.694746,133.90642 2.8539625,148.74799 M 42.628899,125.57271 2.8539625,165.34974 M 52.212476,132.59038 2.8539625,181.9515 M 62.163966,139.24012 2.8539625,198.55325 M 69.331915,148.67355 2.8539625,215.15501 M 72.598402,162.00864 2.8539625,231.75676 M 88.554286,162.65367 2.8539625,248.35852 M 142.47636,125.33051 2.8539625,264.96027 M 135.7187,148.69028 2.8539625,281.56202 M 141.58766,159.42277 2.8539625,298.16378 M 187.8686,129.74114 2.8539625,314.76553 M 197.47062,136.74036 2.8539625,331.36729 M 206.74236,144.06989 2.8539625,347.96905 M 236.47709,130.93535 2.8539625,364.5708 M 243.54668,140.46714 2.8539625,381.17255 M 249.69859,150.91666 2.8539625,397.77431 M 238.36076,178.85684 2.8539625,414.37606 M 277.47312,156.34418 10.713569,423.11779 M 33.452514,101.54607 15.843487,119.15603 M 38.784289,79.612258 23.232639,95.164732 M 35.629881,66.165077 24.961448,76.834074 M 69.149621,82.448839 26.117947,125.48278 M 294.07399,156.34418 27.314448,423.11779 M 45.838279,89.159649 37.550601,97.447768 M 57.402778,44.391033 39.607664,62.187087 M 63.014257,5.5757495 40.026177,28.565042 M 49.135021,2.8539631 40.710928,11.2785 M 340.38881,126.62868 43.915327,423.11779 M 68.90851,66.088203 48.238335,86.759467 M 66.185197,52.209906 50.278531,68.117408 M 339.59405,144.02523 60.516208,423.11779 M 335.85513,164.3661 77.117086,423.11779 M 140.80968,110.39552 93.289546,157.91816 M 233.44523,283.38316 93.717964,423.11779 M 118.98516,99.017682 96.577744,121.42628 M 132.3877,102.2162 100.5303,134.07528 M 239.77696,293.65285 110.31884,423.11779 M 242.44705,307.58437 126.91972,423.11779 M 256.99452,309.63788 143.5206,423.11779 m 45.99471,-311.6252 -35.83135,35.83324 M 277.90898,305.32408 160.12148,423.11779 M 190.33314,94.072955 161.56991,122.83771 m 32.78868,-49.392172 -18.37603,18.377004 m 5.68932,-22.291374 -5.44165,5.441929 M 448.20658,151.61925 176.72235,423.11779 m 35.37254,-18.77265 -18.77165,18.77265 m 29.36383,-12.76363 -12.76295,12.76363 m 11.39187,-293.62229 -10.18217,10.1827 m 282.2468,-16.63361 -273.08493,273.09933 m 15.97419,17.22847 -9.74489,9.7454 M 379.39763,253.63535 233.80905,399.2316 M 367.52067,149.30065 238.43557,278.39256 m 24.19746,-123.80927 -22.44176,22.44295 m 3.35192,245.67421 -0.41732,0.41734 m 2.77418,-135.58836 -1.93582,1.93593 M 385.0089,264.62553 244.76793,404.8739 M 410.79684,122.62395 248.20147,285.22789 m 150.5881,-17.782 -144.53121,144.53883 M 405.20153,277.63535 262.06931,420.77511 M 416.21033,133.81193 271.91151,278.11836 M 518.61046,180.82218 276.32763,423.11779 M 423.74433,142.87929 283.33657,283.29445 M 436.51702,146.70767 287.72464,295.5079 M 528.22047,187.81343 292.92851,423.11779 m 28.44396,-310.67528 -23.29339,23.29462 M 332.57814,117.838 300.19907,150.21878 M 622.40216,110.2285 309.52939,423.11779 M 626.42797,122.80423 326.13027,423.11779 m 304.83068,-288.245 -288.2298,288.245 M 639.39184,143.04322 359.33203,423.11779 M 646.51441,152.52203 375.9329,423.11779 M 407.74126,92.476182 383.73345,116.48526 m 19.43824,113.37477 -18.53083,18.5318 m 4.18964,-153.605641 -3.89604,3.896239 m 24.3633,8.838922 -23.21449,23.21572 m 5.13329,127.68047 -3.63018,3.63037 M 656.39631,159.24134 392.53378,423.11779 M 555.92022,93.705195 393.39513,256.23886 M 495.85239,137.17443 407.46266,225.56882 M 669.20323,163.03553 409.13466,423.11779 m 133.8728,-299.8974 -131.85928,131.86624 m 6.55663,-155.972768 -5.16606,5.166328 m 167.47861,-1.4699 -166.85569,166.8645 m 7.23093,-156.64711 -2.71029,2.71043 M 664.84927,183.99147 425.73554,423.11779 M 673.61307,191.82893 442.33642,423.11779 m 35.4904,-317.7221 -28.97516,28.97669 m 20.43146,-37.034286 -18.90651,18.907496 m 32.34197,0.85984 -28.25033,28.25182 M 675.29932,206.74436 458.9373,423.11779 M 675.19461,223.45083 475.53818,423.11779 M 754.71091,160.53209 492.13906,423.11779 M 537.39757,79.025315 502.58919,113.83553 m 45.19172,-28.592353 -42.6469,42.649153 m 13.20252,-46.406722 -12.7043,12.704963 M 662.85641,268.99319 508.73993,423.11779 m 35.85015,-268.27659 -22.02133,22.02249 m 25.66232,223.36264 -22.89026,22.89146 m 27.24475,-259.67073 -22.14838,22.14954 m 224.27373,24.74075 -212.76922,212.78044 m 28.6064,-327.43948 -24.75154,24.75285 M 754.71091,193.7356 550.71779,397.73948 m 50.43042,-299.459378 -46.0834,46.085808 m 199.6461,82.5732 -196.16834,196.17868 m 54.72791,-320.35884 -51.31869,51.32138 M 754.71091,243.54086 575.14345,423.11779 M 754.71091,260.14262 591.7443,423.11779 M 754.71091,276.74437 608.3452,423.11779 M 754.71091,293.34613 624.94609,423.11779 M 754.71091,309.94788 641.54699,423.11779 m 113.16392,-96.56815 -96.56308,96.56815 m 96.56308,-245.98394 -89.41751,89.4222 m 89.41751,76.59534 -79.96219,79.9664 m 5.21364,-254.24023 -4.20206,4.20228 M 710.09621,88.936856 685.544,113.49038 m 4.18352,78.825 -3.94188,3.94211 m 6.75621,9.84517 -6.37875,6.3791 M 724.69697,90.937112 687.99326,127.64271 m 40.61947,9.18369 -38.35897,38.36096 m 64.45715,184.56578 -63.36129,63.36465 m 3.88213,-236.30688 -1.3888,1.38885 m 28.6268,-78.43357 -28.55331,28.55481 m 47.00426,2.79851 -42.44523,42.44747 m 51.67089,-35.07182 -49.63354,49.63614 m 25.04376,-74.85035 -23.9182,23.91945 m 53.07253,229.1545 -46.76046,46.76289 m 46.76046,-30.16113 -30.15956,30.16113 m 7.19036,-322.62404 -4.54196,4.54217 m 27.51116,304.52249 -13.55866,13.55938 M 17.16912,92.92769 2.8539625,107.2436 m 3.0675334,13.53406 -3.0675334,3.0677 m 9.8985145,6.70272 -9.8985145,9.89903 M 21.850088,138.05174 2.8539625,157.04887 M 45.875294,130.62702 2.8539625,173.65062 M 56.154361,136.94916 2.8539625,190.25238 M 64.80944,144.89538 2.8539625,206.85413 M 69.557719,156.74861 2.8539625,223.45588 M 36.485034,206.42479 2.8539625,240.05764 M 34.711659,224.80002 2.8539625,256.65939 M 85.412609,190.69814 2.8539625,273.26115 M 136.60625,156.10356 2.8539625,289.8629 M 33.058991,276.25804 2.8539625,306.46466 M 35.674281,290.24436 2.8539625,323.06641 M 37.293497,305.22682 2.8539625,339.66817 M 36.483695,322.63841 2.8539625,356.26992 M 32.964449,342.7596 2.8539625,372.87167 M 45.647299,346.67784 2.8539625,389.47343 M 31.886232,377.04138 2.8539625,406.07519 M 254.05733,171.46032 2.8539625,422.67694 M 13.075263,80.42001 5.2556613,88.240022 M 33.74544,43.146988 5.8250294,71.06887 m 17.4053476,32.399 -12.440832,12.44149 M 277.357,164.76117 19.014008,423.11779 M 46.10742,47.386109 20.577642,72.917232 m 13.322732,36.481828 -7.54498,7.54538 m 10.020032,-26.622316 -2.27806,2.278182 m 2.169892,-18.771759 -1.452172,1.452247 M 253.52422,205.19696 35.614887,423.11779 M 231.37173,177.54536 36.149774,372.77762 M 73.130777,169.77712 38.043489,204.86626 M 83.089072,176.42005 39.72974,219.78167 m 7.709827,-123.922517 -3.011898,3.012059 m 3.750025,-20.351974 -1.665992,1.666076 M 60.154319,49.940223 47.998812,62.096372 M 265.56471,209.7576 52.215766,423.11779 M 65.412921,61.283103 53.849605,72.847026 M 68.905247,74.392347 55.636168,87.662124 M 229.21778,163.09767 58.347218,333.97725 M 175.06889,200.64766 58.905749,316.81693 M 145.42464,163.88646 59.820045,249.49557 M 172.29387,186.82107 61.955524,297.16524 M 163.56991,178.94375 65.491787,277.02704 M 266.76351,225.16049 68.816644,423.11779 M 171.92359,153.98786 69.133815,256.78306 M 123.81337,384.71993 85.417522,423.11779 M 118.87895,140.62828 93.974787,165.53377 M 118.33422,157.7748 97.928187,178.18191 M 218.66224,306.4678 102.0184,423.11779 m 15.82061,-298.05126 -12.5707,12.57136 m 5.46638,-22.06842 -3.0932,3.09336 m 77.8908,237.53843 -66.91301,66.91653 m 5.24726,-320.68087 -4.54678,4.54702 m 11.00073,38.80395 -6.44498,6.44532 M 227.9044,280.6234 131.56475,376.96813 m 3.49415,-269.1224 -1.87076,1.87086 m 51.7398,263.6908 -49.70778,49.7104 m 5.01509,-303.84693 -4.04507,4.04529 m 49.49238,265.93833 -33.86152,33.86331 m 34.87035,-317.10201 -23.03533,23.03655 m 101.43127,197.39495 -96.66541,96.67051 m 7.01617,-256.04285 -3.23618,3.23635 m 14.30283,-47.5071 -7.23994,7.24033 m 4.50739,-37.711146 -1.6112,1.611295 m 3.85146,62.555351 -1.75425,1.75434 m 12.91325,3.68782 -10.209,10.20954 m 37.29337,145.32397 -35.46304,35.46491 m 55.091,-21.8904 -51.19589,51.19859 m 49.09364,-65.69799 -48.51555,48.51812 m 10.49187,-193.11172 -3.44861,3.44879 m 26.88681,-26.88824 -18.5254,18.52639 m 9.32587,-25.92812 -9.17712,9.17759 m 115.12544,133.89482 -108.35279,108.3585 m 10.26479,-259.29164 -2.50804,2.50817 m 92.94616,172.677 -85.87324,85.87777 m 110.4681,-226.6862 -106.48327,106.48888 m 12.00595,-111.61711 -5.62974,5.63004 m 79.95749,152.46285 -78.70712,78.71127 m 1.72476,-250.75117 -0.66108,0.66112 m 41.19642,91.61544 -37.63389,37.63588 m 80.57967,52.23012 -75.3087,75.31267 m 33.26047,-149.47451 -29.56127,29.56283 m 33.55432,-116.56486 -30.09546,30.09704 m 76.5689,139.24987 -75.09966,75.10363 m 84.4503,-67.853 -76.98072,76.98477 m 63.62321,-279.44937 -54.49893,54.50181 m 10.76019,72.24802 -3.93794,3.93815 m 71.02812,78.38391 -70.37377,70.37748 m 72.03779,-254.66088 -69.48384,69.4875 m 42.59589,-75.80165 -38.89451,38.89656 m 7.80371,75.20466 -5.87667,5.87698 m 7.71345,-40.91736 -5.45872,5.45899 m 19.0533,30.75097 -16.19314,16.19399 m 14.81741,-164.23398 -12.17128,12.17192 m 65.24654,216.97985 -64.58905,64.59245 m 18.46923,-284.09827 -15.72435,15.72518 m 26.92737,72.68174 -24.07637,24.07763 m 20.16605,-3.56536 -19.66831,19.66935 m 98.94811,-132.15684 -98.48324,98.48844 m 18.03119,-117.64267 -8.43046,8.4309 m 216.57278,82.24738 -216.13112,216.14252 m 17.6391,-299.86985 -14.08435,14.08509 m 17.43192,-0.83108 -5.86111,5.86142 m 176.19302,106.0275 -174.7177,174.72692 m 1.47325,-117.68561 -0.55432,0.55435 M 405.09372,153.23 339.87848,218.44868 m 2.78755,13.81405 -2.53643,2.53657 m 19.79492,63.21281 -17.80958,17.81052 m 21.41509,-87.82324 -18.98441,18.98542 m 29.06028,20.74344 -27.39282,27.39426 m 27.46534,5.73673 -23.44422,23.44545 m 146.96468,-47.3619 -146.1673,146.175 m 76.91108,-276.13618 -68.88301,68.88664 m 11.22491,21.97801 -10.80786,10.80843 m 17.93163,65.07619 -15.21063,15.21144 m 22.84252,-56.04723 -20.20986,20.21092 m 154.8152,-22.00934 -152.0131,152.02112 m 73.16281,-272.38772 -64.11113,64.11452 m 154.22658,-21.42068 -148.4001,148.40792 m 77.7319,5.27278 -76.00917,76.01318 m 9.90699,-192.52682 -9.61273,9.61324 m 3.13858,46.66652 -2.97952,2.97968 M 398.49797,93.419087 385.097,106.82076 m 12.45637,4.14472 -6.55525,6.5556 m 11.4934,5.10775 -11.09454,11.09513 m 61.99952,21.00598 -60.89405,60.89726 m 3.49235,96.11799 -2.97943,2.97959 m 2.969,-69.37618 -2.04808,2.0482 m 6.13795,-6.13828 -2.72236,2.72251 m 63.77686,118.83907 -60.29452,60.29769 M 521.9055,185.82785 402.10534,305.63433 m 45.73323,-128.74441 -40.5906,40.59273 m 4.12123,-120.333721 -1.72521,1.7253 m 33.36242,99.449861 -32.8405,32.84222 m 24.06268,-7.4622 -22.27827,22.27945 m 5.89178,-105.50261 -5.04484,5.04511 m 31.70224,84.50836 -30.26022,30.26181 m 2.94445,-152.36039 -0.27755,0.27756 m 35.58995,130.42573 -35.21111,35.21296 m 46.53875,102.87459 -46.38867,46.39111 m 46.84443,-30.24515 -30.24355,30.24515 m 7.11408,-206.3355 -0.33396,0.33397 m 13.88031,-30.48279 -4.24334,4.24356 m 13.70572,218.71812 -13.52193,13.52264 m 4.1104,-219.93343 -1.37436,1.37444 m 11.78992,-78.19756 -11.23141,11.23201 m 6.41901,-23.02111 -6.33345,6.33378 m 33.35601,16.4475 -32.31306,32.31476 m 57.06923,9.33478 -56.25585,56.25882 m 8.36044,-91.36965 -4.45481,4.45504 m 45.44188,20.96274 -41.33394,41.33611 m 4.4576,-21.05957 -3.72026,3.72044 m 32.09638,117.31772 -31.39511,31.39676 m 28.88949,-12.28926 -28.47953,28.48105 m 3.97115,-219.79418 -2.95754,2.9577 m 26.3098,206.11338 -25.99405,25.99542 m 27.11287,-10.51255 -25.54451,25.54586 m 19.72253,-235.54638 -19.15236,19.15336 m 24.12669,-7.5262 -22.38404,22.38522 m 5.96326,-72.37059 -5.838,5.83831 m 8.69266,7.90863 -7.68935,7.68976 m 22.64385,242.98304 -17.94363,17.94457 m 13.39413,3.20691 -10.11977,10.1203 m 9.46183,7.13943 -5.67235,5.67264 m 10.6845,-27.2868 -2.63433,2.63446 m 13.16646,-262.19347 -7.6266,7.627 m 21.81708,144.19931 -18.83537,18.83638 m 8.61729,-41.82126 -8.19601,8.19644 m 30.43872,-146.65261 -26.58198,26.58338 m 21.29058,-71.096959 -20.53162,20.532699 m 6.53063,308.90236 -6.41871,6.41905 m 12.5284,-311.36065 -12.03283,12.03347 m 8.37803,8.22329 -4.07579,4.076 m 13.24574,102.96585 -9.63089,9.63139 m 26.79418,39.61143 -26.54369,26.54508 m 19.22364,-168.64043 -18.88777,18.88875 m 6.84808,92.76209 -6.04541,6.04573 m 11.94529,154.07162 -10.26585,10.2664 m 22.71667,-271.74419 -15.0484,15.04919 M 649.36202,274.18739 526.39526,397.16066 M 541.19175,83.531811 526.47749,98.246844 m 8.29173,124.521866 -6.71906,6.71942 m 115.60385,33.80584 -114.49448,114.50052 m 9.45813,-75.86564 -9.19264,9.19312 m 7.61516,-57.42083 -6.82988,6.83024 m 15.88499,83.7247 -15.61629,15.61711 m 6.04747,-122.26006 -5.56556,5.56585 m 3.35626,179.26286 -0.67592,0.67595 m 43.45095,-143.06376 -41.93744,41.93965 m 3.25383,-53.05926 -2.03553,2.03564 m 20.1819,-103.19174 -17.98091,17.98186 m 11.28165,5.3195 -10.94541,10.94599 M 550.44734,90.877489 539.01587,102.30956 m 13.61793,301.81469 -13.01404,13.01473 m 2.32913,-118.54154 -0.86196,0.86201 m 4.09008,-87.09907 -4.0446,4.04481 m 4.86522,44.93978 -1.21191,1.21198 m 10.18001,23.02296 -9.82177,9.82229 m 2.73292,-19.33482 -2.33304,2.33317 m 2.97878,-52.78421 -1.90881,1.90891 m 5.52171,-22.12375 -5.00923,5.00949 M 561.7913,96.134684 547.16345,110.7633 m 97.40811,118.40957 -94.90131,94.90631 m 12.90242,86.70742 -12.33054,12.33119 m 1.9181,-184.53749 -1.54671,1.54679 m 104.39441,45.0159 -103.24088,103.2463 m 5.75485,-271.38323 -3.22185,3.22202 m 8.38702,8.21429 -7.66302,7.66343 m 10.55845,188.66204 -5.31641,5.31669 m 9.80621,-192.42602 -9.23599,9.23648 m 4.5901,-37.79385 -3.35533,3.35549 m 99.02724,183.19737 -97.81548,97.82065 m 105.97075,-72.77286 -102.41058,102.416 m 23.59438,-322.42718 -23.02914,23.03033 m 6.02994,-22.63201 -5.3633,5.36359 M 744.199,229.15071 570.10357,403.25531 M 585.611,188.52601 572.08811,202.0496 m 39.37973,10.42349 -37.55923,37.56118 m 32.58782,-148.80181 -31.11748,31.11912 m 4.50265,128.31115 -4.22189,4.22211 m 20.19116,-69.99748 -19.23072,19.23172 m 30.06732,-13.46718 -27.26275,27.26423 m 18.77663,-101.78638 -18.06412,18.06505 m 4.50117,28.70211 -3.62014,3.62033 m 57.41865,75.39237 -56.53334,56.5363 m 28.12887,-177.54613 -28.08353,28.085 m 172.762,92.85696 -171.26702,171.27605 m 23.91773,-189.93653 -23.67616,23.67741 m 4.61116,11.99033 -1.05228,1.05236 M 615.7691,141.76454 593.51114,164.0237 m 6.99291,92.61727 -3.24202,3.24214 m 6.90223,-73.30962 -6.16358,6.16394 m 156.71023,75.70606 -154.66613,154.6743 m 5.69187,-304.52375 -3.02064,3.02081 m 12.75639,120.05698 -9.78588,9.78634 m 11.22316,-144.03777 -6.94162,6.94198 M 754.71091,285.04525 616.64567,423.11779 m 12.55584,-278.18458 -5.91026,5.91057 m 10.36541,39.4393 -5.99367,5.99396 m 13.53976,-46.74395 -12.9148,12.91545 M 754.71091,301.647 633.24651,423.11779 m 12.42307,-261.45003 -11.94742,11.94808 m 14.99629,18.2064 -7.22552,7.22593 m 6.91732,42.88754 -2.85277,2.85292 m 109.15343,73.46013 -104.8635,104.86903 m 4.16057,-203.38186 -1.54134,1.54143 m 1.41474,15.18694 -0.58693,0.58697 m 12.54744,-45.75162 -4.64696,4.64719 m 93.51598,138.90368 -88.26261,88.26727 M 748.04221,241.909 671.77944,318.17586 m 62.70376,-95.91059 -58.64655,58.64959 m 78.87426,70.53741 -71.66177,71.66552 m 7.55519,-206.77664 -5.8133,5.81361 m 52.79591,-19.59518 -52.03073,52.03351 m 48.07946,-64.68375 -46.31644,46.31885 m 2.53595,-118.74835 -0.63136,0.63142 m 25.57587,40.82977 -17.9523,17.95324 m 15.39329,-31.99583 -14.9197,14.92049 m 8.84045,-42.04445 -6.58112,6.5815 m 55.1306,243.69804 -55.06087,55.06377 m 6.05224,-238.47712 -1.70756,1.70763 m 2.62734,-52.43271 -1.63079,1.63086 m 10.97805,55.4284 -8.93013,8.93062 m 1.45142,-18.05327 -0.90517,0.9052 m 2.14065,-51.94601 -1.96956,1.96966 m 19.51583,30.28841 -17.3392,17.3401 m 7.11253,-90.121685 -6.89478,6.895162 m 5.65836,44.146633 -1.43223,1.43225 m 40.33387,241.89386 -38.45998,38.46201 m 14.10058,-246.52589 -5.7437,5.74402 m 9.33242,-25.93472 -5.66593,5.66625 m 26.43661,239.19008 -21.85908,21.86026 m 9.53356,-208.75514 -7.15685,7.15724 m 6.42999,-39.63385 -3.66878,3.66895 m 2.71643,-35.92007 -1.18219,1.18225 m 6.39495,43.40996 -5.29434,5.29465 m 14.08631,218.3375 -5.25825,5.25851 M 2.9299752,152.82241 l -0.076013,0.076 m 8.0383108,0.26214 -8.0383108,8.03873 M 20.773527,151.57967 2.8539625,169.50018 m 24.0887315,-15.78912 -24.0887315,24.09 M 51.438063,137.51528 2.8539625,186.10194 M 56.630201,140.62374 2.8539625,194.40282 M 60.514617,145.03999 2.8539625,202.70369 M 63.894651,149.96066 2.8539625,211.00457 M 66.490172,155.66588 2.8539625,219.30544 M 67.678147,162.77872 2.8539625,227.60632 M 33.667772,205.09177 2.8539625,235.9072 M 33.635678,213.42474 2.8539625,244.20808 M 32.500126,222.86123 2.8539625,252.50896 M 32.247293,231.41495 2.8539625,260.80983 M 34.001055,237.96198 2.8539625,269.11071 M 32.689555,247.57442 2.8539625,277.41158 M 40.235118,248.32933 2.8539625,285.71246 M 28.803612,268.06232 2.8539625,294.01334 M 30.045792,275.12095 2.8539625,302.31422 M 31.595801,281.87174 2.8539625,310.6151 M 32.557955,289.21042 2.8539625,318.91597 M 33.491402,296.57779 2.8539625,327.21685 M 34.309626,304.0604 2.8539625,335.51773 M 34.125607,312.54531 2.8539625,343.81861 M 33.800127,321.17168 2.8539625,352.11948 M 32.810598,330.46215 2.8539625,360.42036 M 30.849353,340.72437 2.8539625,368.72124 M 27.868193,352.00657 2.8539625,377.02211 M 28.387587,359.78802 2.8539625,385.32299 M 25.416382,371.06026 2.8539625,393.62387 M 25.236297,379.54123 2.8539625,401.92475 M 22.810246,390.26829 2.8539625,410.22562 M 24.291366,397.08797 2.8539625,418.5265 M 24.570361,405.10983 6.5633492,423.11779 M 25.246564,412.73447 14.863788,423.11779 m 2.847895,-318.28137 -0.25254,0.25255 m 14.745089,35.05939 -1.977085,1.97719 m 16.137998,-7.83797 -14.164697,14.16545 m 2.85713,212.96552 -2.49138,2.49151 m 8.05272,0.24774 -3.371566,3.37174 m 32.12954,-198.14877 -31.424158,31.42581 m 35.945477,-27.64649 -32.379058,32.38076 m 6.207577,159.80964 -5.127111,5.12738 m 23.23811,-14.93846 -19.936888,19.93794 M 77.257297,178.1017 46.313553,209.04707 m 9.899983,189.32055 -7.850841,7.85125 M 68.433954,361.24392 49.009975,380.66893 M 51.654302,54.290251 50.537247,55.407365 M 77.505751,186.15411 53.745733,209.91538 m 30.689034,-5.78802 -30.336874,30.33847 m 94.901567,54.50922 -94.752277,94.75727 M 118.41919,178.44202 56.923625,239.94083 M 79.501206,383.3796 57.830995,405.05095 m 24.406213,-16.10662 -24.288809,24.29009 m 0.98308,-357.920853 -0.813716,0.81376 m 4.352081,20.550322 -3.775842,3.776041 m 80.168778,85.84453 -78.957132,78.96131 m 19.608429,-44.5121 -19.563775,19.5648 m 14.802549,151.21422 -14.52651,14.52728 M 76.645042,195.31574 60.333279,211.62836 m 16.205476,166.41297 -15.848088,15.84892 m 24.260627,0.64073 -24.102802,24.10407 M 152.58519,235.58386 61.159042,327.01484 M 148.02124,231.84718 61.614653,318.25832 M 175.59013,220.87859 61.649598,334.82513 M 148.99946,222.56803 62.787256,308.78478 M 145.08469,168.37687 63.167639,250.29823 M 151.34718,211.91931 64.564426,298.70664 M 87.332779,400.45025 64.666423,423.11779 M 226.71229,178.05461 65.299515,339.4759 M 151.93411,203.03147 66.243333,288.72677 M 158.09687,188.56751 67.880779,278.78836 m 78.329131,-103.2359 -78.079457,78.08358 m 89.966417,-73.36941 -86.790564,86.79514 m 1.203211,81.8055 -0.691315,0.69135 M 167.96107,261.71157 72.70655,356.97111 M 232.18975,180.87773 72.81738,340.25851 m 17.030704,65.97717 -16.881219,16.88211 M 145.95164,184.11163 73.116896,256.95021 m 94.507864,-3.20319 -91.006735,91.01153 M 249.37667,196.89341 77.191943,369.08723 M 249.88448,204.68647 79.86083,374.71908 m 11.619517,38.18514 -10.21304,10.21357 M 251.35345,211.51828 83.655899,379.22468 M 253.04973,218.1228 86.414487,384.76683 m 7.876209,33.62776 -4.722953,4.7232 M 235.28914,244.1852 89.776455,389.70556 M 218.70632,269.06978 91.369412,396.4134 m 22.706768,-14.40709 -21.128508,21.12962 m 11.151668,-2.85137 -8.714055,8.71451 M 116.22993,172.33051 95.656698,192.90483 m 9.374792,223.04928 -6.628137,6.62848 m 3.032057,-268.66028 -2.837343,2.83749 m 5.414723,2.88587 -5.333985,5.33426 m 5.420535,243.6055 -4.695442,4.69569 m 12.307122,-244.73233 -10.1689,10.16943 m 15.7949,208.32796 -6.3981,6.39843 m 6.01604,-246.7418 -2.00314,2.00325 M 221.613,274.46382 115.99001,380.09238 m 7.1021,9.49928 -5.35174,5.35202 m 7.48844,0.81205 -1.00055,1.00059 m 10.5516,-234.67583 -10.43593,10.43648 m 99.07857,108.43814 -93.77552,93.78045 m 2.12295,22.77958 -1.19046,1.19052 m 9.59911,-1.29874 -6.11482,6.11514 m 13.30154,-5.00136 -11.70424,11.70486 m 24.96027,-16.66071 -23.65558,23.65682 m 18.19647,-9.89655 -15.79184,15.79267 m 80.33174,-130.14124 -78.40391,78.40806 m 75.45345,-67.15657 -74.55289,74.55683 m 74.6939,-66.39696 -73.00248,73.00632 m 9.51124,31.99265 -5.73061,5.73091 m 35.37089,-68.57626 -34.05134,34.05314 M 255.16593,182.80298 151.06939,286.905 m 30.61619,77.29361 -27.97866,27.98013 m 4.09648,-219.9195 -2.64118,2.64132 m 1.22414,247.80212 -0.4151,0.41511 m 14.46578,-205.38672 -12.40433,12.40498 m 8.1835,-16.4848 -7.82588,7.82629 m 9.97781,-18.27921 -8.51048,8.51093 m 4.88255,-13.18369 -3.70869,3.70889 m 23.5152,-89.92346 -17.81701,17.81796 m 14.70087,-23.00253 -14.63561,14.63638 m 71.46914,61.34112 -64.52092,64.52433 m 72.71476,-64.41772 -71.28142,71.28518 m 9.35303,-133.86669 -6.65094,6.6513 m 43.72709,47.58025 -35.39054,35.39241 m 34.5556,106.55749 -32.33956,32.34126 M 224.979,320.9029 192.05791,353.82573 m 37.75291,-29.45402 -35.40273,35.40459 m 28.54659,-3.64546 -26.99325,26.99467 m 39.47338,-56.07722 -39.3552,39.35729 m 44.12955,-35.831 -43.8673,43.86961 m 23.98162,-7.38114 -23.24621,23.24745 m 62.9283,-54.63074 -51.41243,51.41513 m 9.90996,-217.43241 -9.64072,9.64122 m 6.01205,-14.31324 -3.28311,3.28329 m 64.74486,159.3754 -59.36743,59.37056 m 19.22141,-135.4347 -14.53105,14.53181 m 99.15435,25.35359 -95.53602,95.54106 m 37.73362,-153.9479 -35.08586,35.08772 m 15.81373,67.1942 -11.72528,11.7259 m 17.55633,-92.26515 -16.30972,16.31058 m 7.85253,108.35934 -7.54316,7.54355 m 23.19832,-164.31445 -17.86683,17.86777 m 9.0196,24.18344 -8.4358,8.43624 m 75.34137,40.86694 -75.01756,75.02151 m 7.69093,-148.80624 -4.50674,4.50698 m 10.76327,88.84669 -10.63444,10.63499 m 2.11807,-176.43661 -1.15423,1.1543 m 7.1264,100.78463 -5.36582,5.3661 m 71.81756,44.39094 -71.60172,71.6055 m 66.92189,-83.52719 -66.76065,66.76418 m 14.30671,-147.1215 -10.27866,10.2792 m 7.68996,33.81402 -7.13376,7.13413 m 2.46248,113.74967 -1.85129,1.8514 m 14.18477,-122.09693 -10.54875,10.54931 m 12.30159,95.60917 -11.82,11.82062 m 1.59044,6.71035 -1.50701,1.5071 m 11.45993,-160.87633 -8.55958,8.56004 m 11.21423,-77.62185 -8.06213,8.06256 m 8.82947,206.99286 -7.83877,7.83919 m 15.20844,-222.73117 -11.74879,11.74941 m 5.80075,60.60597 -5.33262,5.33289 m 4.25745,145.15811 -2.99337,2.99353 m 5.94504,-22.54711 -3.86668,3.86689 m 13.53463,-204.45552 -13.34171,13.34242 m 7.54326,191.67739 -4.28041,4.28064 m 15.83227,-206.75328 -15.03462,15.03541 m 12.19999,203.62217 -9.93786,9.93839 m 5.03684,-21.63886 -4.84657,4.84682 m 69.03258,-35.83271 -67.47123,67.47479 m 5.91932,-30.82227 -5.40529,5.40557 m 41.82644,-66.73127 -41.61775,41.61995 m 9.49343,32.01045 -9.41203,9.41253 m 71.72649,-55.12852 -70.25303,70.25673 m 43.29961,-93.10715 -40.9041,40.90625 m 19.43214,-202.05246 -18.88339,18.88439 m 36.55908,96.25302 -36.51897,36.52091 m 44.01214,14.09167 -42.02982,42.03204 m 46.19284,-37.89441 -43.82567,43.82798 M 312.75284,208.2218 287.8817,233.09426 m 67.98982,122.92677 -67.09323,67.09676 m 47.32249,-80.5285 -46.92295,46.92543 m 51.62371,-43.32555 -51.52588,51.5286 m 17.45141,-224.97426 -16.579,16.57987 m 23.20674,26.5973 -22.74451,22.74571 m 51.36225,-67.96672 -51.11628,51.11898 m 23.18842,-48.09228 -21.88869,21.88986 m 4.61561,3.68501 -1.75603,1.75612 m 2.32941,39.17486 -1.9539,1.954 m 65.69047,116.92537 -64.00283,64.0062 m 26.8492,-250.9743 -26.03286,26.03423 m 37.58919,-29.29029 -36.51897,36.5209 m 11.8068,79.50223 -11.63219,11.6328 m 11.78962,-20.09113 -10.34649,10.34704 m 4.51036,-153.92638 -1.86591,1.866 m 63.7152,226.81214 -61.56351,61.56676 m 21.38249,-187.40116 -16.99682,16.99772 m 17.53124,-42.4348 -17.46558,17.4665 m 14.08045,19.12232 -13.21772,13.21842 m 16.83213,-33.43478 -16.74292,16.74381 m 19.39642,-27.69832 -19.03737,19.03837 m 2.04738,-76.75538 -1.46035,1.46042 m 5.07167,260.55614 -3.12058,3.12074 m 6.79897,-264.12652 -4.83081,4.83107 m 4.59277,-46.0974 -2.81278,2.81293 m 5.36158,293.46971 -1.90473,1.90483 m 6.32296,-255.3496 -5.38915,5.38942 m 39.16112,10.64209 -28.95647,28.958 m 36.26493,-27.96597 -35.44314,35.445 m 40.55053,150.36752 -40.41742,40.41955 m 16.19458,-223.71737 -14.11638,14.11712 m 44.28724,171.53324 -38.30925,38.31126 m 40.30053,-231.22283 -38.59619,38.59822 m 33.65609,165.5632 -30.6659,30.66752 m 32.76028,-24.46114 -30.38371,30.38532 m 29.79678,-21.49747 -26.38968,26.39107 m 36.86294,-244.38682 -35.30725,35.30911 m 26.00785,189.81359 -22.18854,22.18971 m 22.77547,-14.47579 -16.18058,16.18143 m 29.97021,-245.7946 -28.47897,28.48047 m 15.62284,-48.82717 -9.14988,9.15036 m 9.09677,248.22994 -8.76054,8.761 m 24.11854,-239.94261 -20.67604,20.67713 m 21.12134,-54.32597 -17.23117,17.23208 m 4.86613,252.46081 -3.89836,3.89856 m 4.93056,-71.33783 -4.05157,4.05179 m 19.8105,-202.43085 -14.51604,14.5168 m 8.81316,24.38988 -7.91751,7.91794 m 6.54918,1.75135 -2.00884,2.00895 m 12.92824,-46.13244 -12.79852,12.7992 m 5.21849,169.09965 -3.34105,3.34123 m 7.91842,0.38204 -5.47802,5.47831 m 26.63359,-200.95342 -25.73639,25.73775 m 11.23913,179.68046 -10.71068,10.71123 m 7.69957,-16.00085 -7.57448,7.57489 m 12.68796,3.91312 -9.94894,9.94947 m 28.51695,-219.43864 -27.38856,27.39002 m 5.98372,151.73262 -5.49326,5.49355 m 10.31465,31.18919 -9.77628,9.7768 m 18.2115,-9.91158 -16.24511,16.24596 m 31.19399,-230.41668 -29.70784,29.7094 m 16.26564,191.25543 -16.04585,16.0467 m 20.10659,-11.80677 -18.32912,18.33008 m 15.05873,-6.75864 -12.8285,12.82918 m 30.98638,-246.81083 -30.71726,30.71888 m 22.3905,201.732 -20.86536,20.86647 m 1.81944,-176.13796 -1.07906,1.07911 m 1.53577,6.76503 -0.90052,0.90057 m 1.69497,114.51722 -1.42724,1.42732 m 5.86074,-63.96719 -5.80409,5.80439 m 32.64023,-140.55336 -32.63598,32.63771 m 45.55711,178.56417 -45.24912,45.25151 m 9.53516,-59.34093 -9.16859,9.16908 m 15.86965,42.23566 -14.25739,14.25813 m 38.46038,-262.5861 -37.89334,37.89534 m 10.04216,97.86872 -7.31281,7.31319 m 24.95558,-124.56743 -24.93442,24.93574 m 11.22045,212.90265 -9.00515,9.00562 m 15.10271,-230.92631 -14.50217,14.50294 m 11.43745,88.17247 -10.72494,10.7255 m 11.79803,-103.1083 -10.30623,10.30678 m 5.41354,168.90459 -4.45625,4.45649 m 17.72724,-92.43607 -14.37974,14.3805 m 5.25707,110.95493 -4.06627,4.06648 m 27.96851,-135.88139 -26.91005,26.91148 m 27.02482,47.68165 -23.91739,23.91865 m 23.82864,-32.13078 -23.04607,23.04728 m 22.76048,-31.06256 -22.17355,22.17473 m 25.09415,8.10803 -24.89097,24.89229 m 23.88594,-65.39159 -23.50219,23.50343 m 25.33972,24.46421 -23.34192,23.34314 m 21.42834,-79.5356 -19.34431,19.34533 m 21.4916,44.91428 -20.96423,20.96534 m 21.04802,-12.74825 -19.87806,19.8791 m 9.23413,-92.24338 -6.55046,6.5508 m 17.14007,74.16868 -15.12434,15.12513 m 5.93319,-180.25192 -3.91218,3.91239 m 9.23765,73.77063 -3.65575,3.65594 m 8.73594,-166.45306 -8.08498,8.0854 m 7.3375,249.98931 -7.29093,7.29131 m 34.94059,-134.55296 -31.02287,31.02451 m 25.10564,-116.41662 -23.17089,23.17211 m 35.09752,64.51116 -33.52392,33.52568 m 4.0289,-161.74576 -2.98209,2.98224 m 23.45623,42.94955 -22.13184,22.13301 m 40.07119,59.53723 -39.58204,39.58411 m 29.37513,-21.07579 -27.32748,27.32891 m 4.2446,-186.86411 -3.45357,3.45374 m 24.53532,166.38357 -24.47432,24.47561 m 23.20629,-14.90664 -23.01601,23.01723 m 12.48111,-153.59669 -12.43887,12.43953 m 22.74514,126.66945 -22.40244,22.40362 m 22.16334,-13.86363 -22.09326,22.09443 m 2.34917,-201.57035 -1.65489,1.65498 m 21.28946,186.23134 -20.21178,20.21286 m 6.55986,-147.67513 -6.37179,6.37213 m 20.88025,128.53443 -19.01495,19.01596 m 2.21775,-209.7398 -2.12867,2.12878 m 7.59977,17.30247 -7.42122,7.4216 m 6.42662,-47.93134 -5.53723,5.53752 m 4.23459,28.96871 -4.05082,4.05102 m 6.22974,101.68134 -5.94243,5.94274 m 0.68128,-116.8936 -0.031,0.031 m 17.91334,189.60764 -17.25945,17.26036 m 16.79325,-8.49326 -14.32957,14.33033 m 12.31007,-178.32826 -11.80126,11.80188 m 15.20907,159.10855 -13.01713,13.01782 m 3.01014,-119.22258 -2.78918,2.78933 m 5.77541,118.73744 -4.54666,4.54691 m 3.46382,-119.6763 -1.86136,1.86146 m 7.29332,-65.39983 -7.17951,7.17988 m 0.88455,181.73471 -0.79132,0.79136 m 11.40213,-169.1194 -9.51679,9.51729 m 6.79398,-15.09521 -6.78551,6.78587 m 4.49704,-12.79816 -4.06941,4.06963 m 10.80104,14.10101 -7.61437,7.61478 m 10.25193,-1.9516 -5.79183,5.79213 m 9.06288,-0.76247 -4.93166,4.93192 m 3.4792,21.42325 -3.30246,3.30263 m 0.69607,-50.50137 -0.17191,0.17192 m 10.87205,-127.0849 -2.31522,2.31534 m 2.82835,-11.12937 -2.04938,2.04947 m 18.42827,-18.429234 -12.797,12.797674 m 19.88306,-11.583223 -5.93047,5.93078 m 10.53846,-2.23814 -4.50668,4.506913 m 8.53164,257.09599 -5.23769,5.23796 m 17.15935,49.24676 -12.12348,12.12413 m 7.13966,-48.64443 -6.52546,6.5258 m 97.34198,-89.04623 -96.44357,96.44865 m 15.84908,25.65447 -13.1511,13.15179 m 98.21975,-131.42842 -94.21074,94.21569 m 4.79059,36.71354 -0.49916,0.49919 m 94.58394,-127.79245 -91.60571,91.61056 m 96.47793,-88.18215 -91.2129,91.21772 m 3.98245,29.22084 -3.92527,3.92548 m 72.56384,-138.97468 -68.72923,68.73286 m 92.19333,-50.69381 -91.58722,91.59204 m 9.63557,-109.2466 -8.15301,8.15344 m 11.9179,-3.61765 -9.89422,9.89475 m 1.33749,123.1756 -0.98401,0.98405 m 60.04097,-143.05291 -59.73542,59.73857 m 20.2597,-236.08356 -19.05961,19.06061 m 5.04052,3.26008 -1.72928,1.72938 m 87.17507,178.44837 -86.04495,86.04952 m 1.44373,-283.67363 -1.02364,1.0237 m 3.46616,303.66611 -2.20027,2.20038 m 10.6983,-176.7164 -9.87149,9.872 m 14.43939,-22.741 -14.08546,14.08618 m 12.17518,-95.18458 -9.82226,9.82275 m 57.51123,108.50327 -56.42617,56.42917 m 4.10034,95.50997 -3.83373,3.83393 m 53.39342,-161.30761 -52.98008,52.98284 m 2.1015,-85.11038 -1.84177,1.84187 m 1.34716,-84.356 -0.91952,0.91956 m 15.86592,0.73498 -12.84366,12.84436 m 6.08281,259.54493 -5.90883,5.90915 m 47.76109,-172.27674 -47.1304,47.13288 m 77.36943,13.93612 -76.22996,76.23398 m 47.37356,-146.9866 -44.80158,44.80393 m 5.1877,-179.50637 -3.49605,3.49626 m 6.02266,309.4103 -3.9704,3.97063 m 43.84852,-193.26661 -42.02293,42.02517 m 68.18567,48.02296 -67.80159,67.80519 m 9.03972,-241.46474 -7.18021,7.18058 m 6.51398,267.41462 -2.28274,2.28283 m 13.06899,-179.0872 -8.68709,8.68757 m 60.16728,72.6436 -59.02224,59.02531 m 3.1936,38.31064 -0.42006,0.42008 m 56.94832,-90.15483 -53.50434,53.50716 m 6.22392,26.97925 -3.02292,3.02306 m 50.6896,-75.5949 -49.15349,49.15607 m 3.76304,12.83856 -2.50572,2.50585 m 48.27339,-56.57683 -45.7142,45.71661 m 4.28189,20.62053 -3.55333,3.5535 m 4.97094,-13.2721 -2.66296,2.66315 m 43.84518,-52.14841 -42.54448,42.54676 m 5.94354,18.95874 -3.52158,3.52176 m 12.2082,-153.32371 -10.54807,10.54859 M 754.7109,289.1957 632.95744,410.95559 m 42.046,-50.3491 -42.04213,42.04434 m 13.03113,-129.24413 -8.75376,8.75426 m 4.07094,137.04377 -3.91288,3.91307 M 754.71091,297.49657 638.49108,413.72254 m 10.26223,-134.77593 -7.04327,7.04364 m 26.35567,106.45696 -24.83558,24.83687 M 754.71091,314.09832 645.69717,423.11779 m 5.90786,-138.72218 -5.08798,5.08826 m 7.97215,0.32827 -3.36082,3.36102 M 754.71091,322.3992 653.99765,423.11779 m 2.83792,-127.35126 -0.75473,0.75479 m 98.63007,34.17876 -92.41285,92.41771 m 92.41285,-84.11684 -84.11243,84.11684 m 30.42145,-146.63532 -28.38386,28.38538 m 22.08059,-13.78089 -21.76981,21.77098 m 81.76406,-7.0605 -81.51297,81.51728 m 25.59535,-92.00371 -24.79384,24.79514 m 56.15966,-81.06526 -55.39366,55.39655 m 27.99655,5.20553 -27.89619,27.89765 m 33.06874,-24.76959 -32.19632,32.19799 m 78.97268,-70.67597 -78.47596,78.48011 m 78.47596,-61.87835 -78.03935,78.04346 m 78.03935,-86.34434 -77.8473,77.8514 m 77.8473,-3.1435 -75.81195,75.81596 m 34.37471,-183.79233 -30.99188,30.9935 m 10.00011,147.71604 -5.08252,5.08279 m 25.39328,-191.41216 -24.52779,24.52911 m 16.51884,-24.82059 -14.92416,14.92494 m 4.56191,-12.86308 -2.38011,2.3803 m 62.86956,119.7464 -60.41373,60.41689 m 28.72933,-178.14659 -28.62263,28.62411 m 4.6175,153.09891 -3.52158,3.52176 m 4.53749,-195.45789 -2.22886,2.22898 m 35.77301,14.03038 -30.50866,30.51026 m 3.13385,146.2818 -2.40636,2.40647 m 0.2616,-8.56248 -0.0516,0.0515 m 50.70069,-50.70327 -48.50827,48.51082 m 28.50659,-161.32213 -24.95884,24.96017 m 34.30821,-26.00915 -32.80937,32.81113 m 2.46804,138.64669 -1.61658,1.61668 m 34.09974,-166.91556 -33.55019,33.55197 m 6.2876,2.01295 -5.08469,5.08495 m 40.85776,75.35236 -36.40525,36.40717 m 33.54966,-149.76373 -27.64903,27.65052 m 30.50462,94.00692 -27.33555,27.337 m 27.33555,-19.03612 -18.95472,18.9557 m 18.95472,-10.65483 -9.28182,9.28233 m 9.28182,-0.98145 -1.7423,1.74238"
     fill="none"
     stroke="#000000"
     id="path1"
     style="stroke-width:0.586945" />
</svg>
